<svg xmlns="http://www.w3.org/2000/svg" xmlns:xlink="http://www.w3.org/1999/xlink" width="138" zoomAndPan="magnify" viewBox="0 0 103.5 269.999997" height="360" preserveAspectRatio="xMidYMid meet" version="1.0"><defs><g/><clipPath id="1f2f57f18d"><path d="M 0 121 L 103.003906 121 L 103.003906 229 L 0 229 Z M 0 121 " clip-rule="nonzero"/></clipPath></defs><g fill="#000000" fill-opacity="1"><g transform="translate(22.098241, 115.852247)"><g><path d="M 30.921875 -38.34375 C 25.910156 -38.34375 22.046875 -36.53125 19.328125 -32.90625 L 18.703125 -33.859375 C 20.859375 -36.429688 23.363281 -38.46875 26.21875 -39.96875 C 29.082031 -41.46875 31.972656 -42.21875 34.890625 -42.21875 C 37.816406 -42.21875 40.566406 -41.585938 43.140625 -40.328125 C 45.722656 -39.078125 47.921875 -36.921875 49.734375 -33.859375 C 51.753906 -30.160156 52.765625 -25.664062 52.765625 -20.375 C 52.765625 -15.082031 50.8125 -10.132812 46.90625 -5.53125 C 42.9375 -0.800781 37.453125 1.5625 30.453125 1.5625 C 23.453125 1.5625 17.757812 -1.0625 13.375 -6.3125 C 8.988281 -11.570312 6.796875 -18.660156 6.796875 -27.578125 C 6.796875 -35.171875 8.082031 -42.59375 10.65625 -49.84375 C 13.164062 -56.800781 17.03125 -62.753906 22.25 -67.703125 C 27.550781 -72.785156 34.097656 -75.78125 41.890625 -76.6875 L 42.3125 -75.953125 C 37.4375 -74.421875 33.203125 -72.085938 29.609375 -68.953125 C 26.023438 -65.828125 23.15625 -62.101562 21 -57.78125 C 16.75 -49.414062 14.625 -39.628906 14.625 -28.421875 C 14.625 -20.265625 16.015625 -13.75 18.796875 -8.875 C 21.585938 -4 25.457031 -1.5625 30.40625 -1.5625 C 35.351562 -1.5625 39.007812 -3.425781 41.375 -7.15625 C 43.738281 -10.882812 44.921875 -15.328125 44.921875 -20.484375 C 44.921875 -28.078125 42.765625 -33.300781 38.453125 -36.15625 C 36.359375 -37.613281 33.847656 -38.34375 30.921875 -38.34375 Z M 30.921875 -38.34375 "/></g></g></g><g fill="#000000" fill-opacity="1"><g transform="translate(25.334282, 215.038849)"><g><path d="M 11.28125 -47.125 C 15.1875 -47.957031 18.722656 -48.375 21.890625 -48.375 C 25.054688 -48.375 28 -47.882812 30.71875 -46.90625 C 39.707031 -43.707031 44.203125 -37.300781 44.203125 -27.6875 C 44.203125 -23.789062 43.554688 -20.253906 42.265625 -17.078125 C 40.972656 -13.910156 39.382812 -11.300781 37.5 -9.25 C 35.625 -7.195312 33.5 -5.332031 31.125 -3.65625 C 28.757812 -1.988281 26.359375 -0.703125 23.921875 0.203125 C 17.722656 2.367188 13.160156 3.453125 10.234375 3.453125 C 8.566406 3.453125 6.894531 3.378906 5.21875 3.234375 L 5.4375 2.1875 C 5.5 2.1875 5.929688 2.1875 6.734375 2.1875 C 7.535156 2.1875 8.894531 1.941406 10.8125 1.453125 C 12.726562 0.972656 14.800781 0.265625 17.03125 -0.671875 C 19.257812 -1.617188 21.46875 -2.890625 23.65625 -4.484375 C 25.851562 -6.085938 27.859375 -7.898438 29.671875 -9.921875 C 34.128906 -14.796875 36.359375 -20.578125 36.359375 -27.265625 C 36.359375 -31.171875 35.140625 -34.550781 32.703125 -37.40625 C 29.703125 -40.882812 25.140625 -42.625 19.015625 -42.625 C 15.390625 -42.625 11.347656 -41.960938 6.890625 -40.640625 L 5.953125 -41.0625 L 14.109375 -69.375 L 34.796875 -70.9375 C 38.554688 -70.9375 41.304688 -72.679688 43.046875 -76.171875 L 44.09375 -76.171875 L 40.640625 -65.203125 L 16.09375 -63.625 Z M 11.28125 -47.125 "/></g></g></g><g clip-path="url(#1f2f57f18d)"><path stroke-linecap="butt" transform="matrix(0.452369, -0.429544, 0.429544, 0.452369, 9.233869, 213.037183)" fill="none" stroke-linejoin="miter" d="M 0.00148924 2.000278 L 182.421882 1.996268 " stroke="#000000" stroke-width="4" stroke-opacity="1" stroke-miterlimit="4"/></g></svg>