<svg xmlns="http://www.w3.org/2000/svg" xmlns:xlink="http://www.w3.org/1999/xlink" width="500" zoomAndPan="magnify" viewBox="0 0 375 374.999991" height="500" preserveAspectRatio="xMidYMid meet" version="1.0"><defs><g/><clipPath id="44a2bad117"><path d="M 201 302 L 278.855469 302 L 278.855469 315 L 201 315 Z M 201 302 " clip-rule="nonzero"/></clipPath><clipPath id="fab6e313c4"><path d="M 175 335 L 187 335 L 187 374.929688 L 175 374.929688 Z M 175 335 " clip-rule="nonzero"/></clipPath><clipPath id="c5101f24ba"><path d="M 188 335 L 200 335 L 200 374.929688 L 188 374.929688 Z M 188 335 " clip-rule="nonzero"/></clipPath><clipPath id="ab1594354e"><path d="M 225 224.929688 L 236 224.929688 L 236 237 L 225 237 Z M 225 224.929688 " clip-rule="nonzero"/></clipPath><clipPath id="de4596e59f"><path d="M 139 224.929688 L 150 224.929688 L 150 237 L 139 237 Z M 139 224.929688 " clip-rule="nonzero"/></clipPath></defs><g fill="#000000" fill-opacity="1"><g transform="translate(158.101722, 109.192933)"><g><path d="M 31.078125 -38.53125 C 26.035156 -38.53125 22.148438 -36.707031 19.421875 -33.0625 L 18.796875 -34.015625 C 20.960938 -36.609375 23.476562 -38.65625 26.34375 -40.15625 C 29.21875 -41.65625 32.125 -42.40625 35.0625 -42.40625 C 38 -42.40625 40.765625 -41.773438 43.359375 -40.515625 C 45.953125 -39.265625 48.15625 -37.097656 49.96875 -34.015625 C 52 -30.304688 53.015625 -25.789062 53.015625 -20.46875 C 53.015625 -15.15625 51.054688 -10.1875 47.140625 -5.5625 C 43.148438 -0.800781 37.632812 1.578125 30.59375 1.578125 C 23.5625 1.578125 17.84375 -1.0625 13.4375 -6.34375 C 9.03125 -11.632812 6.828125 -18.757812 6.828125 -27.71875 C 6.828125 -35.34375 8.117188 -42.796875 10.703125 -50.078125 C 13.222656 -57.078125 17.109375 -63.0625 22.359375 -68.03125 C 27.679688 -73.132812 34.257812 -76.144531 42.09375 -77.0625 L 42.515625 -76.328125 C 37.617188 -74.785156 33.367188 -72.4375 29.765625 -69.28125 C 26.160156 -66.132812 23.273438 -62.394531 21.109375 -58.0625 C 16.835938 -49.65625 14.703125 -39.820312 14.703125 -28.5625 C 14.703125 -20.363281 16.097656 -13.816406 18.890625 -8.921875 C 21.691406 -4.023438 25.578125 -1.578125 30.546875 -1.578125 C 35.515625 -1.578125 39.1875 -3.445312 41.5625 -7.1875 C 43.945312 -10.9375 45.140625 -15.398438 45.140625 -20.578125 C 45.140625 -28.203125 42.972656 -33.453125 38.640625 -36.328125 C 36.535156 -37.796875 34.015625 -38.53125 31.078125 -38.53125 Z M 31.078125 -38.53125 "/></g></g></g><g fill="#000000" fill-opacity="1"><g transform="translate(161.353396, 208.858696)"><g><path d="M 11.34375 -47.34375 C 15.257812 -48.1875 18.804688 -48.609375 21.984375 -48.609375 C 25.171875 -48.609375 28.128906 -48.117188 30.859375 -47.140625 C 39.890625 -43.921875 44.40625 -37.484375 44.40625 -27.828125 C 44.40625 -23.898438 43.757812 -20.34375 42.46875 -17.15625 C 41.175781 -13.976562 39.582031 -11.351562 37.6875 -9.28125 C 35.800781 -7.21875 33.664062 -5.347656 31.28125 -3.671875 C 28.90625 -1.992188 26.492188 -0.703125 24.046875 0.203125 C 17.816406 2.378906 13.226562 3.46875 10.28125 3.46875 C 8.601562 3.46875 6.925781 3.394531 5.25 3.25 L 5.453125 2.203125 C 5.523438 2.203125 5.960938 2.203125 6.765625 2.203125 C 7.578125 2.203125 8.941406 1.957031 10.859375 1.46875 C 12.785156 0.976562 14.867188 0.265625 17.109375 -0.671875 C 19.347656 -1.617188 21.570312 -2.894531 23.78125 -4.5 C 25.988281 -6.113281 28 -7.9375 29.8125 -9.96875 C 34.289062 -14.875 36.53125 -20.6875 36.53125 -27.40625 C 36.53125 -31.320312 35.304688 -34.710938 32.859375 -37.578125 C 29.847656 -41.078125 25.265625 -42.828125 19.109375 -42.828125 C 15.460938 -42.828125 11.398438 -42.164062 6.921875 -40.84375 L 5.984375 -41.265625 L 14.171875 -69.703125 L 34.953125 -71.28125 C 38.734375 -71.28125 41.5 -73.03125 43.25 -76.53125 L 44.296875 -76.53125 L 40.84375 -65.515625 L 16.171875 -63.9375 Z M 11.34375 -47.34375 "/></g></g></g><path stroke-linecap="butt" transform="matrix(0.454554, -0.431619, 0.431619, 0.454554, 145.175196, 206.847349)" fill="none" stroke-linejoin="miter" d="M -0.000761909 2.002259 L 182.419789 1.997607 " stroke="#000000" stroke-width="4" stroke-opacity="1" stroke-miterlimit="4"/><path fill="#000000" d="M 96.050781 302.613281 L 173.304688 302.613281 L 173.304688 314.652344 L 96.050781 314.652344 Z M 96.050781 302.613281 " fill-opacity="1" fill-rule="nonzero"/><g clip-path="url(#44a2bad117)"><path fill="#000000" d="M 201.40625 302.613281 L 278.660156 302.613281 L 278.660156 314.652344 L 201.40625 314.652344 Z M 201.40625 302.613281 " fill-opacity="1" fill-rule="nonzero"/></g><path fill="#000000" d="M 148.386719 284.480469 C 148.410156 284.480469 148.433594 284.484375 148.457031 284.484375 C 149.070312 284.484375 149.585938 284.003906 149.621094 283.382812 C 150.003906 276.824219 149.195312 272.546875 147.214844 270.664062 C 146.210938 269.710938 145.238281 269.6875 144.933594 269.703125 L 139.070312 269.703125 C 138.765625 269.683594 137.792969 269.710938 136.789062 270.664062 C 134.808594 272.546875 134 276.824219 134.382812 283.382812 C 134.417969 284.003906 134.933594 284.484375 135.546875 284.484375 C 135.570312 284.484375 135.59375 284.480469 135.617188 284.480469 C 136.261719 284.441406 136.75 283.890625 136.714844 283.246094 C 136.363281 277.28125 137.101562 274.488281 137.800781 273.183594 L 137.800781 296.792969 C 137.800781 297.855469 138.660156 298.714844 139.71875 298.714844 C 140.78125 298.714844 141.640625 297.855469 141.640625 296.792969 L 141.640625 282.75 L 142.363281 282.75 L 142.363281 296.792969 C 142.363281 297.855469 143.222656 298.714844 144.28125 298.714844 C 145.34375 298.714844 146.203125 297.855469 146.203125 296.792969 L 146.203125 273.195312 C 146.882812 274.472656 147.640625 277.265625 147.289062 283.246094 C 147.253906 283.890625 147.742188 284.441406 148.386719 284.480469 Z M 148.386719 284.480469 " fill-opacity="1" fill-rule="nonzero"/><path fill="#000000" d="M 145.496094 265.320312 C 145.496094 265.78125 145.410156 266.230469 145.230469 266.660156 C 145.054688 267.085938 144.800781 267.464844 144.472656 267.792969 C 144.144531 268.121094 143.769531 268.375 143.339844 268.550781 C 142.910156 268.730469 142.464844 268.820312 142 268.820312 C 141.539062 268.820312 141.09375 268.730469 140.664062 268.550781 C 140.234375 268.375 139.855469 268.121094 139.53125 267.792969 C 139.203125 267.464844 138.949219 267.085938 138.773438 266.660156 C 138.59375 266.230469 138.503906 265.78125 138.503906 265.320312 C 138.503906 264.855469 138.59375 264.40625 138.773438 263.980469 C 138.949219 263.550781 139.203125 263.171875 139.53125 262.84375 C 139.855469 262.515625 140.234375 262.261719 140.664062 262.085938 C 141.09375 261.90625 141.539062 261.820312 142 261.820312 C 142.464844 261.820312 142.910156 261.90625 143.339844 262.085938 C 143.769531 262.261719 144.144531 262.515625 144.472656 262.84375 C 144.800781 263.171875 145.054688 263.550781 145.230469 263.980469 C 145.410156 264.40625 145.496094 264.855469 145.496094 265.320312 Z M 145.496094 265.320312 " fill-opacity="1" fill-rule="nonzero"/><path fill="#000000" d="M 164.34375 273.191406 C 164.71875 273.898438 165.113281 275.066406 165.339844 276.96875 L 167.535156 281.566406 L 167.832031 281.785156 C 168 276.128906 167.167969 272.386719 165.355469 270.664062 C 164.351562 269.710938 163.378906 269.6875 163.074219 269.703125 L 161.867188 269.703125 L 164.34375 274.890625 Z M 164.34375 273.191406 " fill-opacity="1" fill-rule="nonzero"/><path fill="#000000" d="M 152.523438 283.382812 C 152.558594 284.003906 153.074219 284.484375 153.6875 284.484375 C 153.710938 284.484375 153.734375 284.480469 153.757812 284.480469 C 154.402344 284.441406 154.890625 283.890625 154.855469 283.246094 C 154.800781 282.3125 154.777344 281.464844 154.769531 280.679688 L 152.675781 276.300781 C 152.414062 278.25 152.359375 280.609375 152.523438 283.382812 Z M 152.523438 283.382812 " fill-opacity="1" fill-rule="nonzero"/><path fill="#000000" d="M 160.503906 296.792969 C 160.503906 297.855469 161.363281 298.714844 162.425781 298.714844 C 163.484375 298.714844 164.34375 297.855469 164.34375 296.792969 L 164.34375 293.050781 L 160.503906 290.226562 Z M 160.503906 296.792969 " fill-opacity="1" fill-rule="nonzero"/><path fill="#000000" d="M 158.089844 287.632812 L 155.941406 283.132812 L 155.941406 296.792969 C 155.941406 297.855469 156.800781 298.714844 157.863281 298.714844 C 158.921875 298.714844 159.78125 297.855469 159.78125 296.792969 L 159.78125 289.691406 C 159.0625 289.15625 158.476562 288.445312 158.089844 287.632812 Z M 158.089844 287.632812 " fill-opacity="1" fill-rule="nonzero"/><path fill="#000000" d="M 159.972656 265.734375 L 161.34375 268.601562 C 162.679688 268.113281 163.640625 266.828125 163.640625 265.320312 C 163.640625 263.386719 162.074219 261.820312 160.144531 261.820312 C 159.035156 261.820312 158.046875 262.335938 157.40625 263.144531 C 158.507812 263.691406 159.425781 264.589844 159.972656 265.734375 Z M 159.972656 265.734375 " fill-opacity="1" fill-rule="nonzero"/><path fill="#000000" d="M 178.671875 289.757812 C 178.679688 289.757812 179.871094 289.757812 181.597656 289.757812 C 180.496094 289.152344 179.503906 288.378906 178.644531 287.476562 L 178.644531 289.738281 Z M 178.671875 289.757812 " fill-opacity="1" fill-rule="nonzero"/><path fill="#000000" d="M 171.828125 284.484375 C 171.851562 284.484375 171.875 284.480469 171.898438 284.480469 C 172.542969 284.441406 173.035156 283.890625 172.996094 283.246094 C 172.648438 277.28125 173.382812 274.488281 174.082031 273.183594 L 174.082031 286.382812 L 177.925781 289.207031 L 177.925781 286.648438 C 176.300781 284.59375 175.328125 282.003906 175.328125 279.191406 C 175.328125 275.339844 177.144531 271.910156 179.960938 269.707031 L 175.355469 269.707031 C 175.050781 269.6875 174.074219 269.710938 173.070312 270.664062 C 171.089844 272.546875 170.28125 276.824219 170.664062 283.382812 C 170.679688 283.652344 170.789062 283.894531 170.957031 284.082031 L 171.367188 284.386719 C 171.511719 284.445312 171.664062 284.484375 171.828125 284.484375 Z M 171.828125 284.484375 " fill-opacity="1" fill-rule="nonzero"/><path fill="#000000" d="M 181.78125 265.320312 C 181.78125 265.78125 181.691406 266.230469 181.515625 266.660156 C 181.335938 267.085938 181.085938 267.464844 180.757812 267.792969 C 180.429688 268.121094 180.050781 268.375 179.621094 268.550781 C 179.195312 268.730469 178.746094 268.820312 178.285156 268.820312 C 177.820312 268.820312 177.375 268.730469 176.945312 268.550781 C 176.519531 268.375 176.140625 268.121094 175.8125 267.792969 C 175.484375 267.464844 175.230469 267.085938 175.054688 266.660156 C 174.875 266.230469 174.789062 265.78125 174.789062 265.320312 C 174.789062 264.855469 174.875 264.40625 175.054688 263.980469 C 175.230469 263.550781 175.484375 263.171875 175.8125 262.84375 C 176.140625 262.515625 176.519531 262.261719 176.945312 262.085938 C 177.375 261.90625 177.820312 261.820312 178.285156 261.820312 C 178.746094 261.820312 179.195312 261.90625 179.621094 262.085938 C 180.050781 262.261719 180.429688 262.515625 180.757812 262.84375 C 181.085938 263.171875 181.335938 263.550781 181.515625 263.980469 C 181.691406 264.40625 181.78125 264.855469 181.78125 265.320312 Z M 181.78125 265.320312 " fill-opacity="1" fill-rule="nonzero"/><path fill="#000000" d="M 130.246094 284.480469 C 130.269531 284.480469 130.292969 284.484375 130.316406 284.484375 C 130.929688 284.484375 131.445312 284.003906 131.480469 283.382812 C 131.863281 276.824219 131.054688 272.546875 129.074219 270.664062 C 128.070312 269.710938 127.097656 269.6875 126.792969 269.703125 L 120.929688 269.703125 C 120.625 269.683594 119.652344 269.710938 118.648438 270.664062 C 116.667969 272.546875 115.855469 276.824219 116.238281 283.382812 C 116.277344 284.003906 116.789062 284.484375 117.40625 284.484375 C 117.429688 284.484375 117.449219 284.480469 117.472656 284.480469 C 118.117188 284.441406 118.609375 283.890625 118.570312 283.246094 C 118.222656 277.28125 118.960938 274.488281 119.65625 273.183594 L 119.65625 296.792969 C 119.65625 297.855469 120.519531 298.714844 121.578125 298.714844 C 122.640625 298.714844 123.5 297.855469 123.5 296.792969 L 123.5 282.75 L 124.21875 282.75 L 124.21875 296.792969 C 124.21875 297.855469 125.082031 298.714844 126.140625 298.714844 C 127.203125 298.714844 128.0625 297.855469 128.0625 296.792969 L 128.0625 273.195312 C 128.742188 274.472656 129.496094 277.265625 129.148438 283.246094 C 129.109375 283.890625 129.601562 284.441406 130.246094 284.480469 Z M 130.246094 284.480469 " fill-opacity="1" fill-rule="nonzero"/><path fill="#000000" d="M 127.355469 265.320312 C 127.355469 265.78125 127.269531 266.230469 127.089844 266.660156 C 126.914062 267.085938 126.660156 267.464844 126.332031 267.792969 C 126.003906 268.121094 125.625 268.375 125.199219 268.550781 C 124.769531 268.730469 124.324219 268.820312 123.859375 268.820312 C 123.398438 268.820312 122.949219 268.730469 122.523438 268.550781 C 122.09375 268.375 121.714844 268.121094 121.386719 267.792969 C 121.058594 267.464844 120.808594 267.085938 120.628906 266.660156 C 120.453125 266.230469 120.363281 265.78125 120.363281 265.320312 C 120.363281 264.855469 120.453125 264.40625 120.628906 263.980469 C 120.808594 263.550781 121.058594 263.171875 121.386719 262.84375 C 121.714844 262.515625 122.09375 262.261719 122.523438 262.085938 C 122.949219 261.90625 123.398438 261.820312 123.859375 261.820312 C 124.324219 261.820312 124.769531 261.90625 125.199219 262.085938 C 125.625 262.261719 126.003906 262.515625 126.332031 262.84375 C 126.660156 263.171875 126.914062 263.550781 127.089844 263.980469 C 127.269531 264.40625 127.355469 264.855469 127.355469 265.320312 Z M 127.355469 265.320312 " fill-opacity="1" fill-rule="nonzero"/><path fill="#000000" d="M 112.105469 284.480469 C 112.128906 284.480469 112.152344 284.484375 112.175781 284.484375 C 112.789062 284.484375 113.304688 284.003906 113.339844 283.382812 C 113.722656 276.824219 112.914062 272.546875 110.929688 270.664062 C 109.929688 269.710938 108.957031 269.6875 108.648438 269.703125 L 102.789062 269.703125 C 102.484375 269.683594 101.511719 269.710938 100.507812 270.664062 C 98.527344 272.546875 97.714844 276.824219 98.097656 283.382812 C 98.136719 284.003906 98.648438 284.484375 99.265625 284.484375 C 99.285156 284.484375 99.308594 284.480469 99.332031 284.480469 C 99.976562 284.441406 100.46875 283.890625 100.429688 283.246094 C 100.082031 277.28125 100.820312 274.488281 101.515625 273.183594 L 101.515625 296.792969 C 101.515625 297.855469 102.378906 298.714844 103.4375 298.714844 C 104.5 298.714844 105.359375 297.855469 105.359375 296.792969 L 105.359375 282.75 L 106.078125 282.75 L 106.078125 296.792969 C 106.078125 297.855469 106.941406 298.714844 108 298.714844 C 109.0625 298.714844 109.921875 297.855469 109.921875 296.792969 L 109.921875 273.195312 C 110.601562 274.472656 111.355469 277.265625 111.007812 283.246094 C 110.96875 283.890625 111.460938 284.441406 112.105469 284.480469 Z M 112.105469 284.480469 " fill-opacity="1" fill-rule="nonzero"/><path fill="#000000" d="M 109.214844 265.320312 C 109.214844 265.78125 109.125 266.230469 108.949219 266.660156 C 108.773438 267.085938 108.519531 267.464844 108.191406 267.792969 C 107.863281 268.121094 107.484375 268.375 107.058594 268.550781 C 106.628906 268.730469 106.183594 268.820312 105.71875 268.820312 C 105.253906 268.820312 104.808594 268.730469 104.382812 268.550781 C 103.953125 268.375 103.574219 268.121094 103.246094 267.792969 C 102.917969 267.464844 102.667969 267.085938 102.488281 266.660156 C 102.3125 266.230469 102.222656 265.78125 102.222656 265.320312 C 102.222656 264.855469 102.3125 264.40625 102.488281 263.980469 C 102.667969 263.550781 102.917969 263.171875 103.246094 262.84375 C 103.574219 262.515625 103.953125 262.261719 104.382812 262.085938 C 104.808594 261.90625 105.253906 261.820312 105.71875 261.820312 C 106.183594 261.820312 106.628906 261.90625 107.058594 262.085938 C 107.484375 262.261719 107.863281 262.515625 108.191406 262.84375 C 108.519531 263.171875 108.773438 263.550781 108.949219 263.980469 C 109.125 264.40625 109.214844 264.855469 109.214844 265.320312 Z M 109.214844 265.320312 " fill-opacity="1" fill-rule="nonzero"/><path fill="#000000" d="M 239.09375 284.480469 C 239.117188 284.480469 239.140625 284.484375 239.164062 284.484375 C 239.777344 284.484375 240.292969 284.003906 240.328125 283.382812 C 240.710938 276.824219 239.902344 272.546875 237.921875 270.664062 C 236.917969 269.710938 235.945312 269.6875 235.640625 269.703125 L 229.777344 269.703125 C 229.472656 269.683594 228.5 269.710938 227.496094 270.664062 C 225.515625 272.546875 224.703125 276.824219 225.085938 283.382812 C 225.125 284.003906 225.640625 284.484375 226.253906 284.484375 C 226.277344 284.484375 226.300781 284.480469 226.320312 284.480469 C 226.964844 284.441406 227.457031 283.890625 227.421875 283.246094 C 227.070312 277.28125 227.808594 274.488281 228.507812 273.183594 L 228.507812 296.792969 C 228.507812 297.855469 229.367188 298.714844 230.425781 298.714844 C 231.488281 298.714844 232.347656 297.855469 232.347656 296.792969 L 232.347656 282.75 L 233.066406 282.75 L 233.066406 296.792969 C 233.066406 297.855469 233.929688 298.714844 234.988281 298.714844 C 236.050781 298.714844 236.910156 297.855469 236.910156 296.792969 L 236.910156 273.195312 C 237.589844 274.472656 238.34375 277.265625 237.996094 283.246094 C 237.957031 283.890625 238.449219 284.441406 239.09375 284.480469 Z M 239.09375 284.480469 " fill-opacity="1" fill-rule="nonzero"/><path fill="#000000" d="M 236.203125 265.320312 C 236.203125 265.78125 236.117188 266.230469 235.9375 266.660156 C 235.761719 267.085938 235.507812 267.464844 235.179688 267.792969 C 234.851562 268.121094 234.472656 268.375 234.046875 268.550781 C 233.617188 268.730469 233.171875 268.820312 232.707031 268.820312 C 232.246094 268.820312 231.796875 268.730469 231.371094 268.550781 C 230.941406 268.375 230.5625 268.121094 230.234375 267.792969 C 229.90625 267.464844 229.65625 267.085938 229.476562 266.660156 C 229.300781 266.230469 229.210938 265.78125 229.210938 265.320312 C 229.210938 264.855469 229.300781 264.40625 229.476562 263.980469 C 229.65625 263.550781 229.90625 263.171875 230.234375 262.84375 C 230.5625 262.515625 230.941406 262.261719 231.371094 262.085938 C 231.796875 261.90625 232.246094 261.820312 232.707031 261.820312 C 233.171875 261.820312 233.617188 261.90625 234.046875 262.085938 C 234.472656 262.261719 234.851562 262.515625 235.179688 262.84375 C 235.507812 263.171875 235.761719 263.550781 235.9375 263.980469 C 236.117188 264.40625 236.203125 264.855469 236.203125 265.320312 Z M 236.203125 265.320312 " fill-opacity="1" fill-rule="nonzero"/><path fill="#000000" d="M 257.234375 284.480469 C 257.257812 284.480469 257.28125 284.484375 257.304688 284.484375 C 257.917969 284.484375 258.433594 284.003906 258.46875 283.382812 C 258.851562 276.824219 258.042969 272.546875 256.0625 270.664062 C 255.058594 269.710938 254.085938 269.6875 253.78125 269.703125 L 247.917969 269.703125 C 247.613281 269.683594 246.640625 269.710938 245.636719 270.664062 C 243.65625 272.546875 242.84375 276.824219 243.226562 283.382812 C 243.265625 284.003906 243.78125 284.484375 244.394531 284.484375 C 244.417969 284.484375 244.441406 284.480469 244.464844 284.480469 C 245.105469 284.441406 245.597656 283.890625 245.5625 283.246094 C 245.210938 277.28125 245.949219 274.488281 246.648438 273.183594 L 246.648438 296.792969 C 246.648438 297.855469 247.507812 298.714844 248.566406 298.714844 C 249.628906 298.714844 250.488281 297.855469 250.488281 296.792969 L 250.488281 282.75 L 251.210938 282.75 L 251.210938 296.792969 C 251.210938 297.855469 252.070312 298.714844 253.128906 298.714844 C 254.191406 298.714844 255.050781 297.855469 255.050781 296.792969 L 255.050781 273.195312 C 255.730469 274.472656 256.488281 277.265625 256.136719 283.246094 C 256.101562 283.890625 256.589844 284.441406 257.234375 284.480469 Z M 257.234375 284.480469 " fill-opacity="1" fill-rule="nonzero"/><path fill="#000000" d="M 254.347656 265.320312 C 254.347656 265.78125 254.257812 266.230469 254.078125 266.660156 C 253.902344 267.085938 253.648438 267.464844 253.320312 267.792969 C 252.992188 268.121094 252.617188 268.375 252.1875 268.550781 C 251.757812 268.730469 251.3125 268.820312 250.847656 268.820312 C 250.386719 268.820312 249.941406 268.730469 249.511719 268.550781 C 249.082031 268.375 248.707031 268.121094 248.378906 267.792969 C 248.050781 267.464844 247.796875 267.085938 247.621094 266.660156 C 247.441406 266.230469 247.351562 265.78125 247.351562 265.320312 C 247.351562 264.855469 247.441406 264.40625 247.621094 263.980469 C 247.796875 263.550781 248.050781 263.171875 248.378906 262.84375 C 248.707031 262.515625 249.082031 262.261719 249.511719 262.085938 C 249.941406 261.90625 250.386719 261.820312 250.847656 261.820312 C 251.3125 261.820312 251.757812 261.90625 252.1875 262.085938 C 252.617188 262.261719 252.992188 262.515625 253.320312 262.84375 C 253.648438 263.171875 253.902344 263.550781 254.078125 263.980469 C 254.257812 264.40625 254.347656 264.855469 254.347656 265.320312 Z M 254.347656 265.320312 " fill-opacity="1" fill-rule="nonzero"/><path fill="#000000" d="M 275.375 284.480469 C 275.398438 284.480469 275.421875 284.484375 275.445312 284.484375 C 276.058594 284.484375 276.574219 284.003906 276.609375 283.382812 C 276.996094 276.824219 276.183594 272.546875 274.203125 270.664062 C 273.203125 269.710938 272.230469 269.6875 271.921875 269.703125 L 266.0625 269.703125 C 265.757812 269.683594 264.78125 269.710938 263.777344 270.664062 C 261.796875 272.546875 260.988281 276.824219 261.371094 283.382812 C 261.40625 284.003906 261.921875 284.484375 262.535156 284.484375 C 262.558594 284.484375 262.582031 284.480469 262.605469 284.480469 C 263.25 284.441406 263.742188 283.890625 263.703125 283.246094 C 263.355469 277.28125 264.089844 274.488281 264.789062 273.183594 L 264.789062 296.792969 C 264.789062 297.855469 265.648438 298.714844 266.710938 298.714844 C 267.769531 298.714844 268.632812 297.855469 268.632812 296.792969 L 268.632812 282.75 L 269.351562 282.75 L 269.351562 296.792969 C 269.351562 297.855469 270.210938 298.714844 271.273438 298.714844 C 272.332031 298.714844 273.195312 297.855469 273.195312 296.792969 L 273.195312 273.195312 C 273.871094 274.472656 274.628906 277.265625 274.277344 283.246094 C 274.242188 283.890625 274.734375 284.441406 275.375 284.480469 Z M 275.375 284.480469 " fill-opacity="1" fill-rule="nonzero"/><path fill="#000000" d="M 272.488281 265.320312 C 272.488281 265.78125 272.398438 266.230469 272.222656 266.660156 C 272.042969 267.085938 271.792969 267.464844 271.464844 267.792969 C 271.136719 268.121094 270.757812 268.375 270.328125 268.550781 C 269.902344 268.730469 269.453125 268.820312 268.992188 268.820312 C 268.527344 268.820312 268.082031 268.730469 267.652344 268.550781 C 267.226562 268.375 266.847656 268.121094 266.519531 267.792969 C 266.191406 267.464844 265.9375 267.085938 265.761719 266.660156 C 265.582031 266.230469 265.496094 265.78125 265.496094 265.320312 C 265.496094 264.855469 265.582031 264.40625 265.761719 263.980469 C 265.9375 263.550781 266.191406 263.171875 266.519531 262.84375 C 266.847656 262.515625 267.226562 262.261719 267.652344 262.085938 C 268.082031 261.90625 268.527344 261.820312 268.992188 261.820312 C 269.453125 261.820312 269.902344 261.90625 270.328125 262.085938 C 270.757812 262.261719 271.136719 262.515625 271.464844 262.84375 C 271.792969 263.171875 272.042969 263.550781 272.222656 263.980469 C 272.398438 264.40625 272.488281 264.855469 272.488281 265.320312 Z M 272.488281 265.320312 " fill-opacity="1" fill-rule="nonzero"/><path fill="#000000" d="M 210.363281 292.175781 L 210.363281 296.792969 C 210.363281 297.855469 211.222656 298.714844 212.285156 298.714844 C 213.347656 298.714844 214.207031 297.855469 214.207031 296.792969 L 214.207031 289.300781 C 214.046875 289.449219 213.878906 289.59375 213.699219 289.722656 Z M 210.363281 292.175781 " fill-opacity="1" fill-rule="nonzero"/><path fill="#000000" d="M 214.925781 288.464844 L 214.925781 296.792969 C 214.925781 297.855469 215.789062 298.714844 216.847656 298.714844 C 217.910156 298.714844 218.769531 297.855469 218.769531 296.792969 L 218.769531 280.640625 L 215.425781 287.636719 C 215.289062 287.925781 215.113281 288.199219 214.925781 288.464844 Z M 214.925781 288.464844 " fill-opacity="1" fill-rule="nonzero"/><path fill="#000000" d="M 211.636719 269.703125 C 211.332031 269.683594 210.359375 269.710938 209.355469 270.664062 C 207.769531 272.171875 206.9375 275.214844 206.859375 279.730469 L 211.652344 269.703125 Z M 211.636719 269.703125 " fill-opacity="1" fill-rule="nonzero"/><path fill="#000000" d="M 219.855469 283.246094 C 219.816406 283.890625 220.308594 284.441406 220.953125 284.480469 C 220.976562 284.480469 221 284.484375 221.023438 284.484375 C 221.636719 284.484375 222.152344 284.003906 222.1875 283.382812 C 222.402344 279.691406 222.242188 276.722656 221.703125 274.496094 L 219.878906 278.3125 C 219.964844 279.652344 219.96875 281.273438 219.855469 283.246094 Z M 219.855469 283.246094 " fill-opacity="1" fill-rule="nonzero"/><path fill="#000000" d="M 213.671875 265.488281 L 211.863281 263.097656 C 211.367188 263.703125 211.070312 264.476562 211.070312 265.320312 C 211.070312 266.441406 211.601562 267.441406 212.425781 268.082031 L 213.546875 265.734375 C 213.589844 265.648438 213.628906 265.566406 213.671875 265.488281 Z M 213.671875 265.488281 " fill-opacity="1" fill-rule="nonzero"/><path fill="#000000" d="M 193.109375 289.757812 C 194.175781 289.757812 194.847656 289.757812 194.847656 289.757812 L 196.066406 288.863281 L 196.066406 287.476562 C 195.207031 288.378906 194.210938 289.152344 193.109375 289.757812 Z M 193.109375 289.757812 " fill-opacity="1" fill-rule="nonzero"/><path fill="#000000" d="M 199.378906 279.1875 C 199.378906 282.003906 198.40625 284.59375 196.785156 286.644531 L 196.785156 288.332031 L 200.628906 285.503906 L 200.628906 273.191406 C 201.304688 274.472656 202.0625 277.261719 201.714844 283.246094 C 201.6875 283.6875 201.914062 284.082031 202.265625 284.300781 L 204.066406 282.976562 C 204.390625 276.652344 203.578125 272.503906 201.636719 270.664062 C 200.636719 269.710938 199.664062 269.683594 199.355469 269.703125 L 194.75 269.703125 C 197.566406 271.910156 199.378906 275.339844 199.378906 279.1875 Z M 199.378906 279.1875 " fill-opacity="1" fill-rule="nonzero"/><path fill="#000000" d="M 199.921875 265.320312 C 199.921875 265.78125 199.832031 266.230469 199.65625 266.660156 C 199.476562 267.085938 199.226562 267.464844 198.898438 267.792969 C 198.570312 268.121094 198.191406 268.375 197.761719 268.550781 C 197.335938 268.730469 196.890625 268.820312 196.425781 268.820312 C 195.960938 268.820312 195.515625 268.730469 195.085938 268.550781 C 194.660156 268.375 194.28125 268.121094 193.953125 267.792969 C 193.625 267.464844 193.371094 267.085938 193.195312 266.660156 C 193.019531 266.230469 192.929688 265.78125 192.929688 265.320312 C 192.929688 264.855469 193.019531 264.40625 193.195312 263.980469 C 193.371094 263.550781 193.625 263.171875 193.953125 262.84375 C 194.28125 262.515625 194.660156 262.261719 195.085938 262.085938 C 195.515625 261.90625 195.960938 261.820312 196.425781 261.820312 C 196.890625 261.820312 197.335938 261.90625 197.761719 262.085938 C 198.191406 262.261719 198.570312 262.515625 198.898438 262.84375 C 199.226562 263.171875 199.476562 263.550781 199.65625 263.980469 C 199.832031 264.40625 199.921875 264.855469 199.921875 265.320312 Z M 199.921875 265.320312 " fill-opacity="1" fill-rule="nonzero"/><path fill="#000000" d="M 154.566406 257.5 C 154.566406 257.964844 154.480469 258.410156 154.300781 258.839844 C 154.125 259.269531 153.871094 259.648438 153.542969 259.976562 C 153.214844 260.304688 152.839844 260.554688 152.410156 260.734375 C 151.980469 260.910156 151.535156 261 151.070312 261 C 150.609375 261 150.164062 260.910156 149.734375 260.734375 C 149.304688 260.554688 148.925781 260.304688 148.601562 259.976562 C 148.273438 259.648438 148.019531 259.269531 147.84375 258.839844 C 147.664062 258.410156 147.574219 257.964844 147.574219 257.5 C 147.574219 257.035156 147.664062 256.589844 147.84375 256.160156 C 148.019531 255.730469 148.273438 255.355469 148.601562 255.023438 C 148.925781 254.695312 149.304688 254.445312 149.734375 254.265625 C 150.164062 254.089844 150.609375 254 151.070312 254 C 151.535156 254 151.980469 254.089844 152.410156 254.265625 C 152.839844 254.445312 153.214844 254.695312 153.542969 255.023438 C 153.871094 255.355469 154.125 255.730469 154.300781 256.160156 C 154.480469 256.589844 154.566406 257.035156 154.566406 257.5 Z M 154.566406 257.5 " fill-opacity="1" fill-rule="nonzero"/><path fill="#000000" d="M 172.710938 257.5 C 172.710938 257.964844 172.621094 258.410156 172.441406 258.839844 C 172.265625 259.269531 172.011719 259.648438 171.683594 259.976562 C 171.359375 260.304688 170.980469 260.554688 170.550781 260.734375 C 170.121094 260.910156 169.675781 261 169.214844 261 C 168.75 261 168.304688 260.910156 167.875 260.734375 C 167.445312 260.554688 167.070312 260.304688 166.742188 259.976562 C 166.414062 259.648438 166.160156 259.269531 165.984375 258.839844 C 165.804688 258.410156 165.71875 257.964844 165.71875 257.5 C 165.71875 257.035156 165.804688 256.589844 165.984375 256.160156 C 166.160156 255.730469 166.414062 255.355469 166.742188 255.023438 C 167.070312 254.695312 167.445312 254.445312 167.875 254.265625 C 168.304688 254.089844 168.75 254 169.214844 254 C 169.675781 254 170.121094 254.089844 170.550781 254.265625 C 170.980469 254.445312 171.359375 254.695312 171.683594 255.023438 C 172.011719 255.355469 172.265625 255.730469 172.441406 256.160156 C 172.621094 256.589844 172.710938 257.035156 172.710938 257.5 Z M 172.710938 257.5 " fill-opacity="1" fill-rule="nonzero"/><path fill="#000000" d="M 190.851562 257.5 C 190.851562 257.964844 190.761719 258.410156 190.585938 258.839844 C 190.40625 259.269531 190.15625 259.648438 189.828125 259.976562 C 189.5 260.304688 189.121094 260.554688 188.691406 260.734375 C 188.265625 260.910156 187.816406 261 187.355469 261 C 186.890625 261 186.445312 260.910156 186.015625 260.734375 C 185.589844 260.554688 185.210938 260.304688 184.882812 259.976562 C 184.554688 259.648438 184.300781 259.269531 184.125 258.839844 C 183.945312 258.410156 183.859375 257.964844 183.859375 257.5 C 183.859375 257.035156 183.945312 256.589844 184.125 256.160156 C 184.300781 255.730469 184.554688 255.355469 184.882812 255.023438 C 185.210938 254.695312 185.589844 254.445312 186.015625 254.265625 C 186.445312 254.089844 186.890625 254 187.355469 254 C 187.816406 254 188.265625 254.089844 188.691406 254.265625 C 189.121094 254.445312 189.5 254.695312 189.828125 255.023438 C 190.15625 255.355469 190.40625 255.730469 190.585938 256.160156 C 190.761719 256.589844 190.851562 257.035156 190.851562 257.5 Z M 190.851562 257.5 " fill-opacity="1" fill-rule="nonzero"/><path fill="#000000" d="M 136.425781 257.5 C 136.425781 257.964844 136.339844 258.410156 136.160156 258.839844 C 135.984375 259.269531 135.730469 259.648438 135.402344 259.976562 C 135.074219 260.304688 134.695312 260.554688 134.269531 260.734375 C 133.839844 260.910156 133.394531 261 132.929688 261 C 132.46875 261 132.019531 260.910156 131.59375 260.734375 C 131.164062 260.554688 130.785156 260.304688 130.457031 259.976562 C 130.128906 259.648438 129.878906 259.269531 129.699219 258.839844 C 129.523438 258.410156 129.433594 257.964844 129.433594 257.5 C 129.433594 257.035156 129.523438 256.589844 129.699219 256.160156 C 129.878906 255.730469 130.128906 255.355469 130.457031 255.023438 C 130.785156 254.695312 131.164062 254.445312 131.59375 254.265625 C 132.019531 254.089844 132.46875 254 132.929688 254 C 133.394531 254 133.839844 254.089844 134.269531 254.265625 C 134.695312 254.445312 135.074219 254.695312 135.402344 255.023438 C 135.730469 255.355469 135.984375 255.730469 136.160156 256.160156 C 136.339844 256.589844 136.425781 257.035156 136.425781 257.5 Z M 136.425781 257.5 " fill-opacity="1" fill-rule="nonzero"/><path fill="#000000" d="M 118.285156 257.5 C 118.285156 257.964844 118.195312 258.410156 118.019531 258.839844 C 117.84375 259.269531 117.589844 259.648438 117.261719 259.976562 C 116.933594 260.304688 116.554688 260.554688 116.128906 260.734375 C 115.699219 260.910156 115.253906 261 114.789062 261 C 114.324219 261 113.878906 260.910156 113.453125 260.734375 C 113.023438 260.554688 112.644531 260.304688 112.316406 259.976562 C 111.988281 259.648438 111.738281 259.269531 111.558594 258.839844 C 111.382812 258.410156 111.292969 257.964844 111.292969 257.5 C 111.292969 257.035156 111.382812 256.589844 111.558594 256.160156 C 111.738281 255.730469 111.988281 255.355469 112.316406 255.023438 C 112.644531 254.695312 113.023438 254.445312 113.453125 254.265625 C 113.878906 254.089844 114.324219 254 114.789062 254 C 115.253906 254 115.699219 254.089844 116.128906 254.265625 C 116.554688 254.445312 116.933594 254.695312 117.261719 255.023438 C 117.589844 255.355469 117.84375 255.730469 118.019531 256.160156 C 118.195312 256.589844 118.285156 257.035156 118.285156 257.5 Z M 118.285156 257.5 " fill-opacity="1" fill-rule="nonzero"/><path fill="#000000" d="M 245.273438 257.5 C 245.273438 257.964844 245.1875 258.410156 245.007812 258.839844 C 244.832031 259.269531 244.578125 259.648438 244.25 259.976562 C 243.921875 260.304688 243.546875 260.554688 243.117188 260.734375 C 242.6875 260.910156 242.242188 261 241.777344 261 C 241.316406 261 240.867188 260.910156 240.441406 260.734375 C 240.011719 260.554688 239.632812 260.304688 239.304688 259.976562 C 238.980469 259.648438 238.726562 259.269531 238.546875 258.839844 C 238.371094 258.410156 238.28125 257.964844 238.28125 257.5 C 238.28125 257.035156 238.371094 256.589844 238.546875 256.160156 C 238.726562 255.730469 238.980469 255.355469 239.304688 255.023438 C 239.632812 254.695312 240.011719 254.445312 240.441406 254.265625 C 240.867188 254.089844 241.316406 254 241.777344 254 C 242.242188 254 242.6875 254.089844 243.117188 254.265625 C 243.546875 254.445312 243.921875 254.695312 244.25 255.023438 C 244.578125 255.355469 244.832031 255.730469 245.007812 256.160156 C 245.1875 256.589844 245.273438 257.035156 245.273438 257.5 Z M 245.273438 257.5 " fill-opacity="1" fill-rule="nonzero"/><path fill="#000000" d="M 263.417969 257.5 C 263.417969 257.964844 263.328125 258.410156 263.148438 258.839844 C 262.972656 259.269531 262.71875 259.648438 262.390625 259.976562 C 262.0625 260.304688 261.6875 260.554688 261.257812 260.734375 C 260.828125 260.910156 260.382812 261 259.917969 261 C 259.457031 261 259.011719 260.910156 258.582031 260.734375 C 258.152344 260.554688 257.777344 260.304688 257.449219 259.976562 C 257.121094 259.648438 256.867188 259.269531 256.691406 258.839844 C 256.511719 258.410156 256.421875 257.964844 256.421875 257.5 C 256.421875 257.035156 256.511719 256.589844 256.691406 256.160156 C 256.867188 255.730469 257.121094 255.355469 257.449219 255.023438 C 257.777344 254.695312 258.152344 254.445312 258.582031 254.265625 C 259.011719 254.089844 259.457031 254 259.917969 254 C 260.382812 254 260.828125 254.089844 261.257812 254.265625 C 261.6875 254.445312 262.0625 254.695312 262.390625 255.023438 C 262.71875 255.355469 262.972656 255.730469 263.148438 256.160156 C 263.328125 256.589844 263.417969 257.035156 263.417969 257.5 Z M 263.417969 257.5 " fill-opacity="1" fill-rule="nonzero"/><path fill="#000000" d="M 227.132812 257.5 C 227.132812 257.964844 227.042969 258.410156 226.867188 258.839844 C 226.691406 259.269531 226.4375 259.648438 226.109375 259.976562 C 225.78125 260.304688 225.402344 260.554688 224.976562 260.734375 C 224.546875 260.910156 224.101562 261 223.636719 261 C 223.171875 261 222.726562 260.910156 222.300781 260.734375 C 221.871094 260.554688 221.492188 260.304688 221.164062 259.976562 C 220.835938 259.648438 220.585938 259.269531 220.40625 258.839844 C 220.230469 258.410156 220.140625 257.964844 220.140625 257.5 C 220.140625 257.035156 220.230469 256.589844 220.40625 256.160156 C 220.585938 255.730469 220.835938 255.355469 221.164062 255.023438 C 221.492188 254.695312 221.871094 254.445312 222.300781 254.265625 C 222.726562 254.089844 223.171875 254 223.636719 254 C 224.101562 254 224.546875 254.089844 224.976562 254.265625 C 225.402344 254.445312 225.78125 254.695312 226.109375 255.023438 C 226.4375 255.355469 226.691406 255.730469 226.867188 256.160156 C 227.042969 256.589844 227.132812 257.035156 227.132812 257.5 Z M 227.132812 257.5 " fill-opacity="1" fill-rule="nonzero"/><path fill="#000000" d="M 202 257.5 C 202 259.433594 203.566406 261 205.496094 261 C 206.925781 261 208.152344 260.140625 208.691406 258.914062 L 205 254.039062 C 203.304688 254.28125 202 255.738281 202 257.5 Z M 202 257.5 " fill-opacity="1" fill-rule="nonzero"/><g clip-path="url(#fab6e313c4)"><path fill="#000000" d="M 186.324219 335.246094 C 184.902344 336.625 178.726562 342.628906 175.308594 345.953125 L 175.308594 369.402344 C 175.308594 372.449219 177.773438 374.917969 180.816406 374.917969 C 183.855469 374.917969 186.320312 372.449219 186.320312 369.402344 L 186.320312 335.246094 Z M 186.324219 335.246094 " fill-opacity="1" fill-rule="nonzero"/></g><path fill="#000000" d="M 199.402344 297.753906 L 212.515625 288.105469 C 212.988281 287.757812 213.367188 287.300781 213.617188 286.769531 L 221.785156 269.675781 C 222.632812 267.898438 221.882812 265.769531 220.109375 264.921875 C 219.128906 264.453125 218.046875 264.472656 217.125 264.878906 L 199.210938 241.238281 L 198.324219 241.910156 L 216.1875 265.484375 C 215.851562 265.789062 215.5625 266.164062 215.355469 266.597656 L 207.574219 282.886719 L 195.503906 291.761719 L 178.75 291.761719 C 178.527344 291.761719 178.308594 291.785156 178.097656 291.828125 L 165.941406 282.886719 L 158.164062 266.597656 C 157.3125 264.820312 155.1875 264.070312 153.410156 264.921875 C 151.636719 265.769531 150.882812 267.898438 151.734375 269.675781 L 159.898438 286.769531 C 160.152344 287.300781 160.53125 287.757812 161.003906 288.105469 L 175.308594 298.628906 L 175.308594 316.097656 L 171.554688 335.28125 L 172.445312 346.875 L 187.351562 332.382812 L 202.261719 346.875 L 203.152344 335.28125 L 199.398438 316.101562 L 199.398438 297.753906 Z M 199.402344 297.753906 " fill-opacity="1" fill-rule="nonzero"/><g clip-path="url(#c5101f24ba)"><path fill="#000000" d="M 188.386719 335.246094 L 188.386719 369.402344 C 188.386719 372.449219 190.851562 374.914062 193.894531 374.914062 C 196.933594 374.914062 199.402344 372.449219 199.402344 369.402344 L 199.402344 345.953125 Z M 188.386719 335.246094 " fill-opacity="1" fill-rule="nonzero"/></g><path fill="#000000" d="M 197.375 279.191406 C 197.375 279.847656 197.3125 280.5 197.183594 281.148438 C 197.054688 281.792969 196.863281 282.421875 196.613281 283.027344 C 196.359375 283.636719 196.050781 284.214844 195.6875 284.761719 C 195.320312 285.3125 194.90625 285.816406 194.441406 286.285156 C 193.976562 286.75 193.46875 287.164062 192.921875 287.53125 C 192.375 287.898438 191.796875 288.207031 191.191406 288.457031 C 190.582031 288.710938 189.953125 288.902344 189.308594 289.03125 C 188.664062 289.160156 188.011719 289.222656 187.355469 289.222656 C 186.695312 289.222656 186.046875 289.160156 185.398438 289.03125 C 184.753906 288.902344 184.128906 288.710938 183.519531 288.457031 C 182.910156 288.207031 182.335938 287.898438 181.789062 287.53125 C 181.238281 287.164062 180.734375 286.75 180.269531 286.285156 C 179.804688 285.816406 179.386719 285.3125 179.023438 284.761719 C 178.65625 284.214844 178.347656 283.636719 178.097656 283.027344 C 177.84375 282.421875 177.65625 281.792969 177.527344 281.148438 C 177.398438 280.5 177.332031 279.847656 177.332031 279.191406 C 177.332031 278.53125 177.398438 277.878906 177.527344 277.234375 C 177.65625 276.585938 177.84375 275.960938 178.097656 275.351562 C 178.347656 274.742188 178.65625 274.164062 179.023438 273.617188 C 179.386719 273.066406 179.804688 272.5625 180.269531 272.09375 C 180.734375 271.628906 181.238281 271.214844 181.789062 270.847656 C 182.335938 270.480469 182.910156 270.171875 183.519531 269.921875 C 184.128906 269.667969 184.753906 269.476562 185.398438 269.351562 C 186.046875 269.222656 186.695312 269.15625 187.355469 269.15625 C 188.011719 269.15625 188.664062 269.222656 189.308594 269.351562 C 189.953125 269.476562 190.582031 269.667969 191.191406 269.921875 C 191.796875 270.171875 192.375 270.480469 192.921875 270.847656 C 193.46875 271.214844 193.976562 271.628906 194.441406 272.09375 C 194.90625 272.5625 195.320312 273.066406 195.6875 273.617188 C 196.050781 274.164062 196.359375 274.742188 196.613281 275.351562 C 196.863281 275.960938 197.054688 276.585938 197.183594 277.234375 C 197.3125 277.878906 197.375 278.53125 197.375 279.191406 Z M 197.375 279.191406 " fill-opacity="1" fill-rule="nonzero"/><g clip-path="url(#ab1594354e)"><path fill="#000000" d="M 228.320312 234.167969 C 227.886719 234.027344 227.335938 234.082031 226.835938 234.367188 C 226.023438 234.828125 225.648438 235.707031 226 236.328125 C 226.355469 236.953125 227.296875 237.082031 228.109375 236.621094 C 228.753906 236.257812 229.117188 235.636719 229.070312 235.082031 L 229.070312 229.964844 L 235 228.332031 L 235 231.558594 C 234.566406 231.414062 234.015625 231.472656 233.511719 231.757812 C 232.699219 232.21875 232.324219 233.09375 232.675781 233.71875 C 233.027344 234.339844 233.972656 234.472656 234.785156 234.011719 C 235.375 233.679688 235.730469 233.128906 235.75 232.613281 L 235.75 232.597656 C 235.75 232.574219 235.75 232.550781 235.75 232.527344 L 235.75 224.929688 L 228.320312 226.976562 Z M 229.070312 227.550781 L 235 225.917969 L 235 227.550781 L 229.070312 229.183594 Z M 229.070312 227.550781 " fill-opacity="1" fill-rule="nonzero"/></g><path fill="#000000" d="M 224.828125 247.589844 C 225.003906 248.09375 225.675781 248.324219 226.339844 248.097656 C 226.859375 247.917969 227.214844 247.511719 227.257812 247.097656 L 228.175781 242.234375 L 230.078125 242.976562 L 230.28125 242.449219 L 230.269531 242.445312 L 230.429688 242.101562 L 227.855469 240.894531 L 226.832031 246.324219 C 226.535156 246.160156 226.121094 246.125 225.714844 246.265625 C 225.054688 246.488281 224.65625 247.082031 224.828125 247.589844 Z M 224.828125 247.589844 " fill-opacity="1" fill-rule="nonzero"/><path fill="#000000" d="M 242.429688 231.304688 L 238.753906 237.660156 C 238.453125 237.324219 237.949219 237.097656 237.378906 237.089844 C 236.449219 237.082031 235.691406 237.652344 235.683594 238.363281 C 235.679688 239.074219 236.425781 239.65625 237.351562 239.667969 C 238.085938 239.675781 238.710938 239.320312 238.945312 238.820312 L 242.238281 233.125 L 244.300781 234.894531 L 244.789062 234.324219 L 244.773438 234.3125 L 245.128906 233.953125 Z M 242.429688 231.304688 " fill-opacity="1" fill-rule="nonzero"/><path fill="#000000" d="M 220.066406 243.09375 C 220.460938 243.453125 221.164062 243.332031 221.636719 242.816406 C 222.007812 242.410156 222.125 241.882812 221.964844 241.5 L 220.449219 236.789062 L 222.476562 236.527344 L 222.402344 235.96875 L 222.390625 235.972656 L 222.367188 235.59375 L 219.53125 235.765625 L 221.222656 241.023438 C 220.882812 241.019531 220.503906 241.1875 220.210938 241.503906 C 219.738281 242.019531 219.675781 242.730469 220.066406 243.09375 Z M 220.066406 243.09375 " fill-opacity="1" fill-rule="nonzero"/><g clip-path="url(#de4596e59f)"><path fill="#000000" d="M 141.675781 234.167969 C 141.246094 234.027344 140.695312 234.082031 140.191406 234.367188 C 139.378906 234.828125 139.007812 235.707031 139.359375 236.328125 C 139.710938 236.953125 140.65625 237.082031 141.46875 236.621094 C 142.109375 236.257812 142.476562 235.636719 142.425781 235.082031 L 142.425781 229.964844 L 148.355469 228.332031 L 148.355469 231.558594 C 147.921875 231.414062 147.371094 231.472656 146.867188 231.757812 C 146.054688 232.21875 145.679688 233.09375 146.03125 233.71875 C 146.386719 234.339844 147.328125 234.472656 148.140625 234.011719 C 148.730469 233.679688 149.085938 233.128906 149.105469 232.613281 L 149.105469 232.597656 C 149.105469 232.574219 149.105469 232.550781 149.105469 232.527344 L 149.105469 224.929688 L 141.675781 226.976562 Z M 142.429688 227.550781 L 148.355469 225.917969 L 148.355469 227.550781 L 142.429688 229.183594 Z M 142.429688 227.550781 " fill-opacity="1" fill-rule="nonzero"/></g><path fill="#000000" d="M 138.1875 247.589844 C 138.359375 248.09375 139.035156 248.324219 139.695312 248.097656 C 140.21875 247.917969 140.574219 247.511719 140.613281 247.097656 L 141.53125 242.234375 L 143.433594 242.976562 L 143.640625 242.449219 L 143.625 242.445312 L 143.789062 242.101562 L 141.210938 240.894531 L 140.1875 246.324219 C 139.890625 246.160156 139.480469 246.125 139.070312 246.265625 C 138.410156 246.488281 138.015625 247.082031 138.1875 247.589844 Z M 138.1875 247.589844 " fill-opacity="1" fill-rule="nonzero"/><path fill="#000000" d="M 155.785156 235.019531 L 152.109375 241.378906 C 151.808594 241.039062 151.308594 240.8125 150.734375 240.808594 C 149.808594 240.800781 149.050781 241.367188 149.042969 242.078125 C 149.035156 242.789062 149.78125 243.375 150.710938 243.382812 C 151.441406 243.390625 152.066406 243.035156 152.300781 242.535156 L 155.597656 236.839844 L 157.660156 238.609375 L 158.144531 238.042969 L 158.128906 238.03125 L 158.484375 237.667969 Z M 155.785156 235.019531 " fill-opacity="1" fill-rule="nonzero"/><path fill="#000000" d="M 135.761719 235.96875 L 135.746094 235.972656 L 135.722656 235.59375 L 132.886719 235.765625 L 134.578125 241.023438 C 134.238281 241.019531 133.859375 241.1875 133.566406 241.503906 C 133.09375 242.019531 133.03125 242.730469 133.421875 243.09375 C 133.816406 243.453125 134.519531 243.332031 134.992188 242.816406 C 135.363281 242.410156 135.484375 241.882812 135.320312 241.5 L 133.804688 236.789062 L 135.832031 236.527344 Z M 135.761719 235.96875 " fill-opacity="1" fill-rule="nonzero"/></svg>