<svg xmlns="http://www.w3.org/2000/svg" xmlns:xlink="http://www.w3.org/1999/xlink" width="500" zoomAndPan="magnify" viewBox="0 0 375 374.999991" height="500" preserveAspectRatio="xMidYMid meet" version="1.0"><defs><clipPath id="d20c6b78d6"><path d="M 112.5 126.46875 L 262.5 126.46875 L 262.5 248.71875 L 112.5 248.71875 Z M 112.5 126.46875 " clip-rule="nonzero"/></clipPath></defs><g clip-path="url(#d20c6b78d6)"><path fill="#1a1a1a" d="M 164.144531 204.195312 L 164.144531 173.167969 L 112.671875 173.167969 L 112.671875 204.195312 Z M 210.09375 207.660156 L 197.492188 213.554688 L 197.492188 229.613281 L 211.050781 248.71875 L 241.960938 248.71875 C 253.21875 248.71875 262.34375 239.578125 262.34375 228.304688 L 262.34375 207.660156 Z M 177.808594 228.53125 L 177.808594 213.835938 L 165.464844 207.660156 L 112.671875 207.660156 L 112.671875 228.304688 C 112.671875 239.578125 121.796875 248.71875 133.054688 248.71875 L 163.65625 248.71875 Z M 197.492188 148.015625 L 197.492188 162.734375 L 194.03125 162.734375 L 194.03125 147.003906 L 207.128906 126.46875 L 167.632812 126.46875 L 181.269531 147.621094 L 181.269531 163.6875 L 167.605469 172.386719 L 167.605469 204.855469 L 181.269531 211.691406 L 181.269531 229.625 L 167.886719 248.71875 L 206.804688 248.71875 L 194.03125 230.71875 L 194.03125 211.347656 L 207.980469 204.824219 L 207.980469 169.703125 L 262.34375 169.703125 L 262.34375 146.882812 C 262.34375 135.609375 253.21875 126.46875 241.960938 126.46875 L 211.234375 126.46875 Z M 165.371094 169.703125 L 177.808594 161.78125 L 177.808594 148.640625 L 163.515625 126.46875 L 133.054688 126.46875 C 121.796875 126.46875 112.671875 135.609375 112.671875 146.882812 L 112.671875 169.703125 Z M 211.441406 204.195312 L 211.441406 173.167969 L 262.34375 173.167969 L 262.34375 204.195312 L 211.441406 204.195312 " fill-opacity="1" fill-rule="nonzero"/></g></svg>