<svg xmlns="http://www.w3.org/2000/svg" xmlns:xlink="http://www.w3.org/1999/xlink" width="500" zoomAndPan="magnify" viewBox="0 0 375 374.999991" height="500" preserveAspectRatio="xMidYMid meet" version="1.0"><defs><clipPath id="ad7dc670c6"><path d="M 50.273438 276 L 324.773438 276 L 324.773438 331.246094 L 50.273438 331.246094 Z M 50.273438 276 " clip-rule="nonzero"/></clipPath></defs><path fill="#000000" d="M 213.871094 114.933594 C 223.203125 122.777344 232.367188 115.734375 228.28125 115.832031 C 224.996094 115.910156 221.132812 114.414062 219.714844 106.820312 L 215.675781 108.304688 C 215.089844 110.390625 214.476562 112.621094 213.871094 114.933594 Z M 213.871094 114.933594 " fill-opacity="1" fill-rule="nonzero"/><path fill="#000000" d="M 210.464844 76.222656 C 210.023438 79.933594 208.699219 83.378906 206.699219 86.335938 C 207.085938 88.375 207.207031 90.761719 207.285156 93.296875 L 218.773438 89.078125 C 217.570312 82.285156 214.277344 78.441406 210.464844 76.222656 Z M 210.464844 76.222656 " fill-opacity="1" fill-rule="nonzero"/><path fill="#000000" d="M 196.71875 108.925781 L 197.539062 97.828125 L 177.835938 100.734375 L 178.65625 111.796875 L 187.6875 140.5625 Z M 196.71875 108.925781 " fill-opacity="1" fill-rule="nonzero"/><path fill="#000000" d="M 174.929688 234.585938 L 179.980469 186.03125 L 180.214844 183.78125 C 183.746094 183.429688 186.683594 182.753906 187.683594 182.753906 C 188.6875 182.753906 191.617188 183.425781 195.144531 183.78125 L 195.378906 186.03125 L 200.394531 234.238281 C 204.691406 228.597656 211.269531 224.800781 218.742188 224.222656 L 213.980469 178.453125 L 212.738281 166.503906 C 212.664062 165.808594 212.515625 165.144531 212.308594 164.503906 C 210.949219 156.207031 207.894531 152.113281 207.015625 142.679688 C 206.300781 135.015625 210.574219 118.113281 213.847656 106.613281 L 247.0625 94.417969 C 248.429688 93.914062 249.582031 92.953125 250.316406 91.695312 L 272.078125 54.414062 C 273.820312 51.421875 272.8125 47.582031 269.824219 45.835938 C 266.832031 44.085938 262.996094 45.097656 261.25 48.085938 L 240.628906 83.421875 L 205.074219 96.472656 L 205.929688 109.109375 L 200.585938 109.109375 L 204.089844 118.25 L 187.6875 145.355469 L 171.285156 118.25 L 174.789062 111.980469 L 169.441406 111.980469 L 170.28125 101.847656 L 165.503906 102.550781 L 162.382812 104.21875 C 160.863281 104.929688 158.832031 106.019531 156.078125 107.660156 C 151.496094 110.394531 144.914062 114.667969 135.277344 121.375 L 111.695312 100.621094 C 110.082031 99.203125 107.949219 98.765625 106.011719 99.253906 L 91.878906 50.96875 C 91.707031 50.378906 91.09375 50.042969 90.507812 50.214844 C 89.921875 50.386719 89.585938 51.003906 89.757812 51.589844 L 103.980469 100.1875 C 103.574219 100.472656 103.191406 100.800781 102.851562 101.191406 C 100.5625 103.792969 100.820312 107.753906 103.417969 110.039062 L 108.058594 114.125 L 111.933594 127.367188 C 112.105469 127.953125 112.71875 128.289062 113.308594 128.117188 C 113.894531 127.945312 114.230469 127.328125 114.058594 126.742188 L 111.164062 116.855469 L 130.699219 134.046875 C 131.875 135.082031 133.351562 135.609375 134.835938 135.609375 C 136.09375 135.609375 137.355469 135.230469 138.441406 134.464844 C 146.0625 129.101562 154.820312 123.214844 160.988281 119.363281 C 161.660156 118.941406 162.304688 118.542969 162.910156 118.175781 C 165.875 126.003906 168.972656 136.066406 168.355469 142.679688 C 167.476562 152.097656 164.433594 156.191406 163.066406 164.460938 C 162.851562 165.113281 162.699219 165.792969 162.625 166.503906 L 161.382812 178.4375 L 156.617188 224.246094 C 164.117188 224.910156 170.695312 228.832031 174.929688 234.585938 Z M 174.929688 234.585938 " fill-opacity="1" fill-rule="nonzero"/><path fill="#000000" d="M 208.417969 73.488281 C 208.417969 74.167969 208.382812 74.847656 208.316406 75.523438 C 208.25 76.199219 208.152344 76.871094 208.019531 77.535156 C 207.886719 78.203125 207.722656 78.859375 207.523438 79.511719 C 207.328125 80.160156 207.097656 80.800781 206.839844 81.425781 C 206.578125 82.054688 206.289062 82.667969 205.96875 83.269531 C 205.648438 83.867188 205.300781 84.449219 204.921875 85.015625 C 204.546875 85.578125 204.140625 86.125 203.710938 86.648438 C 203.28125 87.175781 202.824219 87.675781 202.34375 88.15625 C 201.863281 88.636719 201.363281 89.09375 200.835938 89.523438 C 200.3125 89.957031 199.769531 90.359375 199.203125 90.738281 C 198.640625 91.113281 198.058594 91.464844 197.457031 91.785156 C 196.859375 92.105469 196.246094 92.394531 195.621094 92.652344 C 194.992188 92.914062 194.355469 93.140625 193.703125 93.339844 C 193.054688 93.535156 192.398438 93.703125 191.730469 93.835938 C 191.066406 93.964844 190.394531 94.066406 189.71875 94.132812 C 189.042969 94.199219 188.367188 94.234375 187.6875 94.234375 C 187.007812 94.234375 186.332031 94.199219 185.65625 94.132812 C 184.980469 94.066406 184.308594 93.964844 183.644531 93.835938 C 182.976562 93.703125 182.320312 93.535156 181.667969 93.339844 C 181.019531 93.140625 180.382812 92.914062 179.753906 92.652344 C 179.125 92.394531 178.515625 92.105469 177.914062 91.785156 C 177.316406 91.464844 176.734375 91.113281 176.171875 90.738281 C 175.605469 90.359375 175.0625 89.957031 174.535156 89.523438 C 174.011719 89.09375 173.507812 88.636719 173.027344 88.15625 C 172.550781 87.675781 172.09375 87.175781 171.664062 86.648438 C 171.230469 86.125 170.828125 85.578125 170.449219 85.015625 C 170.074219 84.449219 169.726562 83.867188 169.40625 83.269531 C 169.085938 82.667969 168.796875 82.054688 168.535156 81.425781 C 168.277344 80.800781 168.046875 80.160156 167.851562 79.511719 C 167.652344 78.859375 167.488281 78.203125 167.355469 77.535156 C 167.222656 76.871094 167.125 76.199219 167.058594 75.523438 C 166.992188 74.847656 166.957031 74.167969 166.957031 73.488281 C 166.957031 72.808594 166.992188 72.132812 167.058594 71.457031 C 167.125 70.78125 167.222656 70.109375 167.355469 69.441406 C 167.488281 68.777344 167.652344 68.117188 167.851562 67.46875 C 168.046875 66.816406 168.277344 66.179688 168.535156 65.550781 C 168.796875 64.925781 169.085938 64.3125 169.40625 63.710938 C 169.726562 63.113281 170.074219 62.53125 170.449219 61.964844 C 170.828125 61.402344 171.230469 60.855469 171.664062 60.332031 C 172.09375 59.804688 172.550781 59.300781 173.027344 58.820312 C 173.507812 58.339844 174.011719 57.886719 174.535156 57.453125 C 175.0625 57.023438 175.605469 56.621094 176.171875 56.242188 C 176.734375 55.863281 177.316406 55.515625 177.914062 55.195312 C 178.515625 54.875 179.125 54.585938 179.753906 54.324219 C 180.382812 54.066406 181.019531 53.835938 181.667969 53.640625 C 182.320312 53.441406 182.976562 53.277344 183.644531 53.144531 C 184.308594 53.011719 184.980469 52.914062 185.65625 52.847656 C 186.332031 52.78125 187.007812 52.746094 187.6875 52.746094 C 188.367188 52.746094 189.042969 52.78125 189.71875 52.847656 C 190.394531 52.914062 191.066406 53.011719 191.730469 53.144531 C 192.398438 53.277344 193.054688 53.441406 193.703125 53.640625 C 194.355469 53.835938 194.992188 54.066406 195.621094 54.324219 C 196.246094 54.585938 196.859375 54.875 197.457031 55.195312 C 198.058594 55.515625 198.640625 55.863281 199.203125 56.242188 C 199.769531 56.621094 200.3125 57.023438 200.835938 57.453125 C 201.363281 57.886719 201.863281 58.339844 202.34375 58.820312 C 202.824219 59.300781 203.28125 59.804688 203.710938 60.332031 C 204.140625 60.855469 204.546875 61.402344 204.921875 61.964844 C 205.300781 62.53125 205.648438 63.113281 205.96875 63.710938 C 206.289062 64.3125 206.578125 64.925781 206.839844 65.550781 C 207.097656 66.179688 207.328125 66.816406 207.523438 67.46875 C 207.722656 68.117188 207.886719 68.777344 208.019531 69.441406 C 208.152344 70.109375 208.25 70.78125 208.316406 71.457031 C 208.382812 72.132812 208.417969 72.808594 208.417969 73.488281 Z M 208.417969 73.488281 " fill-opacity="1" fill-rule="nonzero"/><path fill="#000000" d="M 109.660156 249.707031 C 109.660156 250.417969 109.625 251.125 109.554688 251.835938 C 109.484375 252.542969 109.382812 253.242188 109.242188 253.941406 C 109.105469 254.636719 108.929688 255.328125 108.726562 256.007812 C 108.519531 256.6875 108.28125 257.355469 108.007812 258.011719 C 107.734375 258.671875 107.433594 259.3125 107.097656 259.9375 C 106.761719 260.566406 106.398438 261.175781 106.003906 261.765625 C 105.609375 262.359375 105.1875 262.929688 104.734375 263.476562 C 104.285156 264.027344 103.808594 264.554688 103.304688 265.054688 C 102.804688 265.558594 102.277344 266.035156 101.726562 266.488281 C 101.179688 266.9375 100.609375 267.359375 100.019531 267.753906 C 99.425781 268.152344 98.820312 268.515625 98.191406 268.851562 C 97.566406 269.1875 96.925781 269.488281 96.265625 269.761719 C 95.609375 270.035156 94.941406 270.273438 94.261719 270.480469 C 93.582031 270.6875 92.894531 270.859375 92.199219 270.996094 C 91.5 271.136719 90.800781 271.238281 90.09375 271.308594 C 89.386719 271.378906 88.675781 271.414062 87.964844 271.414062 C 87.253906 271.414062 86.546875 271.378906 85.839844 271.308594 C 85.132812 271.238281 84.429688 271.136719 83.734375 270.996094 C 83.035156 270.859375 82.347656 270.6875 81.667969 270.480469 C 80.988281 270.273438 80.320312 270.035156 79.664062 269.761719 C 79.007812 269.488281 78.367188 269.1875 77.738281 268.851562 C 77.113281 268.515625 76.503906 268.152344 75.914062 267.753906 C 75.324219 267.359375 74.753906 266.9375 74.203125 266.488281 C 73.652344 266.035156 73.128906 265.558594 72.625 265.054688 C 72.125 264.554688 71.648438 264.027344 71.195312 263.476562 C 70.746094 262.929688 70.324219 262.359375 69.929688 261.765625 C 69.53125 261.175781 69.167969 260.566406 68.832031 259.9375 C 68.5 259.3125 68.195312 258.671875 67.921875 258.011719 C 67.652344 257.355469 67.410156 256.6875 67.207031 256.007812 C 67 255.328125 66.828125 254.636719 66.6875 253.941406 C 66.550781 253.242188 66.445312 252.542969 66.375 251.835938 C 66.304688 251.125 66.273438 250.417969 66.273438 249.707031 C 66.273438 248.996094 66.304688 248.285156 66.375 247.578125 C 66.445312 246.871094 66.550781 246.167969 66.6875 245.472656 C 66.828125 244.773438 67 244.085938 67.207031 243.40625 C 67.410156 242.722656 67.652344 242.054688 67.921875 241.398438 C 68.195312 240.742188 68.5 240.101562 68.832031 239.472656 C 69.167969 238.847656 69.53125 238.238281 69.929688 237.644531 C 70.324219 237.054688 70.746094 236.484375 71.195312 235.933594 C 71.648438 235.386719 72.125 234.859375 72.625 234.355469 C 73.128906 233.855469 73.652344 233.375 74.203125 232.925781 C 74.753906 232.476562 75.324219 232.050781 75.914062 231.65625 C 76.503906 231.261719 77.113281 230.898438 77.738281 230.5625 C 78.367188 230.226562 79.007812 229.921875 79.664062 229.652344 C 80.320312 229.378906 80.988281 229.140625 81.667969 228.933594 C 82.347656 228.726562 83.035156 228.554688 83.734375 228.414062 C 84.429688 228.277344 85.132812 228.171875 85.839844 228.101562 C 86.546875 228.035156 87.253906 228 87.964844 228 C 88.675781 228 89.386719 228.035156 90.09375 228.101562 C 90.800781 228.171875 91.5 228.277344 92.199219 228.414062 C 92.894531 228.554688 93.582031 228.726562 94.261719 228.933594 C 94.941406 229.140625 95.609375 229.378906 96.265625 229.652344 C 96.925781 229.921875 97.566406 230.226562 98.191406 230.5625 C 98.820312 230.898438 99.425781 231.261719 100.019531 231.65625 C 100.609375 232.050781 101.179688 232.476562 101.726562 232.925781 C 102.277344 233.375 102.804688 233.855469 103.304688 234.355469 C 103.808594 234.859375 104.285156 235.386719 104.734375 235.933594 C 105.1875 236.484375 105.609375 237.054688 106.003906 237.644531 C 106.398438 238.238281 106.761719 238.847656 107.097656 239.472656 C 107.433594 240.101562 107.734375 240.742188 108.007812 241.398438 C 108.28125 242.054688 108.519531 242.722656 108.726562 243.40625 C 108.929688 244.085938 109.105469 244.773438 109.242188 245.472656 C 109.382812 246.167969 109.484375 246.871094 109.554688 247.578125 C 109.625 248.285156 109.660156 248.996094 109.660156 249.707031 Z M 109.660156 249.707031 " fill-opacity="1" fill-rule="nonzero"/><g clip-path="url(#ad7dc670c6)"><path fill="#000000" d="M 267.683594 276.953125 C 266.042969 277.003906 264.402344 277.566406 263.035156 278.6875 C 261.589844 279.875 257.304688 284.226562 253.910156 296.167969 C 250.511719 284.226562 246.226562 279.875 244.78125 278.6875 C 243.414062 277.566406 241.777344 277.003906 240.132812 276.953125 C 239.875 276.925781 239.613281 276.910156 239.34375 276.910156 L 202.09375 276.910156 C 201.828125 276.910156 201.566406 276.925781 201.304688 276.953125 C 199.664062 277.003906 198.027344 277.566406 196.65625 278.6875 C 195.210938 279.875 190.929688 284.226562 187.53125 296.167969 C 184.132812 284.226562 179.851562 279.875 178.40625 278.6875 C 177.035156 277.566406 175.398438 277.003906 173.757812 276.953125 C 173.496094 276.925781 173.234375 276.910156 172.96875 276.910156 L 135.714844 276.910156 C 135.449219 276.910156 135.1875 276.925781 134.929688 276.953125 C 133.289062 277.003906 131.648438 277.566406 130.28125 278.6875 C 128.835938 279.875 124.550781 284.226562 121.152344 296.167969 C 117.757812 284.226562 113.472656 279.875 112.027344 278.6875 C 110.660156 277.566406 109.019531 277.003906 107.378906 276.953125 C 107.117188 276.925781 106.855469 276.910156 106.589844 276.910156 L 69.339844 276.910156 C 69.074219 276.910156 68.808594 276.925781 68.550781 276.953125 C 66.910156 277.003906 65.273438 277.566406 63.902344 278.6875 C 61.5 280.65625 51.273438 291.363281 50.273438 331.085938 L 324.789062 331.085938 C 323.789062 291.363281 313.5625 280.65625 311.160156 278.6875 C 309.789062 277.566406 308.152344 277.003906 306.511719 276.953125 C 306.25 276.925781 305.988281 276.910156 305.722656 276.910156 L 268.472656 276.910156 C 268.207031 276.910156 267.941406 276.925781 267.683594 276.953125 Z M 267.683594 276.953125 " fill-opacity="1" fill-rule="nonzero"/></g><path fill="#000000" d="M 176.035156 249.707031 C 176.035156 250.417969 176.003906 251.125 175.933594 251.835938 C 175.863281 252.542969 175.757812 253.242188 175.621094 253.941406 C 175.480469 254.636719 175.308594 255.328125 175.101562 256.007812 C 174.898438 256.6875 174.65625 257.355469 174.386719 258.011719 C 174.113281 258.671875 173.808594 259.3125 173.476562 259.9375 C 173.140625 260.566406 172.777344 261.175781 172.382812 261.765625 C 171.984375 262.359375 171.5625 262.929688 171.113281 263.476562 C 170.660156 264.027344 170.183594 264.554688 169.683594 265.054688 C 169.179688 265.558594 168.65625 266.035156 168.105469 266.488281 C 167.554688 266.9375 166.988281 267.359375 166.394531 267.753906 C 165.804688 268.152344 165.195312 268.515625 164.570312 268.851562 C 163.941406 269.1875 163.300781 269.488281 162.644531 269.761719 C 161.988281 270.035156 161.320312 270.273438 160.640625 270.480469 C 159.960938 270.6875 159.273438 270.859375 158.574219 270.996094 C 157.878906 271.136719 157.175781 271.238281 156.46875 271.308594 C 155.761719 271.378906 155.054688 271.414062 154.34375 271.414062 C 153.632812 271.414062 152.921875 271.378906 152.214844 271.308594 C 151.507812 271.238281 150.808594 271.136719 150.109375 270.996094 C 149.414062 270.859375 148.726562 270.6875 148.046875 270.480469 C 147.367188 270.273438 146.699219 270.035156 146.042969 269.761719 C 145.386719 269.488281 144.742188 269.1875 144.117188 268.851562 C 143.488281 268.515625 142.882812 268.152344 142.289062 267.753906 C 141.699219 267.359375 141.128906 266.9375 140.582031 266.488281 C 140.03125 266.035156 139.503906 265.558594 139.003906 265.054688 C 138.5 264.554688 138.023438 264.027344 137.574219 263.476562 C 137.121094 262.929688 136.699219 262.359375 136.304688 261.765625 C 135.910156 261.175781 135.546875 260.566406 135.210938 259.9375 C 134.875 259.3125 134.574219 258.671875 134.300781 258.011719 C 134.027344 257.355469 133.789062 256.6875 133.582031 256.007812 C 133.378906 255.328125 133.203125 254.636719 133.066406 253.941406 C 132.925781 253.242188 132.824219 252.542969 132.753906 251.835938 C 132.683594 251.125 132.648438 250.417969 132.648438 249.707031 C 132.648438 248.996094 132.683594 248.285156 132.753906 247.578125 C 132.824219 246.871094 132.925781 246.167969 133.066406 245.472656 C 133.203125 244.773438 133.378906 244.085938 133.582031 243.40625 C 133.789062 242.722656 134.027344 242.054688 134.300781 241.398438 C 134.574219 240.742188 134.875 240.101562 135.210938 239.472656 C 135.546875 238.847656 135.910156 238.238281 136.304688 237.644531 C 136.699219 237.054688 137.121094 236.484375 137.574219 235.933594 C 138.023438 235.386719 138.5 234.859375 139.003906 234.355469 C 139.503906 233.855469 140.03125 233.375 140.582031 232.925781 C 141.128906 232.476562 141.699219 232.050781 142.289062 231.65625 C 142.882812 231.261719 143.488281 230.898438 144.117188 230.5625 C 144.742188 230.226562 145.386719 229.921875 146.042969 229.652344 C 146.699219 229.378906 147.367188 229.140625 148.046875 228.933594 C 148.726562 228.726562 149.414062 228.554688 150.109375 228.414062 C 150.808594 228.277344 151.507812 228.171875 152.214844 228.101562 C 152.921875 228.035156 153.632812 228 154.34375 228 C 155.054688 228 155.761719 228.035156 156.46875 228.101562 C 157.175781 228.171875 157.878906 228.277344 158.574219 228.414062 C 159.273438 228.554688 159.960938 228.726562 160.640625 228.933594 C 161.320312 229.140625 161.988281 229.378906 162.644531 229.652344 C 163.300781 229.921875 163.941406 230.226562 164.570312 230.5625 C 165.195312 230.898438 165.804688 231.261719 166.394531 231.65625 C 166.988281 232.050781 167.554688 232.476562 168.105469 232.925781 C 168.65625 233.375 169.179688 233.855469 169.683594 234.355469 C 170.183594 234.859375 170.660156 235.386719 171.113281 235.933594 C 171.5625 236.484375 171.984375 237.054688 172.382812 237.644531 C 172.777344 238.238281 173.140625 238.847656 173.476562 239.472656 C 173.808594 240.101562 174.113281 240.742188 174.386719 241.398438 C 174.65625 242.054688 174.898438 242.722656 175.101562 243.40625 C 175.308594 244.085938 175.480469 244.773438 175.621094 245.472656 C 175.757812 246.167969 175.863281 246.871094 175.933594 247.578125 C 176.003906 248.285156 176.035156 248.996094 176.035156 249.707031 Z M 176.035156 249.707031 " fill-opacity="1" fill-rule="nonzero"/><path fill="#000000" d="M 229.027344 229.644531 C 229.683594 229.917969 230.324219 230.222656 230.949219 230.558594 C 231.578125 230.890625 232.1875 231.257812 232.777344 231.652344 C 233.367188 232.046875 233.9375 232.46875 234.484375 232.921875 C 235.035156 233.371094 235.5625 233.847656 236.0625 234.351562 C 236.566406 234.855469 237.042969 235.378906 237.492188 235.929688 C 237.945312 236.480469 238.367188 237.050781 238.761719 237.640625 C 239.15625 238.234375 239.519531 238.839844 239.855469 239.46875 C 240.191406 240.09375 240.496094 240.738281 240.765625 241.394531 C 241.039062 242.050781 241.277344 242.71875 241.484375 243.398438 C 241.691406 244.082031 241.863281 244.769531 242 245.464844 C 242.140625 246.164062 242.242188 246.867188 242.3125 247.574219 C 242.382812 248.28125 242.417969 248.992188 242.417969 249.703125 C 242.417969 250.414062 242.382812 251.121094 242.3125 251.828125 C 242.242188 252.535156 242.140625 253.238281 242 253.9375 C 241.863281 254.632812 241.691406 255.324219 241.484375 256.003906 C 241.277344 256.683594 241.039062 257.351562 240.765625 258.007812 C 240.496094 258.664062 240.191406 259.308594 239.855469 259.933594 C 239.519531 260.5625 239.15625 261.171875 238.761719 261.761719 C 238.367188 262.351562 237.945312 262.921875 237.492188 263.472656 C 237.042969 264.023438 236.566406 264.546875 236.0625 265.050781 C 235.5625 265.554688 235.035156 266.03125 234.484375 266.480469 C 233.9375 266.933594 233.367188 267.355469 232.777344 267.75 C 232.1875 268.144531 231.578125 268.511719 230.949219 268.847656 C 230.324219 269.179688 229.683594 269.484375 229.027344 269.757812 C 228.371094 270.027344 227.703125 270.269531 227.019531 270.476562 C 226.339844 270.679688 225.652344 270.855469 224.957031 270.992188 C 224.257812 271.132812 223.558594 271.234375 222.851562 271.304688 C 222.144531 271.375 221.433594 271.410156 220.722656 271.410156 C 220.011719 271.410156 219.304688 271.375 218.597656 271.304688 C 217.890625 271.234375 217.1875 271.132812 216.492188 270.992188 C 215.792969 270.855469 215.105469 270.679688 214.425781 270.476562 C 213.746094 270.269531 213.078125 270.027344 212.421875 269.757812 C 211.765625 269.484375 211.125 269.179688 210.496094 268.847656 C 209.871094 268.511719 209.261719 268.144531 208.671875 267.75 C 208.082031 267.355469 207.511719 266.933594 206.960938 266.480469 C 206.414062 266.03125 205.886719 265.554688 205.382812 265.050781 C 204.882812 264.546875 204.40625 264.023438 203.953125 263.472656 C 203.503906 262.921875 203.082031 262.351562 202.6875 261.761719 C 202.292969 261.171875 201.925781 260.5625 201.589844 259.933594 C 201.257812 259.308594 200.953125 258.664062 200.679688 258.007812 C 200.410156 257.351562 200.171875 256.683594 199.964844 256.003906 C 199.757812 255.324219 199.585938 254.632812 199.445312 253.9375 C 199.308594 253.238281 199.203125 252.535156 199.132812 251.828125 C 199.066406 251.121094 199.03125 250.414062 199.03125 249.703125 C 199.03125 248.992188 199.066406 248.28125 199.132812 247.574219 C 199.203125 246.867188 199.308594 246.164062 199.445312 245.464844 C 199.585938 244.769531 199.757812 244.082031 199.964844 243.398438 C 200.171875 242.71875 200.410156 242.050781 200.679688 241.394531 C 200.953125 240.738281 201.257812 240.09375 201.589844 239.46875 C 201.925781 238.839844 202.292969 238.234375 202.6875 237.640625 C 203.082031 237.050781 203.503906 236.480469 203.953125 235.929688 C 204.40625 235.378906 204.882812 234.855469 205.382812 234.351562 C 205.886719 233.847656 206.414062 233.371094 206.960938 232.921875 C 207.511719 232.46875 208.082031 232.046875 208.671875 231.652344 C 209.261719 231.257812 209.871094 230.890625 210.496094 230.558594 C 211.125 230.222656 211.765625 229.917969 212.421875 229.644531 C 213.078125 229.375 213.746094 229.136719 214.425781 228.929688 C 215.105469 228.722656 215.792969 228.550781 216.492188 228.410156 C 217.1875 228.273438 217.890625 228.167969 218.597656 228.097656 C 219.304688 228.027344 220.011719 227.992188 220.722656 227.992188 C 221.433594 227.992188 222.144531 228.027344 222.851562 228.097656 C 223.558594 228.167969 224.257812 228.273438 224.957031 228.410156 C 225.652344 228.550781 226.339844 228.722656 227.019531 228.929688 C 227.703125 229.136719 228.371094 229.375 229.027344 229.644531 Z M 229.027344 229.644531 " fill-opacity="1" fill-rule="nonzero"/><path fill="#000000" d="M 308.792969 249.707031 C 308.792969 250.417969 308.757812 251.125 308.6875 251.835938 C 308.617188 252.542969 308.515625 253.242188 308.375 253.941406 C 308.238281 254.636719 308.0625 255.328125 307.859375 256.007812 C 307.652344 256.6875 307.414062 257.355469 307.140625 258.011719 C 306.867188 258.671875 306.566406 259.3125 306.230469 259.9375 C 305.894531 260.566406 305.53125 261.175781 305.136719 261.765625 C 304.742188 262.359375 304.320312 262.929688 303.867188 263.476562 C 303.417969 264.027344 302.941406 264.554688 302.4375 265.054688 C 301.9375 265.558594 301.410156 266.035156 300.859375 266.488281 C 300.3125 266.9375 299.742188 267.359375 299.152344 267.753906 C 298.558594 268.152344 297.949219 268.515625 297.324219 268.851562 C 296.699219 269.1875 296.054688 269.488281 295.398438 269.761719 C 294.742188 270.035156 294.074219 270.273438 293.394531 270.480469 C 292.714844 270.6875 292.027344 270.859375 291.332031 270.996094 C 290.632812 271.136719 289.929688 271.238281 289.222656 271.308594 C 288.515625 271.378906 287.808594 271.414062 287.097656 271.414062 C 286.386719 271.414062 285.679688 271.378906 284.972656 271.308594 C 284.265625 271.238281 283.5625 271.136719 282.867188 270.996094 C 282.167969 270.859375 281.480469 270.6875 280.800781 270.480469 C 280.121094 270.273438 279.453125 270.035156 278.796875 269.761719 C 278.140625 269.488281 277.5 269.1875 276.871094 268.851562 C 276.246094 268.515625 275.636719 268.152344 275.046875 267.753906 C 274.453125 267.359375 273.886719 266.9375 273.335938 266.488281 C 272.785156 266.035156 272.261719 265.558594 271.757812 265.054688 C 271.253906 264.554688 270.777344 264.027344 270.328125 263.476562 C 269.878906 262.929688 269.453125 262.359375 269.058594 261.765625 C 268.664062 261.175781 268.300781 260.566406 267.964844 259.9375 C 267.632812 259.3125 267.328125 258.671875 267.054688 258.011719 C 266.785156 257.355469 266.542969 256.6875 266.339844 256.007812 C 266.132812 255.328125 265.960938 254.636719 265.820312 253.941406 C 265.683594 253.242188 265.578125 252.542969 265.507812 251.835938 C 265.4375 251.125 265.402344 250.417969 265.402344 249.707031 C 265.402344 248.996094 265.4375 248.285156 265.507812 247.578125 C 265.578125 246.871094 265.683594 246.167969 265.820312 245.472656 C 265.960938 244.773438 266.132812 244.085938 266.339844 243.40625 C 266.542969 242.722656 266.785156 242.054688 267.054688 241.398438 C 267.328125 240.742188 267.632812 240.101562 267.964844 239.472656 C 268.300781 238.847656 268.664062 238.238281 269.058594 237.644531 C 269.453125 237.054688 269.878906 236.484375 270.328125 235.933594 C 270.777344 235.386719 271.253906 234.859375 271.757812 234.355469 C 272.261719 233.855469 272.785156 233.375 273.335938 232.925781 C 273.886719 232.476562 274.453125 232.050781 275.046875 231.65625 C 275.636719 231.261719 276.246094 230.898438 276.871094 230.5625 C 277.5 230.226562 278.140625 229.921875 278.796875 229.652344 C 279.453125 229.378906 280.121094 229.140625 280.800781 228.933594 C 281.480469 228.726562 282.167969 228.554688 282.867188 228.414062 C 283.5625 228.277344 284.265625 228.171875 284.972656 228.101562 C 285.679688 228.035156 286.386719 228 287.097656 228 C 287.808594 228 288.515625 228.035156 289.222656 228.101562 C 289.929688 228.171875 290.632812 228.277344 291.332031 228.414062 C 292.027344 228.554688 292.714844 228.726562 293.394531 228.933594 C 294.074219 229.140625 294.742188 229.378906 295.398438 229.652344 C 296.054688 229.921875 296.699219 230.226562 297.324219 230.5625 C 297.949219 230.898438 298.558594 231.261719 299.152344 231.65625 C 299.742188 232.050781 300.3125 232.476562 300.859375 232.925781 C 301.410156 233.375 301.9375 233.855469 302.4375 234.355469 C 302.941406 234.859375 303.417969 235.386719 303.867188 235.933594 C 304.320312 236.484375 304.742188 237.054688 305.136719 237.644531 C 305.53125 238.238281 305.894531 238.847656 306.230469 239.472656 C 306.566406 240.101562 306.867188 240.742188 307.140625 241.398438 C 307.414062 242.054688 307.652344 242.722656 307.859375 243.40625 C 308.0625 244.085938 308.238281 244.773438 308.375 245.472656 C 308.515625 246.167969 308.617188 246.871094 308.6875 247.578125 C 308.757812 248.285156 308.792969 248.996094 308.792969 249.707031 Z M 308.792969 249.707031 " fill-opacity="1" fill-rule="nonzero"/></svg>