<svg xmlns="http://www.w3.org/2000/svg" xmlns:xlink="http://www.w3.org/1999/xlink" width="500" zoomAndPan="magnify" viewBox="0 0 375 374.999991" height="500" preserveAspectRatio="xMidYMid meet" version="1.0"><path fill="#000000" d="M 187.640625 194.515625 C 237.882812 194.515625 278.75 141.238281 278.75 91.042969 C 278.75 40.847656 237.882812 0 187.640625 0 C 137.398438 0 96.527344 40.847656 96.527344 91.042969 C 96.535156 141.234375 137.402344 194.515625 187.640625 194.515625 Z M 187.640625 194.515625 " fill-opacity="1" fill-rule="nonzero"/><path fill="#000000" d="M 256.039062 195.449219 C 238.367188 208.902344 216.316406 216.910156 192.4375 216.910156 L 182.84375 216.910156 C 158.957031 216.910156 136.90625 208.898438 119.238281 195.449219 C 61.53125 204.769531 17.46875 254.746094 17.46875 315.027344 C 17.46875 348.144531 93.65625 375 187.640625 375 C 281.621094 375 357.8125 348.144531 357.8125 315.027344 C 357.8125 254.746094 313.746094 204.769531 256.039062 195.449219 Z M 256.039062 195.449219 " fill-opacity="1" fill-rule="nonzero"/></svg>