<svg xmlns="http://www.w3.org/2000/svg" xmlns:xlink="http://www.w3.org/1999/xlink" width="500" zoomAndPan="magnify" viewBox="0 0 375 374.999991" height="500" preserveAspectRatio="xMidYMid meet" version="1.0"><path fill="#ffffff" d="M 224.992188 150.007812 C 226.21875 151.238281 227.386719 152.523438 228.488281 153.867188 C 229.589844 155.207031 230.621094 156.601562 231.585938 158.046875 C 232.550781 159.492188 233.445312 160.980469 234.261719 162.511719 C 235.082031 164.042969 235.824219 165.609375 236.488281 167.214844 C 237.152344 168.820312 237.738281 170.453125 238.242188 172.117188 C 238.746094 173.777344 239.167969 175.460938 239.507812 177.164062 C 239.84375 178.867188 240.101562 180.582031 240.269531 182.3125 C 240.441406 184.039062 240.527344 185.773438 240.527344 187.511719 C 240.527344 189.246094 240.441406 190.980469 240.269531 192.707031 C 240.101562 194.4375 239.84375 196.152344 239.507812 197.855469 C 239.167969 199.5625 238.746094 201.242188 238.242188 202.90625 C 237.738281 204.566406 237.152344 206.203125 236.488281 207.804688 C 235.824219 209.410156 235.082031 210.980469 234.265625 212.511719 C 233.445312 214.042969 232.554688 215.53125 231.589844 216.976562 C 230.625 218.417969 229.589844 219.8125 228.488281 221.15625 C 227.386719 222.5 226.222656 223.785156 224.992188 225.011719 C 223.765625 226.238281 222.480469 227.40625 221.136719 228.507812 C 219.792969 229.609375 218.402344 230.644531 216.957031 231.609375 C 215.511719 232.574219 214.023438 233.464844 212.492188 234.285156 C 210.960938 235.101562 209.390625 235.84375 207.789062 236.507812 C 206.183594 237.171875 204.550781 237.757812 202.886719 238.261719 C 201.226562 238.765625 199.542969 239.1875 197.839844 239.527344 C 196.136719 239.867188 194.417969 240.121094 192.691406 240.289062 C 190.960938 240.460938 189.230469 240.546875 187.492188 240.546875 C 185.753906 240.546875 184.023438 240.460938 182.292969 240.289062 C 180.566406 240.121094 178.847656 239.867188 177.144531 239.527344 C 175.441406 239.1875 173.757812 238.765625 172.097656 238.261719 C 170.433594 237.757812 168.800781 237.175781 167.195312 236.507812 C 165.589844 235.84375 164.023438 235.101562 162.492188 234.285156 C 160.960938 233.464844 159.472656 232.574219 158.027344 231.609375 C 156.582031 230.644531 155.191406 229.609375 153.847656 228.507812 C 152.503906 227.40625 151.21875 226.242188 149.992188 225.011719 C 148.761719 223.785156 147.597656 222.5 146.496094 221.15625 C 145.394531 219.8125 144.359375 218.421875 143.394531 216.976562 C 142.429688 215.53125 141.539062 214.042969 140.71875 212.511719 C 139.898438 210.980469 139.160156 209.414062 138.492188 207.808594 C 137.828125 206.203125 137.246094 204.570312 136.742188 202.90625 C 136.234375 201.246094 135.816406 199.5625 135.476562 197.859375 C 135.136719 196.15625 134.882812 194.4375 134.710938 192.710938 C 134.542969 190.980469 134.457031 189.25 134.457031 187.511719 C 134.457031 185.777344 134.542969 184.042969 134.710938 182.3125 C 134.882812 180.585938 135.136719 178.871094 135.476562 177.164062 C 135.8125 175.460938 136.234375 173.78125 136.738281 172.117188 C 137.242188 170.457031 137.828125 168.820312 138.492188 167.21875 C 139.15625 165.613281 139.898438 164.042969 140.71875 162.511719 C 141.535156 160.980469 142.429688 159.492188 143.394531 158.046875 C 144.359375 156.605469 145.390625 155.210938 146.496094 153.867188 C 147.597656 152.523438 148.761719 151.238281 149.988281 150.011719 C 151.21875 148.78125 152.503906 147.617188 153.84375 146.515625 C 155.1875 145.414062 156.582031 144.378906 158.027344 143.414062 C 159.46875 142.449219 160.957031 141.558594 162.488281 140.738281 C 164.023438 139.921875 165.589844 139.179688 167.195312 138.515625 C 168.800781 137.847656 170.433594 137.265625 172.09375 136.761719 C 173.757812 136.257812 175.441406 135.835938 177.144531 135.496094 C 178.847656 135.15625 180.5625 134.902344 182.292969 134.730469 C 184.019531 134.5625 185.753906 134.476562 187.488281 134.476562 C 189.226562 134.476562 190.960938 134.5625 192.6875 134.730469 C 194.417969 134.902344 196.132812 135.15625 197.835938 135.496094 C 199.539062 135.835938 201.222656 136.257812 202.886719 136.761719 C 204.546875 137.265625 206.179688 137.847656 207.785156 138.511719 C 209.390625 139.179688 210.957031 139.921875 212.492188 140.738281 C 214.023438 141.558594 215.511719 142.449219 216.953125 143.414062 C 218.398438 144.378906 219.792969 145.414062 221.136719 146.515625 C 222.476562 147.617188 223.761719 148.78125 224.992188 150.007812 Z M 224.992188 150.007812 " fill-opacity="1" fill-rule="nonzero"/><path fill="#00bcd4" d="M 187.457031 242.675781 C 184.453125 242.675781 181.445312 242.421875 178.496094 241.9375 C 174.921875 241.34375 171.40625 240.40625 168.03125 239.128906 C 164.710938 237.882812 161.480469 236.292969 158.472656 234.421875 C 155.464844 232.578125 152.660156 230.394531 150.050781 228.011719 C 147.46875 225.632812 145.085938 222.964844 142.988281 220.128906 C 140.890625 217.265625 139.046875 214.171875 137.542969 210.96875 C 136.011719 207.707031 134.792969 204.246094 133.914062 200.757812 C 133.03125 197.15625 132.496094 193.441406 132.351562 189.699219 C 132.210938 185.953125 132.4375 182.210938 133.03125 178.550781 C 133.628906 174.980469 134.566406 171.460938 135.839844 168.085938 C 137.089844 164.769531 138.675781 161.535156 140.546875 158.53125 C 142.390625 155.523438 144.574219 152.714844 146.957031 150.105469 C 149.339844 147.527344 152.007812 145.144531 154.84375 143.042969 C 157.707031 140.945312 160.796875 139.101562 164.003906 137.597656 C 167.265625 136.066406 170.722656 134.847656 174.214844 133.96875 C 177.816406 133.089844 181.53125 132.550781 185.273438 132.410156 C 189.015625 132.265625 192.761719 132.496094 196.417969 133.089844 C 199.992188 133.683594 203.507812 134.621094 206.882812 135.898438 C 210.203125 137.144531 213.4375 138.734375 216.441406 140.605469 C 219.449219 142.449219 222.257812 144.632812 224.867188 147.015625 C 227.445312 149.398438 229.828125 152.0625 231.925781 154.898438 C 234.027344 157.765625 235.871094 160.855469 237.371094 164.058594 C 238.902344 167.320312 240.125 170.78125 241.003906 174.269531 C 241.882812 177.871094 242.421875 181.585938 242.5625 185.332031 C 242.703125 189.074219 242.476562 192.816406 241.882812 196.476562 C 241.285156 200.050781 240.351562 203.566406 239.074219 206.941406 C 237.824219 210.257812 236.238281 213.492188 234.367188 216.5 C 232.523438 219.503906 230.339844 222.3125 227.957031 224.921875 C 225.574219 227.503906 222.910156 229.886719 220.074219 231.984375 C 217.207031 234.082031 214.117188 235.925781 210.910156 237.429688 C 207.648438 238.960938 204.191406 240.179688 200.703125 241.058594 C 197.101562 241.9375 193.386719 242.476562 189.640625 242.617188 L 189.554688 240.492188 L 189.640625 242.617188 C 188.902344 242.648438 188.195312 242.675781 187.457031 242.675781 Z M 187.542969 136.605469 C 186.863281 136.605469 186.179688 136.605469 185.5 136.636719 C 178.636719 136.890625 172.027344 138.507812 165.847656 141.398438 C 162.898438 142.789062 160.03125 144.492188 157.394531 146.417969 C 154.785156 148.347656 152.320312 150.53125 150.105469 152.914062 C 147.894531 155.296875 145.910156 157.933594 144.179688 160.683594 C 142.449219 163.464844 140.972656 166.441406 139.839844 169.503906 C 137.429688 175.886719 136.351562 182.578125 136.605469 189.472656 C 136.863281 196.335938 138.476562 202.941406 141.371094 209.125 C 142.761719 212.074219 144.460938 214.9375 146.390625 217.578125 C 148.320312 220.1875 150.503906 222.652344 152.886719 224.867188 C 155.269531 227.078125 157.90625 229.0625 160.65625 230.792969 C 163.4375 232.523438 166.414062 233.996094 169.476562 235.132812 C 175.207031 237.289062 181.21875 238.394531 187.371094 238.394531 C 188.054688 238.394531 188.734375 238.394531 189.414062 238.363281 C 196.277344 238.109375 202.886719 236.492188 209.066406 233.601562 C 212.019531 232.210938 214.882812 230.507812 217.519531 228.582031 C 220.128906 226.652344 222.597656 224.46875 224.808594 222.085938 C 227.019531 219.703125 229.007812 217.066406 230.734375 214.316406 C 232.464844 211.535156 233.941406 208.558594 235.074219 205.496094 C 237.484375 199.113281 238.5625 192.421875 238.308594 185.527344 C 238.054688 178.664062 236.4375 172.058594 233.542969 165.875 C 232.152344 162.925781 230.453125 160.0625 228.523438 157.421875 C 226.59375 154.8125 224.410156 152.347656 222.027344 150.132812 C 219.648438 147.921875 217.007812 145.9375 214.257812 144.207031 C 211.480469 142.476562 208.5 141.003906 205.4375 139.867188 C 199.710938 137.683594 193.695312 136.605469 187.542969 136.605469 Z M 187.542969 136.605469 " fill-opacity="1" fill-rule="nonzero"/><path fill="#00bcd4" d="M 160.882812 200.871094 C 159.410156 202.0625 159.183594 204.21875 160.371094 205.695312 C 161.5625 207.167969 163.71875 207.394531 165.195312 206.203125 C 170.441406 201.976562 173.363281 195.683594 173.21875 188.933594 C 173.078125 182.636719 170.214844 176.738281 165.335938 172.738281 C 164.683594 172.199219 163.890625 171.945312 163.09375 171.972656 C 162.132812 172 161.195312 172.425781 160.515625 173.21875 C 159.324219 174.667969 159.523438 176.820312 160.996094 178.042969 C 164.316406 180.765625 166.300781 184.820312 166.386719 189.101562 C 166.46875 193.667969 164.457031 197.980469 160.882812 200.871094 Z M 160.882812 200.871094 " fill-opacity="1" fill-rule="nonzero"/><path fill="#00bcd4" d="M 179.316406 188.820312 C 179.460938 195.9375 176.90625 202.714844 172.085938 207.933594 C 170.808594 209.324219 170.894531 211.480469 172.285156 212.753906 C 173.675781 214.03125 175.828125 213.945312 177.105469 212.558594 C 183.117188 206.035156 186.351562 197.527344 186.152344 188.648438 C 185.953125 179.714844 182.351562 171.320312 175.972656 165.050781 C 175.289062 164.371094 174.382812 164.058594 173.503906 164.058594 C 172.652344 164.089844 171.800781 164.429688 171.148438 165.082031 C 169.816406 166.414062 169.84375 168.597656 171.179688 169.929688 C 176.285156 174.980469 179.175781 181.671875 179.316406 188.820312 Z M 179.316406 188.820312 " fill-opacity="1" fill-rule="nonzero"/><path fill="#00bcd4" d="M 193.242188 188.535156 C 193.46875 198.375 190.179688 207.992188 183.996094 215.621094 C 182.804688 217.09375 183.03125 219.25 184.507812 220.441406 C 185.984375 221.632812 188.136719 221.40625 189.328125 219.929688 C 196.503906 211.023438 200.332031 199.824219 200.078125 188.394531 C 199.824219 176.425781 195.171875 165.023438 187.003906 156.289062 C 186.324219 155.550781 185.359375 155.183594 184.421875 155.210938 C 183.601562 155.238281 182.804688 155.523438 182.152344 156.117188 C 180.765625 157.421875 180.707031 159.578125 181.984375 160.941406 C 189.046875 168.457031 193.015625 178.238281 193.242188 188.535156 Z M 193.242188 188.535156 " fill-opacity="1" fill-rule="nonzero"/><path fill="#00bcd4" d="M 207.027344 188.335938 C 207.308594 201.097656 203.394531 213.210938 195.738281 223.390625 C 194.605469 224.894531 194.917969 227.050781 196.417969 228.183594 C 197.921875 229.316406 200.078125 229.007812 201.210938 227.503906 C 209.804688 216.101562 214.171875 202.488281 213.859375 188.195312 C 213.519531 173.105469 207.820312 158.644531 197.753906 147.441406 C 197.070312 146.675781 196.078125 146.277344 195.144531 146.304688 C 194.347656 146.335938 193.554688 146.617188 192.929688 147.183594 C 191.511719 148.433594 191.398438 150.617188 192.675781 152.007812 C 201.636719 161.988281 206.742188 174.894531 207.027344 188.335938 Z M 207.027344 188.335938 " fill-opacity="1" fill-rule="nonzero"/></svg>