<svg xmlns="http://www.w3.org/2000/svg" xmlns:xlink="http://www.w3.org/1999/xlink" width="500" zoomAndPan="magnify" viewBox="0 0 375 374.999991" height="500" preserveAspectRatio="xMidYMid meet" version="1.0"><defs><clipPath id="23c8fec0d3"><path d="M 222 113.398438 L 309.105469 113.398438 L 309.105469 201 L 222 201 Z M 222 113.398438 " clip-rule="nonzero"/></clipPath><clipPath id="46a405d123"><path d="M 66.105469 194 L 120 194 L 120 261 L 66.105469 261 Z M 66.105469 194 " clip-rule="nonzero"/></clipPath><clipPath id="de56d19010"><path d="M 183 192 L 244 192 L 244 261.898438 L 183 261.898438 Z M 183 192 " clip-rule="nonzero"/></clipPath></defs><path fill="#000000" d="M 222.171875 168.046875 C 222.171875 169.234375 222.636719 170.347656 223.476562 171.1875 C 224.316406 172.027344 225.429688 172.488281 226.617188 172.488281 C 232.878906 172.488281 238.78125 174.933594 243.210938 179.375 C 247.644531 183.816406 250.089844 189.71875 250.097656 195.996094 C 250.097656 197.179688 250.5625 198.296875 251.394531 199.136719 C 252.234375 199.980469 253.347656 200.4375 254.53125 200.445312 C 255.753906 200.445312 256.859375 199.9375 257.664062 199.136719 C 258.46875 198.332031 258.96875 197.226562 258.976562 196.003906 C 258.976562 187.363281 255.609375 179.230469 249.484375 173.105469 C 243.367188 166.980469 235.246094 163.609375 226.617188 163.605469 C 224.242188 163.605469 222.171875 165.667969 222.171875 168.046875 Z M 222.171875 168.046875 " fill-opacity="1" fill-rule="nonzero"/><path fill="#000000" d="M 226.609375 138.671875 C 224.242188 138.675781 222.171875 140.742188 222.171875 143.121094 C 222.171875 144.308594 222.628906 145.421875 223.472656 146.261719 C 224.304688 147.09375 225.421875 147.5625 226.609375 147.5625 C 253.285156 147.5625 274.988281 169.289062 274.992188 196.003906 C 274.992188 197.191406 275.457031 198.3125 276.292969 199.144531 C 277.125 199.980469 278.242188 200.445312 279.4375 200.445312 C 280.660156 200.445312 281.761719 199.945312 282.570312 199.136719 C 283.375 198.332031 283.867188 197.21875 283.875 195.996094 C 283.875 180.710938 277.910156 166.320312 267.078125 155.476562 C 256.25 144.640625 241.882812 138.671875 226.609375 138.671875 Z M 226.609375 138.671875 " fill-opacity="1" fill-rule="nonzero"/><g clip-path="url(#23c8fec0d3)"><path fill="#000000" d="M 226.609375 113.410156 C 224.234375 113.417969 222.171875 115.480469 222.164062 117.859375 C 222.164062 119.046875 222.628906 120.160156 223.472656 121 C 224.3125 121.84375 225.421875 122.300781 226.609375 122.308594 C 246.242188 122.308594 264.71875 129.980469 278.640625 143.910156 C 292.558594 157.847656 300.222656 176.34375 300.222656 196.003906 C 300.230469 198.449219 302.222656 200.445312 304.667969 200.453125 C 305.890625 200.453125 307 199.953125 307.804688 199.144531 C 308.609375 198.339844 309.105469 197.226562 309.109375 196.003906 C 309.105469 150.460938 272.089844 113.410156 226.609375 113.410156 Z M 226.609375 113.410156 " fill-opacity="1" fill-rule="nonzero"/></g><g clip-path="url(#46a405d123)"><path fill="#000000" d="M 70.097656 260.203125 C 67.4375 260.203125 66.105469 258.875 66.105469 256.207031 L 66.105469 198.476562 C 66.105469 195.808594 67.429688 194.480469 70.097656 194.480469 L 77.726562 194.480469 C 79.769531 194.480469 81.453125 195.371094 82.605469 197.054688 L 103.101562 226.808594 L 103.101562 198.476562 C 103.101562 195.808594 104.429688 194.480469 107.09375 194.480469 L 115.878906 194.480469 C 118.535156 194.480469 119.871094 195.808594 119.871094 198.476562 L 119.871094 256.207031 C 119.871094 258.875 118.542969 260.203125 115.878906 260.203125 L 108.246094 260.203125 C 106.207031 260.203125 104.519531 259.3125 103.367188 257.632812 L 82.871094 227.609375 L 82.871094 256.207031 C 82.871094 258.875 81.539062 260.203125 78.878906 260.203125 Z M 70.097656 260.203125 " fill-opacity="1" fill-rule="nonzero"/></g><path fill="#000000" d="M 151.839844 235.0625 L 151.839844 256.199219 C 151.839844 258.867188 150.507812 260.195312 147.847656 260.195312 L 139.066406 260.195312 C 136.40625 260.195312 135.074219 258.867188 135.074219 256.199219 L 135.074219 198.472656 C 135.074219 195.800781 136.40625 194.472656 139.066406 194.472656 L 175.882812 194.472656 C 178.542969 194.472656 179.875 195.800781 179.875 198.472656 L 179.875 207.257812 C 179.875 209.925781 178.542969 211.253906 175.882812 211.253906 L 151.839844 211.253906 L 151.839844 219.511719 L 169.226562 219.511719 C 171.886719 219.511719 173.21875 220.839844 173.21875 223.507812 L 173.21875 231.058594 C 173.21875 233.71875 171.890625 235.046875 169.226562 235.046875 L 151.839844 235.046875 Z M 151.839844 235.0625 " fill-opacity="1" fill-rule="nonzero"/><g clip-path="url(#de56d19010)"><path fill="#000000" d="M 217.890625 261.886719 C 208.398438 261.886719 199.789062 258.070312 193.492188 251.757812 C 187.195312 245.453125 183.375 236.832031 183.375 227.332031 C 183.375 217.738281 187.1875 209.21875 193.492188 202.90625 C 199.789062 196.601562 208.398438 192.777344 217.890625 192.777344 C 227.117188 192.777344 235.71875 196.328125 242.195312 202.726562 C 244.054688 204.585938 243.792969 206.632812 241.667969 208.320312 L 234.65625 213.824219 C 232.613281 215.515625 231.109375 215.25 229.066406 213.554688 C 225.875 210.890625 222.144531 209.566406 217.890625 209.566406 C 213.007812 209.566406 208.570312 211.601562 205.378906 214.796875 C 202.183594 217.996094 200.144531 222.4375 200.144531 227.324219 C 200.144531 232.203125 202.183594 236.644531 205.378906 239.851562 C 208.570312 243.046875 213.007812 245 217.890625 245 C 221.972656 245 225.609375 243.757812 228.710938 241.269531 C 230.753906 239.761719 232.351562 239.40625 234.390625 241.09375 L 241.222656 246.863281 C 243.265625 248.546875 243.527344 250.679688 241.496094 252.550781 C 235.101562 258.605469 226.753906 261.886719 217.890625 261.886719 Z M 217.890625 261.886719 " fill-opacity="1" fill-rule="nonzero"/></g></svg>