<svg xmlns="http://www.w3.org/2000/svg" xmlns:xlink="http://www.w3.org/1999/xlink" width="500" zoomAndPan="magnify" viewBox="0 0 375 374.999991" height="500" preserveAspectRatio="xMidYMid meet" version="1.0"><defs><clipPath id="19979fb386"><path d="M 104 75 L 271.875 75 L 271.875 300 L 104 300 Z M 104 75 " clip-rule="nonzero"/></clipPath></defs><g clip-path="url(#19979fb386)"><path fill="#000000" d="M 230.6875 75.875 C 227.859375 75.449219 224.867188 76.101562 222.394531 77.949219 C 217.429688 81.613281 216.390625 88.617188 220.058594 93.578125 C 239.054688 119.28125 249.523438 152.632812 249.523438 187.5 C 249.523438 222.367188 239.054688 255.730469 220.058594 281.445312 C 216.390625 286.40625 217.429688 293.40625 222.394531 297.070312 C 224.382812 298.558594 226.714844 299.253906 229.027344 299.253906 C 232.460938 299.253906 235.832031 297.6875 238.019531 294.738281 C 259.847656 265.199219 271.875 227.117188 271.875 187.5 C 271.875 147.882812 259.847656 109.8125 238.019531 80.285156 C 236.1875 77.808594 233.515625 76.304688 230.6875 75.875 Z M 193.101562 98.664062 C 190.265625 98.289062 187.296875 99.007812 184.851562 100.890625 C 179.957031 104.644531 179.023438 111.667969 182.777344 116.5625 C 196.78125 134.800781 204.820312 160.65625 204.820312 187.5 C 204.820312 214.277344 196.820312 240.101562 182.863281 258.351562 C 179.121094 263.246094 180.054688 270.257812 184.960938 274 C 186.980469 275.554688 189.355469 276.316406 191.726562 276.316406 C 195.078125 276.316406 198.398438 274.800781 200.609375 271.925781 C 217.730469 249.542969 227.171875 219.550781 227.171875 187.5 C 227.171875 155.359375 217.699219 125.335938 200.5 102.941406 C 198.617188 100.496094 195.933594 99.035156 193.101562 98.664062 Z M 155.644531 121.035156 C 152.792969 120.84375 149.867188 121.746094 147.546875 123.785156 C 142.898438 127.84375 142.433594 134.898438 146.5 139.546875 C 154.902344 149.15625 160.121094 167.53125 160.121094 187.5 C 160.121094 207.46875 154.894531 225.84375 146.476562 235.453125 C 142.421875 240.101562 142.898438 247.15625 147.546875 251.214844 C 149.671875 253.070312 152.300781 253.984375 154.902344 253.984375 C 158.019531 253.984375 161.117188 252.703125 163.328125 250.164062 C 175.308594 236.464844 182.472656 213.023438 182.472656 187.5 C 182.472656 161.976562 175.296875 138.535156 163.308594 124.835938 C 161.273438 122.503906 158.5 121.230469 155.644531 121.035156 Z M 116.136719 144.894531 C 113.285156 144.707031 110.363281 145.609375 108.039062 147.644531 C 103.402344 151.710938 102.933594 158.765625 107.015625 163.402344 C 112.34375 169.492188 115.417969 178.28125 115.417969 187.5 C 115.417969 196.71875 112.34375 205.507812 107.015625 211.597656 C 102.945312 216.234375 103.425781 223.289062 108.0625 227.355469 C 110.1875 229.210938 112.804688 230.128906 115.417969 230.128906 C 118.511719 230.128906 121.621094 228.84375 123.820312 226.332031 C 132.828125 216.082031 137.769531 202.285156 137.769531 187.5 C 137.769531 172.714844 132.828125 158.917969 123.820312 148.667969 C 121.792969 146.351562 118.992188 145.078125 116.136719 144.894531 Z M 116.136719 144.894531 " fill-opacity="1" fill-rule="nonzero"/></g></svg>