<svg xmlns="http://www.w3.org/2000/svg" xmlns:xlink="http://www.w3.org/1999/xlink" width="500" zoomAndPan="magnify" viewBox="0 0 375 374.999991" height="500" preserveAspectRatio="xMidYMid meet" version="1.0"><defs><clipPath id="e97cac8d04"><path d="M 48.046875 133 L 149 133 L 149 223 L 48.046875 223 Z M 48.046875 133 " clip-rule="nonzero"/></clipPath></defs><path fill="#000000" d="M 184.285156 338.957031 C 176.960938 339.261719 168.867188 338.558594 160.03125 336.859375 L 160.621094 334.488281 L 153.4375 332.925781 L 152.988281 335.328125 C 126.972656 329 110.644531 317.34375 104.484375 300.621094 C 103.328125 297.472656 102.601562 294.289062 102.203125 291.121094 L 95.074219 351.527344 C 94.953125 352.546875 94.742188 353.535156 94.488281 354.503906 L 149.398438 354.503906 L 145.746094 374.003906 L 150.535156 375.046875 L 155.644531 354.503906 L 186.078125 354.503906 L 186.078125 353.386719 C 185.949219 352.777344 185.84375 352.15625 185.769531 351.527344 Z M 184.285156 338.957031 " fill-opacity="1" fill-rule="nonzero"/><path fill="#000000" d="M 99.511719 178.828125 C 95.867188 179.359375 99.402344 182.304688 105.445312 182.203125 C 105.152344 180.523438 104.8125 178.820312 104.433594 177.101562 C 102.871094 178.070312 101.167969 178.582031 99.511719 178.828125 Z M 99.511719 178.828125 " fill-opacity="1" fill-rule="nonzero"/><path fill="#000000" d="M 110.664062 118.945312 C 108.734375 122.6875 107.511719 127.3125 107.398438 133.046875 C 110.507812 132.097656 114.167969 131.1875 118.363281 130.445312 C 115.0625 127.09375 112.46875 123.183594 110.664062 118.945312 Z M 110.664062 118.945312 " fill-opacity="1" fill-rule="nonzero"/><path fill="#000000" d="M 114.796875 246.84375 L 115.003906 246.574219 L 115.25 246.335938 C 117.898438 243.726562 125.15625 235.019531 123.714844 229.453125 L 120.257812 216.097656 L 131.121094 224.597656 C 132.261719 225.492188 133.324219 226.046875 134.28125 226.257812 C 138.417969 227.15625 143.289062 220.453125 147.335938 208.328125 L 106.082031 214.941406 C 105.925781 215.882812 105.675781 216.816406 105.316406 217.722656 C 104.53125 219.71875 103.308594 221.453125 101.761719 222.851562 C 100.496094 226.191406 99.320312 229.816406 98.429688 234.25 C 97.765625 236.121094 97.269531 238.949219 97.003906 243.050781 C 96.867188 245.125 96.976562 246.976562 97.246094 248.667969 L 80.371094 251.644531 C 73.597656 252.839844 68.410156 258.332031 67.605469 265.160156 L 57.929688 347.148438 C 56.921875 355.691406 63.035156 363.4375 71.582031 364.445312 C 72.203125 364.519531 72.816406 364.554688 73.425781 364.554688 C 81.21875 364.554688 87.949219 358.722656 88.882812 350.796875 L 97.203125 280.316406 L 102.148438 279.441406 C 103.738281 264.730469 110.945312 251.902344 114.796875 246.84375 Z M 114.796875 246.84375 " fill-opacity="1" fill-rule="nonzero"/><path fill="#000000" d="M 190.5 338.421875 L 191.960938 350.796875 C 192.894531 358.722656 199.625 364.554688 207.417969 364.554688 C 208.023438 364.554688 208.640625 364.519531 209.261719 364.445312 C 217.808594 363.4375 223.921875 355.691406 222.914062 347.148438 L 220.152344 323.761719 C 219.644531 324.335938 219.121094 324.898438 218.574219 325.449219 C 211.472656 332.605469 202.070312 336.917969 190.5 338.421875 Z M 190.5 338.421875 " fill-opacity="1" fill-rule="nonzero"/><path fill="#000000" d="M 129.386719 134.167969 C 135.449219 137.300781 142.023438 138.390625 148.335938 137.707031 C 151 132.792969 154.503906 128.460938 159.144531 125.34375 C 164.65625 121.644531 170.210938 119.226562 175.496094 117.679688 C 182.433594 101.660156 175.898438 82.789062 160.152344 74.65625 C 143.710938 66.160156 123.496094 72.597656 115 89.035156 C 106.503906 105.46875 112.945312 125.675781 129.386719 134.167969 Z M 129.386719 134.167969 " fill-opacity="1" fill-rule="nonzero"/><path fill="#000000" d="M 173.195312 282.117188 L 170.839844 281.605469 L 188.226562 201.769531 L 183.433594 202.539062 L 166.425781 280.644531 L 164.070312 280.128906 L 180.878906 202.949219 L 152.472656 207.503906 C 152.292969 208.167969 152.09375 208.84375 151.859375 209.546875 C 145.5 228.78125 137.207031 235.296875 128.242188 228.28125 C 130.699219 237.769531 118.515625 249.675781 118.515625 249.675781 C 111.566406 258.800781 82.015625 312.691406 153.066406 330.542969 L 161.191406 282.738281 L 174.4375 285.621094 L 161.949219 332.476562 C 233.992188 345.761719 229.527344 284.46875 226.996094 273.28125 C 226.996094 273.28125 220.871094 257.390625 227.050781 249.78125 C 215.976562 252.4375 211.144531 243.066406 213.355469 222.925781 C 215.570312 202.789062 229.570312 203.304688 229.570312 203.304688 C 229.570312 203.304688 231.554688 199.839844 233.925781 194.441406 L 190.78125 201.359375 Z M 144.152344 234.875 C 144.433594 233.574219 145.71875 232.75 147.019531 233.035156 C 148.316406 233.316406 149.144531 234.597656 148.859375 235.898438 C 148.648438 236.875 147.867188 237.585938 146.9375 237.753906 C 147.078125 238.214844 147.828125 240.5 148.933594 240.742188 C 150.167969 241.007812 151.894531 239.871094 153.367188 237.21875 C 154.535156 235.109375 157.476562 224.253906 159.179688 217.535156 C 160.878906 210.820312 164.597656 209.015625 167.332031 208.765625 C 167.332031 208.765625 172.390625 208.746094 171.441406 214.03125 C 171.242188 214.945312 170.34375 215.523438 169.429688 215.324219 C 168.519531 215.125 167.9375 214.226562 168.136719 213.3125 C 168.304688 212.546875 168.972656 212.019531 169.722656 211.992188 C 169.855469 211.167969 169.738281 210.164062 168.445312 209.933594 C 166.179688 209.53125 162.976562 214.484375 162.582031 216.296875 C 162.183594 218.113281 160.375 228.296875 157.613281 235.160156 C 154.855469 242.019531 149.726562 242.710938 147.554688 241.46875 C 147.554688 241.46875 142.929688 239.761719 144.152344 234.875 Z M 199.613281 215.789062 C 201.992188 217.15625 204.625 220.339844 203.378906 227.15625 C 202.132812 233.972656 200.292969 245.066406 200.480469 247.46875 C 200.714844 250.496094 201.816406 252.25 203.046875 252.515625 C 204.152344 252.757812 205.785156 250.988281 206.105469 250.628906 C 205.332031 250.089844 204.917969 249.121094 205.128906 248.144531 C 205.414062 246.84375 206.695312 246.019531 207.996094 246.300781 C 209.296875 246.585938 210.121094 247.867188 209.835938 249.167969 C 208.914062 254.121094 204 253.75 204 253.75 C 201.507812 253.976562 197.132812 251.21875 197.472656 243.832031 C 197.816406 236.445312 200.40625 226.429688 200.800781 224.617188 C 201.195312 222.800781 200.339844 216.964844 198.113281 216.390625 C 196.839844 216.0625 196.3125 216.925781 196.09375 217.730469 C 196.765625 218.066406 197.152344 218.824219 196.984375 219.589844 C 196.785156 220.503906 195.886719 221.082031 194.972656 220.882812 C 194.0625 220.683594 193.484375 219.785156 193.683594 218.871094 C 195.019531 213.667969 199.613281 215.789062 199.613281 215.789062 Z M 199.613281 215.789062 " fill-opacity="1" fill-rule="nonzero"/><path fill="#000000" d="M 75.710938 210.347656 L 66.179688 211.875 C 64.484375 212.148438 63.324219 213.746094 63.597656 215.445312 C 63.871094 217.144531 65.46875 218.300781 67.167969 218.03125 L 79.03125 216.128906 C 78.039062 214.109375 76.917969 212.183594 75.710938 210.347656 Z M 75.710938 210.347656 " fill-opacity="1" fill-rule="nonzero"/><path fill="#000000" d="M 104.421875 205.742188 C 104.65625 206.246094 104.910156 206.722656 105.132812 207.230469 C 105.769531 208.691406 106.125 210.222656 106.230469 211.765625 L 272.597656 185.085938 C 274.296875 184.816406 275.453125 183.21875 275.183594 181.515625 C 274.910156 179.816406 273.3125 178.660156 271.609375 178.933594 Z M 104.421875 205.742188 " fill-opacity="1" fill-rule="nonzero"/><g clip-path="url(#e97cac8d04)"><path fill="#000000" d="M 48.453125 175.75 C 48.488281 179.363281 50.449219 182.6875 53.597656 184.464844 C 53.804688 184.582031 74.566406 196.734375 83.265625 216.734375 C 84.925781 220.550781 88.652344 222.828125 92.5625 222.828125 C 93.910156 222.828125 95.28125 222.554688 96.59375 221.984375 C 101.726562 219.753906 104.078125 213.789062 101.847656 208.660156 C 95.65625 194.429688 85.378906 183.59375 77.023438 176.515625 L 91.222656 168.121094 L 100.523438 162.621094 L 103.691406 160.75 C 107.578125 173.089844 111.328125 188.546875 109.703125 198.523438 C 109.515625 199.6875 109.300781 200.78125 109.078125 201.839844 L 148.367188 195.542969 C 147.074219 191.109375 143.972656 189.503906 143.417969 189.25 L 140.808594 188.171875 L 140.617188 185.390625 C 140.492188 184.03125 138.441406 159.929688 146.519531 141.433594 C 140.210938 141.742188 133.742188 140.453125 127.738281 137.351562 C 125.597656 136.246094 123.617188 134.953125 121.792969 133.515625 C 105.535156 135.910156 96.671875 141.285156 96.671875 141.285156 C 96.671875 141.285156 96.691406 141.328125 96.707031 141.367188 C 96.617188 141.414062 96.527344 141.453125 96.4375 141.507812 L 93.582031 143.195312 L 78.03125 152.386719 L 53.425781 166.933594 C 50.3125 168.773438 48.417969 172.132812 48.453125 175.75 Z M 48.453125 175.75 " fill-opacity="1" fill-rule="nonzero"/></g><path fill="#000000" d="M 205.253906 81.933594 L 195.851562 119.960938 C 187.863281 119.550781 174.625 120.582031 161.753906 129.222656 C 141.410156 142.882812 145.273438 184.960938 145.273438 184.960938 C 145.273438 184.960938 151.109375 187.382812 153.015625 194.796875 L 183.726562 189.871094 L 197.261719 127.710938 L 199.617188 128.226562 L 186.28125 189.460938 L 191.074219 188.695312 L 204.03125 129.1875 L 206.386719 129.699219 L 193.628906 188.285156 L 238.867188 181.03125 C 242.257812 169.515625 243.929688 155.8125 237.757812 145.761719 C 229.644531 132.550781 218.03125 126.117188 210.59375 123.167969 L 215.722656 95.988281 L 219.519531 101.085938 L 231.3125 116.917969 L 217.871094 121.34375 C 223.941406 124.453125 230.804688 129.21875 236.796875 136.433594 L 250.933594 131.777344 C 250.957031 131.769531 250.984375 131.761719 251.007812 131.753906 C 251.460938 131.601562 251.886719 131.414062 252.300781 131.210938 C 252.398438 131.164062 252.496094 131.117188 252.59375 131.0625 C 253.03125 130.832031 253.449219 130.574219 253.839844 130.285156 C 253.855469 130.273438 253.867188 130.269531 253.882812 130.257812 C 253.949219 130.207031 254.007812 130.152344 254.074219 130.101562 C 254.253906 129.957031 254.4375 129.8125 254.605469 129.660156 C 254.707031 129.570312 254.800781 129.472656 254.898438 129.378906 C 255.035156 129.246094 255.171875 129.113281 255.296875 128.976562 C 255.414062 128.847656 255.523438 128.714844 255.628906 128.585938 C 255.726562 128.46875 255.824219 128.355469 255.914062 128.234375 C 256.03125 128.078125 256.140625 127.917969 256.246094 127.757812 C 256.316406 127.652344 256.390625 127.542969 256.460938 127.433594 C 256.5625 127.265625 256.660156 127.089844 256.753906 126.917969 C 256.8125 126.804688 256.875 126.691406 256.929688 126.574219 C 257.015625 126.402344 257.089844 126.230469 257.160156 126.058594 C 257.21875 125.925781 257.273438 125.796875 257.320312 125.664062 C 257.382812 125.503906 257.433594 125.34375 257.484375 125.179688 C 257.53125 125.023438 257.582031 124.867188 257.625 124.710938 C 257.660156 124.566406 257.691406 124.425781 257.722656 124.28125 C 257.761719 124.101562 257.800781 123.921875 257.828125 123.738281 C 257.851562 123.609375 257.863281 123.476562 257.878906 123.347656 C 257.902344 123.152344 257.925781 122.957031 257.9375 122.761719 C 257.945312 122.628906 257.949219 122.5 257.949219 122.367188 C 257.957031 122.175781 257.957031 121.984375 257.953125 121.792969 C 257.945312 121.640625 257.933594 121.492188 257.921875 121.34375 C 257.910156 121.171875 257.894531 121 257.875 120.828125 C 257.851562 120.644531 257.816406 120.464844 257.78125 120.28125 C 257.753906 120.144531 257.734375 120.007812 257.699219 119.867188 C 257.652344 119.652344 257.589844 119.441406 257.527344 119.230469 C 257.5 119.144531 257.484375 119.054688 257.453125 118.96875 C 257.445312 118.945312 257.433594 118.921875 257.425781 118.898438 C 257.359375 118.695312 257.277344 118.492188 257.191406 118.292969 C 257.144531 118.171875 257.097656 118.050781 257.046875 117.933594 C 256.976562 117.785156 256.898438 117.644531 256.824219 117.496094 C 256.738281 117.332031 256.65625 117.164062 256.5625 117.003906 C 256.507812 116.914062 256.445312 116.824219 256.390625 116.734375 C 256.261719 116.53125 256.128906 116.328125 255.988281 116.136719 C 255.976562 116.121094 255.96875 116.105469 255.957031 116.089844 L 224.625 74.027344 L 220.828125 68.933594 L 223.402344 55.28125 L 225.789062 55.800781 L 227.722656 42.996094 L 239.890625 45.644531 C 239.796875 47.210938 240.097656 48.539062 240.996094 48.734375 C 243.429688 49.261719 245.832031 47.71875 246.359375 45.289062 C 246.890625 42.855469 245.347656 40.457031 242.914062 39.925781 C 242.015625 39.730469 241.1875 40.8125 240.625 42.277344 L 228.238281 39.582031 L 230.042969 27.628906 L 243.191406 30.492188 C 243.09375 32.058594 243.398438 33.386719 244.296875 33.582031 C 246.730469 34.109375 249.128906 32.566406 249.660156 30.136719 C 250.191406 27.703125 248.648438 25.304688 246.214844 24.773438 C 245.316406 24.578125 244.488281 25.660156 243.925781 27.125 L 230.558594 24.214844 L 231.964844 14.886719 L 238.101562 13.082031 L 229.695312 0 L 216.605469 8.40625 L 221.4375 12.59375 L 218.839844 21.667969 L 205.472656 18.757812 C 205.570312 17.191406 205.265625 15.863281 204.367188 15.667969 C 201.933594 15.140625 199.535156 16.679688 199.003906 19.113281 C 198.472656 21.546875 200.015625 23.945312 202.449219 24.476562 C 203.347656 24.671875 204.175781 23.589844 204.738281 22.125 L 217.886719 24.984375 L 214.558594 36.605469 L 202.171875 33.910156 C 202.269531 32.34375 201.96875 31.015625 201.066406 30.820312 C 198.636719 30.292969 196.234375 31.835938 195.703125 34.265625 C 195.175781 36.699219 196.71875 39.097656 199.148438 39.628906 C 200.050781 39.824219 200.875 38.742188 201.441406 37.277344 L 213.609375 39.925781 L 210.042969 52.375 L 212.429688 52.894531 L 209.820312 63.453125 C 208.300781 63.714844 206.816406 64.320312 205.492188 65.304688 C 205.050781 65.632812 204.652344 66 204.28125 66.382812 C 201.710938 69.027344 200.820312 72.828125 201.835938 76.277344 C 202.164062 77.398438 202.679688 78.484375 203.417969 79.472656 Z M 205.253906 81.933594 " fill-opacity="1" fill-rule="nonzero"/><path fill="#000000" d="M 285.941406 225.355469 C 283.097656 226.964844 281.789062 230.03125 283.023438 232.207031 C 284.253906 234.382812 287.558594 234.84375 290.402344 233.238281 C 292.457031 232.074219 293.707031 230.144531 293.773438 228.34375 L 293.777344 228.34375 L 293.777344 228.296875 C 293.777344 228.210938 293.777344 228.128906 293.777344 228.042969 L 293.777344 201.503906 L 267.777344 208.652344 L 267.777344 233.78125 C 266.265625 233.28125 264.339844 233.480469 262.585938 234.472656 C 259.742188 236.082031 258.433594 239.148438 259.664062 241.324219 C 260.898438 243.5 264.199219 243.960938 267.042969 242.355469 C 269.289062 241.082031 270.570312 238.902344 270.40625 236.972656 L 270.40625 219.085938 L 291.148438 213.382812 L 291.148438 224.667969 C 289.636719 224.164062 287.703125 224.363281 285.941406 225.355469 Z M 270.40625 216.359375 L 270.40625 210.652344 L 291.148438 204.953125 L 291.148438 210.660156 Z M 270.40625 216.359375 " fill-opacity="1" fill-rule="nonzero"/><path fill="#000000" d="M 260.773438 253.339844 L 257.191406 272.308594 C 256.152344 271.734375 254.707031 271.613281 253.28125 272.097656 C 250.96875 272.886719 249.582031 274.957031 250.1875 276.726562 C 250.789062 278.496094 253.152344 279.292969 255.464844 278.507812 C 257.292969 277.882812 258.535156 276.460938 258.679688 275.019531 L 261.890625 258.019531 L 268.554688 260.605469 L 269.265625 258.773438 L 269.21875 258.757812 L 269.785156 257.554688 Z M 260.773438 253.339844 " fill-opacity="1" fill-rule="nonzero"/><path fill="#000000" d="M 317.144531 223.769531 L 304.285156 245.984375 C 303.234375 244.800781 301.476562 244.015625 299.472656 243.996094 C 296.226562 243.964844 293.574219 245.953125 293.550781 248.4375 C 293.523438 250.921875 296.136719 252.960938 299.386719 252.992188 C 301.949219 253.019531 304.136719 251.78125 304.957031 250.035156 L 316.484375 230.128906 L 323.699219 236.3125 L 325.398438 234.328125 L 325.351562 234.289062 L 326.585938 233.027344 Z M 317.144531 223.769531 " fill-opacity="1" fill-rule="nonzero"/><path fill="#000000" d="M 242.941406 257.730469 C 241.753906 257.722656 240.425781 258.304688 239.40625 259.414062 C 237.75 261.210938 237.523438 263.691406 238.898438 264.960938 C 240.273438 266.226562 242.730469 265.796875 244.386719 264 C 245.691406 262.582031 246.105469 260.738281 245.542969 259.398438 L 240.238281 242.933594 L 247.328125 242.023438 L 247.078125 240.074219 L 247.03125 240.082031 L 246.949219 238.753906 L 237.019531 239.355469 L 237.984375 242.355469 L 238.304688 243.34375 Z M 242.941406 257.730469 " fill-opacity="1" fill-rule="nonzero"/></svg>