<svg xmlns="http://www.w3.org/2000/svg" xmlns:xlink="http://www.w3.org/1999/xlink" width="500" zoomAndPan="magnify" viewBox="0 0 375 374.999991" height="500" preserveAspectRatio="xMidYMid meet" version="1.0"><defs><clipPath id="5064c8f5bc"><path d="M 298 56 L 333.75 56 L 333.75 88 L 298 88 Z M 298 56 " clip-rule="nonzero"/></clipPath></defs><path fill="#000000" d="M 185.511719 127.367188 L 186.539062 130.414062 L 185.082031 130.90625 L 186.320312 132.074219 L 187.523438 130.273438 C 187.691406 130.519531 187.878906 130.757812 188.105469 130.96875 C 189.367188 132.160156 191.191406 132.375 192.667969 131.660156 C 193.101562 131.453125 193.511719 131.171875 193.859375 130.800781 L 206.449219 117.453125 C 205.929688 116.925781 205.511719 116.332031 205.199219 115.695312 L 192.324219 129.351562 C 191.582031 130.136719 190.339844 130.171875 189.558594 129.433594 C 189.179688 129.078125 188.988281 128.609375 188.957031 128.128906 L 191.054688 124.992188 L 204.417969 110.820312 C 203.410156 111.136719 202.339844 111.214844 201.300781 111.042969 L 187.9375 125.214844 C 187.609375 125.5625 187.371094 125.957031 187.191406 126.367188 C 186.671875 126.765625 186.109375 127.101562 185.511719 127.367188 Z M 185.511719 127.367188 " fill-opacity="1" fill-rule="nonzero"/><path fill="#000000" d="M 220.75 80.140625 C 222.585938 75.558594 221.042969 70.15625 216.769531 67.304688 C 212.457031 64.421875 206.804688 65.097656 203.28125 68.644531 C 209.917969 71.054688 215.90625 75 220.75 80.140625 Z M 220.75 80.140625 " fill-opacity="1" fill-rule="nonzero"/><path fill="#000000" d="M 80.164062 274.300781 L 50.539062 351.199219 C 47.277344 359.660156 51.496094 369.167969 59.960938 372.425781 C 61.902344 373.175781 63.898438 373.53125 65.863281 373.53125 C 72.457031 373.53125 78.679688 369.527344 81.191406 363.007812 L 112.296875 282.261719 C 113.273438 279.734375 113.605469 277.007812 113.269531 274.320312 L 111.960938 263.847656 L 73.710938 222.679688 Z M 80.164062 274.300781 " fill-opacity="1" fill-rule="nonzero"/><path fill="#000000" d="M 72.804688 182.019531 C 72.164062 183.15625 71.53125 184.285156 70.84375 185.460938 C 69.273438 188.140625 68.113281 190.667969 67.292969 193.0625 C 63.511719 204.0625 67.179688 212.078125 74.082031 217.527344 L 124.90625 272.230469 L 140.847656 361.363281 C 142.269531 369.3125 149.191406 374.898438 156.996094 374.894531 C 157.953125 374.894531 158.929688 374.8125 159.90625 374.636719 C 168.835938 373.039062 174.78125 364.507812 173.183594 355.578125 L 156.386719 261.695312 C 155.832031 258.59375 154.398438 255.714844 152.253906 253.40625 L 121.425781 220.230469 C 121.433594 214.394531 121.140625 205.476562 122.285156 193.851562 C 122.691406 189.691406 123.28125 185.191406 124.140625 180.347656 Z M 72.804688 182.019531 " fill-opacity="1" fill-rule="nonzero"/><path fill="#000000" d="M 110.40625 94.675781 C 113.460938 94.675781 116.382812 95.625 118.863281 97.414062 C 125.320312 102.082031 126.78125 111.132812 122.117188 117.59375 L 97.042969 152.308594 L 119.808594 151.570312 C 117.765625 142.347656 116.644531 132.761719 119.511719 128.949219 C 120.339844 127.847656 121.367188 127.085938 122.550781 126.6875 C 126.785156 125.257812 129.867188 128.679688 133.425781 132.640625 C 135.945312 135.441406 138.933594 138.753906 142.664062 141.230469 C 146.613281 141.132812 149.582031 139.714844 151.703125 137.527344 C 149.117188 134 147.023438 130.082031 145.53125 125.828125 C 141.851562 115.355469 142.296875 104.417969 146.007812 94.789062 L 131.351562 83.355469 C 130.585938 82.757812 129.757812 82.292969 128.902344 81.933594 C 115.570312 74.5625 98.390625 78.199219 90.164062 98.273438 C 87.710938 104.25 87.652344 109.5625 88.082031 115.347656 L 98.683594 100.667969 C 101.390625 96.917969 105.777344 94.675781 110.40625 94.675781 Z M 110.40625 94.675781 " fill-opacity="1" fill-rule="nonzero"/><path fill="#000000" d="M 127.253906 176.46875 C 126.414062 174.277344 125.898438 172.820312 125.800781 172.542969 C 125.566406 171.871094 122.886719 164.179688 120.6875 155.320312 L 89.476562 156.335938 L 119.054688 115.382812 C 122.503906 110.601562 121.429688 103.929688 116.648438 100.476562 C 111.867188 97.023438 105.195312 98.101562 101.746094 102.882812 L 59.4375 161.460938 C 57.050781 164.761719 56.753906 169.132812 58.664062 172.726562 C 60.523438 176.21875 64.152344 178.386719 68.089844 178.386719 C 68.203125 178.386719 68.320312 178.386719 68.4375 178.382812 Z M 127.253906 176.46875 " fill-opacity="1" fill-rule="nonzero"/><path fill="#000000" d="M 89.019531 29.566406 C 76.695312 32.511719 62.886719 40.957031 64.128906 68.957031 C 65.351562 96.476562 56.15625 101.042969 48.699219 100.867188 C 41.242188 100.691406 59.730469 114.5 76.691406 96.039062 C 89.757812 81.816406 79.839844 51.507812 89.226562 42.460938 C 88.8125 40.175781 88.582031 37.824219 88.582031 35.417969 C 88.582031 33.429688 88.730469 31.476562 89.019531 29.566406 Z M 89.019531 29.566406 " fill-opacity="1" fill-rule="nonzero"/><path fill="#000000" d="M 129.847656 171.121094 C 133.730469 182.179688 143.683594 204.921875 149.222656 206.339844 C 154.761719 207.753906 149.855469 192.589844 156.472656 180.332031 C 162.472656 169.222656 195.015625 152.492188 201.074219 149.449219 C 201.207031 149.402344 201.339844 149.367188 201.46875 149.320312 C 207.796875 147.097656 213.230469 143.460938 217.539062 138.886719 C 227.660156 128.15625 231.597656 112.273438 226.378906 97.421875 C 220.152344 79.703125 202.832031 68.992188 184.933594 70.328125 L 161.308594 55.292969 C 160.585938 56.507812 159.808594 57.6875 158.964844 58.8125 L 178.597656 71.308594 C 177.21875 71.632812 175.847656 72.03125 174.484375 72.511719 C 153.308594 79.953125 142.132812 103.234375 149.574219 124.410156 C 153.421875 135.363281 161.515625 143.632812 171.359375 148.042969 C 160.871094 149.210938 150.257812 149.5625 144.863281 147.28125 C 132.03125 141.855469 126.375 126.957031 122.9375 131.527344 C 119.5 136.097656 125.960938 160.066406 129.847656 171.121094 Z M 183.4375 144.960938 C 181.625 144.71875 179.839844 144.332031 178.101562 143.808594 C 179.386719 141.53125 179.019531 138.589844 177.035156 136.71875 L 170.753906 130.792969 C 168.421875 128.59375 164.734375 128.703125 162.535156 131.035156 C 162.054688 131.542969 161.6875 132.121094 161.429688 132.730469 C 160.96875 132.175781 160.535156 131.597656 160.109375 131.007812 C 159.6875 129.152344 160.164062 127.125 161.566406 125.640625 C 163.796875 123.273438 167.542969 123.164062 169.910156 125.394531 L 182.601562 137.363281 C 184.734375 139.375 185.027344 142.609375 183.4375 144.960938 Z M 213.84375 88.351562 L 214.035156 88.53125 C 216.746094 91.683594 218.9375 95.371094 220.394531 99.527344 C 220.425781 99.609375 220.449219 99.699219 220.476562 99.785156 C 220.363281 99.960938 220.234375 100.128906 220.09375 100.289062 C 219.542969 100.230469 219.007812 100.003906 218.578125 99.597656 L 211.398438 92.828125 C 210.339844 91.828125 210.289062 90.152344 211.289062 89.089844 C 211.964844 88.375 212.949219 88.132812 213.84375 88.351562 Z M 211.753906 86.378906 C 211.011719 86.617188 210.320312 87.039062 209.75 87.640625 C 207.953125 89.550781 208.039062 92.566406 209.949219 94.367188 L 217.128906 101.136719 C 217.355469 101.351562 217.597656 101.535156 217.855469 101.699219 C 216.363281 102.105469 214.703125 101.753906 213.496094 100.621094 L 197.601562 85.628906 C 195.761719 83.894531 195.675781 80.992188 197.410156 79.152344 C 197.761719 78.78125 198.160156 78.484375 198.589844 78.253906 C 202.285156 79.460938 205.761719 81.285156 208.859375 83.648438 Z M 168.621094 82.535156 C 168.796875 82.835938 169.003906 83.125 169.269531 83.375 L 186.878906 99.980469 L 185.457031 101.488281 L 167.847656 84.882812 C 167.460938 84.515625 167.011719 84.25 166.539062 84.078125 C 167.210938 83.539062 167.902344 83.027344 168.621094 82.535156 Z M 188.394531 107.160156 L 186.097656 109.597656 L 183.25 106.914062 L 185.546875 104.476562 Z M 186.996094 102.9375 L 188.417969 101.433594 L 191.265625 104.117188 L 189.84375 105.621094 Z M 164.03125 86.488281 C 164.664062 85.816406 165.726562 85.785156 166.398438 86.417969 L 184.007812 103.027344 L 181.710938 105.460938 L 164.101562 88.855469 C 163.429688 88.222656 163.398438 87.160156 164.03125 86.488281 Z M 163.589844 113.136719 C 160.414062 110.144531 160.265625 105.121094 163.261719 101.945312 C 166.257812 98.769531 171.277344 98.625 174.453125 101.617188 L 174.5 101.570312 L 180.261719 107 L 174.78125 112.808594 C 171.785156 115.984375 166.765625 116.132812 163.589844 113.136719 Z M 161.671875 88.832031 C 161.863281 89.40625 162.179688 89.949219 162.648438 90.394531 L 170.101562 97.421875 C 167.085938 97.097656 163.960938 98.125 161.722656 100.496094 C 157.925781 104.519531 158.113281 110.882812 162.140625 114.675781 C 166.164062 118.472656 172.523438 118.285156 176.320312 114.261719 L 181.796875 108.449219 L 184.644531 111.136719 L 179.167969 116.945312 C 177.625 118.578125 177.703125 121.160156 179.335938 122.699219 C 180.96875 124.238281 183.550781 124.164062 185.089844 122.53125 L 197.679688 109.183594 C 197.152344 108.660156 196.734375 108.070312 196.417969 107.4375 L 183.550781 121.082031 C 182.8125 121.867188 181.570312 121.902344 180.785156 121.160156 C 180 120.421875 179.964844 119.179688 180.707031 118.394531 L 186.46875 112.285156 C 187.796875 112.683594 189.296875 112.347656 190.3125 111.273438 C 191.328125 110.195312 191.574219 108.679688 191.097656 107.375 L 193.085938 105.265625 C 193.960938 105.527344 194.90625 105.476562 195.742188 105.097656 C 195.652344 104.183594 195.75 103.25 196.039062 102.367188 C 193.703125 103.28125 190.945312 102.84375 189 101.011719 C 187.878906 99.953125 187.210938 98.597656 186.988281 97.179688 L 184.144531 94.496094 C 182.714844 94.359375 181.320312 93.769531 180.195312 92.710938 C 179.074219 91.652344 178.40625 90.292969 178.183594 88.875 L 170.71875 81.835938 C 170.582031 81.707031 170.480469 81.558594 170.398438 81.402344 C 171.375 80.820312 172.390625 80.285156 173.4375 79.796875 L 178.800781 84.851562 C 179.085938 84.277344 179.457031 83.734375 179.917969 83.246094 C 179.960938 83.203125 180.003906 83.164062 180.046875 83.125 L 175.5625 78.894531 C 175.902344 78.761719 176.238281 78.621094 176.585938 78.5 C 183.082031 76.214844 189.808594 76.019531 196.046875 77.535156 C 195.988281 77.589844 195.929688 77.644531 195.871094 77.703125 C 193.339844 80.386719 193.464844 84.636719 196.148438 87.167969 L 212.046875 102.160156 C 214.546875 104.515625 218.402344 104.566406 220.964844 102.394531 C 221.058594 102.382812 221.152344 102.367188 221.242188 102.347656 C 225.492188 118.792969 216.976562 136.054688 201.210938 142.621094 C 200.207031 142.542969 199.222656 142.136719 198.4375 141.394531 C 196.601562 139.667969 196.519531 136.769531 198.246094 134.9375 L 213.136719 119.144531 C 212.136719 119.445312 211.078125 119.511719 210.050781 119.335938 L 196.707031 133.488281 C 194.179688 136.167969 194.304688 140.40625 196.984375 142.933594 C 197.292969 143.222656 197.621094 143.472656 197.964844 143.695312 C 196.253906 144.050781 193.578125 144.589844 190.296875 145.191406 C 188.769531 145.296875 187.25 145.300781 185.742188 145.203125 C 187.253906 142.128906 186.671875 138.296875 184.050781 135.824219 L 171.359375 123.855469 C 168.144531 120.824219 163.058594 120.972656 160.027344 124.191406 C 159.03125 125.246094 158.382812 126.503906 158.070312 127.824219 C 157.089844 126.089844 156.242188 124.25 155.558594 122.308594 C 151.394531 110.457031 154.144531 97.832031 161.671875 88.832031 Z M 163.101562 134.605469 C 163.1875 133.835938 163.503906 133.089844 164.074219 132.484375 C 165.472656 131 167.820312 130.933594 169.304688 132.332031 L 175.585938 138.253906 C 176.953125 139.546875 177.101562 141.628906 176.027344 143.113281 C 171.164062 141.304688 166.730469 138.402344 163.101562 134.605469 Z M 163.101562 134.605469 " fill-opacity="1" fill-rule="nonzero"/><path fill="#000000" d="M 188.507812 91.34375 C 190.445312 89.292969 190.351562 86.058594 188.296875 84.121094 C 186.242188 82.1875 183.007812 82.28125 181.074219 84.332031 C 179.136719 86.386719 179.230469 89.621094 181.285156 91.558594 C 183.339844 93.492188 186.574219 93.398438 188.507812 91.34375 Z M 186.203125 89.167969 C 185.46875 89.945312 184.238281 89.984375 183.460938 89.25 C 182.683594 88.515625 182.648438 87.285156 183.378906 86.507812 C 184.113281 85.730469 185.34375 85.695312 186.121094 86.429688 C 186.898438 87.164062 186.933594 88.390625 186.203125 89.167969 Z M 186.203125 89.167969 " fill-opacity="1" fill-rule="nonzero"/><path fill="#000000" d="M 197.101562 92.421875 C 195.046875 90.488281 191.8125 90.582031 189.875 92.636719 C 187.941406 94.6875 188.035156 97.921875 190.089844 99.859375 C 192.140625 101.792969 195.375 101.699219 197.3125 99.648438 C 199.25 97.59375 199.152344 94.359375 197.101562 92.421875 Z M 192.183594 94.8125 C 192.917969 94.03125 194.144531 93.996094 194.925781 94.730469 C 195.703125 95.464844 195.738281 96.691406 195.003906 97.472656 C 194.273438 98.25 193.042969 98.285156 192.265625 97.550781 C 191.488281 96.816406 191.449219 95.589844 192.183594 94.8125 Z M 192.183594 94.8125 " fill-opacity="1" fill-rule="nonzero"/><path fill="#000000" d="M 206.113281 107.949219 C 208.050781 105.894531 207.957031 102.660156 205.902344 100.722656 C 203.851562 98.789062 200.617188 98.882812 198.679688 100.9375 C 196.742188 102.988281 196.839844 106.222656 198.890625 108.160156 C 200.945312 110.097656 204.179688 110 206.113281 107.949219 Z M 203.726562 103.03125 C 204.503906 103.765625 204.542969 104.992188 203.808594 105.773438 C 203.074219 106.550781 201.84375 106.585938 201.066406 105.851562 C 200.289062 105.117188 200.253906 103.890625 200.988281 103.113281 C 201.71875 102.335938 202.949219 102.296875 203.726562 103.03125 Z M 203.726562 103.03125 " fill-opacity="1" fill-rule="nonzero"/><path fill="#000000" d="M 214.707031 109.027344 C 212.652344 107.089844 209.417969 107.183594 207.484375 109.238281 C 205.546875 111.289062 205.640625 114.523438 207.695312 116.460938 C 209.75 118.398438 212.980469 118.304688 214.917969 116.25 C 216.855469 114.195312 216.757812 110.960938 214.707031 109.027344 Z M 209.789062 111.414062 C 210.523438 110.636719 211.753906 110.601562 212.53125 111.332031 C 213.308594 112.066406 213.34375 113.296875 212.609375 114.074219 C 211.878906 114.851562 210.648438 114.886719 209.871094 114.152344 C 209.09375 113.417969 209.058594 112.191406 209.789062 111.414062 Z M 209.789062 111.414062 " fill-opacity="1" fill-rule="nonzero"/><path fill="#000000" d="M 162.976562 35.417969 C 162.976562 36.574219 162.921875 37.730469 162.808594 38.878906 C 162.695312 40.03125 162.527344 41.175781 162.300781 42.308594 C 162.074219 43.441406 161.792969 44.5625 161.457031 45.667969 C 161.121094 46.777344 160.734375 47.863281 160.289062 48.933594 C 159.847656 50 159.355469 51.046875 158.808594 52.066406 C 158.265625 53.085938 157.667969 54.074219 157.027344 55.035156 C 156.386719 56 155.695312 56.925781 154.964844 57.820312 C 154.230469 58.714844 153.453125 59.570312 152.636719 60.386719 C 151.820312 61.207031 150.960938 61.980469 150.070312 62.714844 C 149.175781 63.449219 148.246094 64.136719 147.285156 64.777344 C 146.324219 65.421875 145.332031 66.015625 144.3125 66.558594 C 143.292969 67.105469 142.25 67.597656 141.179688 68.042969 C 140.113281 68.484375 139.023438 68.875 137.917969 69.210938 C 136.8125 69.546875 135.691406 69.824219 134.558594 70.050781 C 133.421875 70.277344 132.28125 70.445312 131.128906 70.558594 C 129.976562 70.671875 128.824219 70.730469 127.667969 70.730469 C 126.511719 70.730469 125.359375 70.671875 124.207031 70.558594 C 123.054688 70.445312 121.914062 70.277344 120.78125 70.050781 C 119.644531 69.824219 118.523438 69.546875 117.417969 69.210938 C 116.3125 68.875 115.222656 68.484375 114.15625 68.042969 C 113.085938 67.597656 112.042969 67.105469 111.023438 66.558594 C 110.003906 66.015625 109.011719 65.421875 108.050781 64.777344 C 107.089844 64.136719 106.160156 63.449219 105.265625 62.714844 C 104.375 61.980469 103.519531 61.207031 102.699219 60.386719 C 101.882812 59.570312 101.105469 58.714844 100.371094 57.820312 C 99.640625 56.925781 98.953125 56 98.308594 55.035156 C 97.667969 54.074219 97.074219 53.085938 96.527344 52.066406 C 95.980469 51.046875 95.488281 50 95.046875 48.933594 C 94.601562 47.863281 94.214844 46.777344 93.878906 45.667969 C 93.542969 44.5625 93.261719 43.441406 93.035156 42.308594 C 92.8125 41.175781 92.640625 40.03125 92.527344 38.878906 C 92.414062 37.730469 92.359375 36.574219 92.359375 35.417969 C 92.359375 34.261719 92.414062 33.109375 92.527344 31.957031 C 92.640625 30.808594 92.8125 29.664062 93.035156 28.53125 C 93.261719 27.398438 93.542969 26.277344 93.878906 25.167969 C 94.214844 24.0625 94.601562 22.976562 95.046875 21.90625 C 95.488281 20.839844 95.980469 19.792969 96.527344 18.773438 C 97.074219 17.753906 97.667969 16.765625 98.308594 15.800781 C 98.953125 14.839844 99.640625 13.914062 100.371094 13.019531 C 101.105469 12.125 101.882812 11.269531 102.699219 10.453125 C 103.519531 9.632812 104.375 8.859375 105.265625 8.125 C 106.160156 7.390625 107.089844 6.703125 108.050781 6.058594 C 109.011719 5.417969 110.003906 4.824219 111.023438 4.277344 C 112.042969 3.734375 113.085938 3.238281 114.15625 2.796875 C 115.222656 2.355469 116.3125 1.964844 117.417969 1.628906 C 118.523438 1.292969 119.644531 1.011719 120.78125 0.789062 C 121.914062 0.5625 123.054688 0.394531 124.207031 0.28125 C 125.359375 0.167969 126.511719 0.109375 127.667969 0.109375 C 128.824219 0.109375 129.976562 0.167969 131.128906 0.28125 C 132.28125 0.394531 133.421875 0.5625 134.558594 0.789062 C 135.691406 1.011719 136.8125 1.292969 137.917969 1.628906 C 139.023438 1.964844 140.113281 2.355469 141.179688 2.796875 C 142.25 3.238281 143.292969 3.734375 144.3125 4.277344 C 145.332031 4.824219 146.324219 5.417969 147.285156 6.058594 C 148.246094 6.703125 149.175781 7.390625 150.070312 8.125 C 150.960938 8.859375 151.820312 9.632812 152.636719 10.453125 C 153.453125 11.269531 154.230469 12.125 154.964844 13.019531 C 155.695312 13.914062 156.386719 14.839844 157.027344 15.800781 C 157.667969 16.765625 158.265625 17.753906 158.808594 18.773438 C 159.355469 19.792969 159.847656 20.839844 160.289062 21.90625 C 160.734375 22.976562 161.121094 24.0625 161.457031 25.167969 C 161.792969 26.277344 162.074219 27.398438 162.300781 28.53125 C 162.527344 29.664062 162.695312 30.808594 162.808594 31.957031 C 162.921875 33.109375 162.976562 34.261719 162.976562 35.417969 Z M 162.976562 35.417969 " fill-opacity="1" fill-rule="nonzero"/><path fill="#000000" d="M 290.867188 58.378906 C 287.871094 60.074219 286.492188 63.308594 287.789062 65.601562 C 289.085938 67.894531 292.570312 68.382812 295.566406 66.6875 C 297.734375 65.457031 299.046875 63.425781 299.121094 61.527344 L 299.121094 61.480469 C 299.125 61.390625 299.125 61.300781 299.121094 61.214844 L 299.121094 33.234375 L 271.722656 40.769531 L 271.722656 67.261719 C 270.132812 66.734375 268.101562 66.945312 266.253906 67.992188 C 263.253906 69.6875 261.878906 72.917969 263.175781 75.214844 C 264.472656 77.507812 267.953125 77.992188 270.953125 76.296875 C 273.320312 74.957031 274.667969 72.660156 274.496094 70.621094 L 274.496094 51.769531 L 296.351562 45.757812 L 296.351562 57.652344 C 294.757812 57.121094 292.722656 57.332031 290.867188 58.378906 Z M 274.496094 48.894531 L 274.496094 42.878906 L 296.351562 36.871094 L 296.351562 42.886719 Z M 274.496094 48.894531 " fill-opacity="1" fill-rule="nonzero"/><path fill="#000000" d="M 264.34375 87.878906 L 260.570312 107.875 C 259.472656 107.269531 257.953125 107.140625 256.449219 107.652344 C 254.011719 108.484375 252.550781 110.667969 253.1875 112.53125 C 253.824219 114.398438 256.3125 115.238281 258.75 114.40625 C 260.675781 113.75 261.984375 112.25 262.140625 110.730469 L 265.519531 92.808594 L 272.542969 95.539062 L 273.292969 93.605469 L 273.246094 93.589844 L 273.839844 92.320312 Z M 264.34375 87.878906 " fill-opacity="1" fill-rule="nonzero"/><g clip-path="url(#5064c8f5bc)"><path fill="#000000" d="M 323.75 56.707031 L 310.195312 80.125 C 309.089844 78.878906 307.238281 78.046875 305.125 78.027344 C 301.703125 77.992188 298.910156 80.089844 298.882812 82.710938 C 298.859375 85.328125 301.613281 87.480469 305.035156 87.511719 C 307.738281 87.539062 310.042969 86.234375 310.90625 84.394531 L 323.050781 63.410156 L 330.65625 69.929688 L 332.445312 67.835938 L 332.394531 67.792969 L 333.699219 66.464844 Z M 323.75 56.707031 " fill-opacity="1" fill-rule="nonzero"/></g><path fill="#000000" d="M 249.910156 73.894531 L 249.859375 73.902344 L 249.777344 72.503906 L 239.3125 73.136719 L 245.550781 92.507812 C 244.300781 92.496094 242.902344 93.113281 241.824219 94.28125 C 240.082031 96.175781 239.84375 98.792969 241.292969 100.125 C 242.742188 101.460938 245.328125 101.007812 247.074219 99.117188 C 248.453125 97.621094 248.886719 95.675781 248.292969 94.265625 L 242.703125 76.90625 L 250.175781 75.949219 Z M 249.910156 73.894531 " fill-opacity="1" fill-rule="nonzero"/></svg>