<svg xmlns="http://www.w3.org/2000/svg" xmlns:xlink="http://www.w3.org/1999/xlink" width="500" zoomAndPan="magnify" viewBox="0 0 375 374.999991" height="500" preserveAspectRatio="xMidYMid meet" version="1.0"><path fill="#000000" d="M 192.089844 73.1875 C 190.878906 74.25 189.597656 75.230469 188.265625 76.132812 L 196.558594 85.960938 L 200.417969 82.648438 Z M 192.089844 73.1875 " fill-opacity="1" fill-rule="nonzero"/><path fill="#000000" d="M 298.199219 206.445312 C 297.816406 207.433594 297.808594 208.316406 298.285156 208.871094 C 299.296875 210.042969 307.972656 202.585938 306.960938 201.410156 C 306.484375 200.855469 305.609375 200.734375 304.574219 200.964844 L 284.339844 177.976562 L 278.453125 183.039062 Z M 298.199219 206.445312 " fill-opacity="1" fill-rule="nonzero"/><path fill="#000000" d="M 261.75 148.960938 L 260.066406 150.40625 L 256.707031 146.589844 C 255.128906 148.242188 253.132812 149.53125 250.816406 150.277344 L 276.707031 180.96875 L 282.550781 175.945312 L 271.871094 163.816406 L 273.621094 162.3125 L 281.699219 171.394531 L 283.277344 169.996094 L 259.226562 142.949219 C 258.902344 143.617188 258.527344 144.257812 258.105469 144.863281 Z M 269.484375 161.105469 L 262.457031 153.117188 L 264.152344 151.660156 L 271.222656 159.609375 Z M 269.484375 161.105469 " fill-opacity="1" fill-rule="nonzero"/><path fill="#000000" d="M 281.046875 89.4375 C 282.917969 88.378906 283.988281 86.5625 283.851562 84.953125 L 283.851562 70.046875 L 301.152344 65.292969 L 301.152344 74.699219 C 299.890625 74.277344 298.277344 74.441406 296.808594 75.273438 C 294.4375 76.613281 293.347656 79.167969 294.375 80.980469 C 295.402344 82.796875 298.15625 83.179688 300.527344 81.839844 C 302.246094 80.867188 303.285156 79.261719 303.34375 77.761719 L 303.34375 77.722656 C 303.347656 77.652344 303.347656 77.582031 303.34375 77.511719 L 303.34375 55.390625 L 281.65625 61.347656 L 281.65625 82.292969 C 280.398438 81.875 278.789062 82.042969 277.328125 82.871094 C 274.953125 84.210938 273.863281 86.765625 274.890625 88.582031 C 275.917969 90.394531 278.675781 90.777344 281.046875 89.4375 Z M 283.851562 63.019531 L 301.152344 58.265625 L 301.152344 63.023438 L 283.851562 67.773438 Z M 283.851562 63.019531 " fill-opacity="1" fill-rule="nonzero"/><path fill="#000000" d="M 255.015625 101.40625 C 256.90625 100.761719 258.195312 99.289062 258.347656 97.792969 L 261.675781 80.1875 L 268.582031 82.867188 L 269.320312 80.972656 L 269.273438 80.953125 L 269.859375 79.707031 L 260.519531 75.34375 L 256.804688 94.988281 C 255.726562 94.394531 254.230469 94.269531 252.75 94.769531 C 250.355469 95.585938 248.917969 97.734375 249.542969 99.566406 C 250.167969 101.398438 252.617188 102.222656 255.015625 101.40625 Z M 255.015625 101.40625 " fill-opacity="1" fill-rule="nonzero"/><path fill="#000000" d="M 236.9375 91.53125 C 235.585938 92.992188 235.402344 95.015625 236.523438 96.050781 C 237.644531 97.082031 239.648438 96.730469 241 95.265625 C 242.066406 94.109375 242.402344 92.609375 241.945312 91.519531 L 237.617188 78.097656 L 243.398438 77.355469 L 243.195312 75.769531 L 243.15625 75.773438 L 243.089844 74.691406 L 234.992188 75.183594 L 239.820312 90.160156 C 238.851562 90.152344 237.769531 90.625 236.9375 91.53125 Z M 236.9375 91.53125 " fill-opacity="1" fill-rule="nonzero"/><path fill="#000000" d="M 78.589844 371.972656 C 80.878906 373.09375 83.304688 373.625 85.695312 373.625 C 91.664062 373.625 97.402344 370.308594 100.210938 364.597656 L 137.433594 288.839844 C 139.011719 285.628906 139.476562 281.984375 138.757812 278.480469 L 136.726562 268.621094 L 95.167969 226.933594 L 105.996094 279.574219 L 71.203125 350.378906 C 67.273438 358.378906 70.582031 368.046875 78.589844 371.972656 Z M 78.589844 371.972656 " fill-opacity="1" fill-rule="nonzero"/><path fill="#000000" d="M 94.109375 220.609375 L 150.886719 277.566406 L 170.136719 362.398438 C 171.835938 369.890625 178.496094 374.972656 185.875 374.972656 C 187.058594 374.972656 188.261719 374.839844 189.460938 374.566406 C 198.164062 372.597656 203.617188 363.957031 201.648438 355.265625 L 181.371094 265.90625 C 180.699219 262.945312 179.207031 260.234375 177.0625 258.085938 L 140.355469 221.261719 C 140.316406 214.71875 140.140625 204.953125 141.730469 192.382812 C 143.21875 180.617188 146.257812 166.386719 152.417969 150.003906 L 126.59375 126.644531 C 120.785156 121.390625 120.335938 112.394531 125.597656 106.589844 C 128.289062 103.621094 132.132812 101.921875 136.140625 101.921875 C 139.675781 101.921875 143.0625 103.226562 145.683594 105.597656 L 184.878906 141.054688 L 197.066406 137.261719 L 222.851562 117.132812 L 230.945312 126.722656 L 237.4375 124.703125 L 236.855469 124.042969 L 238.402344 122.710938 L 239.582031 124.035156 L 241.792969 123.347656 L 229.777344 109.839844 C 231.070312 106.511719 230.636719 102.605469 228.273438 99.585938 C 224.734375 95.066406 218.226562 94.238281 213.660156 97.691406 L 202.207031 84.679688 L 198.308594 88.035156 L 209.3125 101.078125 L 179.207031 124.585938 L 152.296875 90.707031 C 151.625 89.859375 150.847656 89.144531 150 88.5625 C 149.996094 88.550781 149.996094 88.539062 149.996094 88.523438 C 136.628906 79.519531 118.175781 82.300781 109.605469 103.1875 C 101.6875 122.484375 119.136719 134.691406 95.632812 179.773438 C 94.128906 182.664062 92.460938 185.679688 90.601562 188.847656 C 81.839844 203.785156 85.617188 214.101562 94.109375 220.609375 Z M 236.003906 120.011719 L 234.46875 121.328125 L 227.480469 113.390625 C 227.957031 112.910156 228.378906 112.394531 228.742188 111.847656 Z M 236.003906 120.011719 " fill-opacity="1" fill-rule="nonzero"/><path fill="#000000" d="M 183.957031 145.226562 L 143.1875 108.347656 C 138.890625 104.457031 132.246094 104.789062 128.351562 109.082031 C 124.460938 113.375 124.789062 120.007812 129.089844 123.894531 L 174.304688 164.796875 C 176.265625 166.570312 178.785156 167.511719 181.355469 167.511719 C 182.398438 167.511719 183.453125 167.355469 184.476562 167.039062 L 249.570312 146.785156 C 255.109375 145.0625 258.199219 139.183594 256.476562 133.652344 C 254.75 128.121094 248.859375 125.035156 243.328125 126.757812 Z M 183.957031 145.226562 " fill-opacity="1" fill-rule="nonzero"/><path fill="#000000" d="M 129.105469 36.292969 C 129.519531 34.382812 130.066406 32.535156 130.742188 30.761719 C 118.277344 31.039062 103.25 36.292969 98.644531 63.445312 C 94.117188 90.125 84.332031 92.609375 77.195312 90.898438 C 70.058594 89.1875 84.976562 106.273438 105.113281 92.054688 C 120.632812 81.09375 117.355469 49.890625 128.269531 43.160156 C 128.34375 40.886719 128.609375 38.589844 129.105469 36.292969 Z M 129.105469 36.292969 " fill-opacity="1" fill-rule="nonzero"/><path fill="#000000" d="M 178.363281 11.707031 C 179.433594 12.089844 180.484375 12.523438 181.511719 13.007812 C 182.542969 13.492188 183.542969 14.027344 184.519531 14.613281 C 185.496094 15.195312 186.441406 15.824219 187.355469 16.5 C 188.269531 17.175781 189.148438 17.894531 189.992188 18.65625 C 190.835938 19.421875 191.640625 20.222656 192.40625 21.0625 C 193.167969 21.90625 193.890625 22.78125 194.570312 23.691406 C 195.25 24.605469 195.878906 25.546875 196.464844 26.523438 C 197.050781 27.496094 197.585938 28.496094 198.074219 29.523438 C 198.5625 30.550781 198.996094 31.597656 199.382812 32.667969 C 199.765625 33.738281 200.097656 34.824219 200.375 35.925781 C 200.652344 37.027344 200.875 38.140625 201.042969 39.261719 C 201.210938 40.386719 201.324219 41.515625 201.378906 42.652344 C 201.4375 43.785156 201.4375 44.921875 201.382812 46.054688 C 201.328125 47.191406 201.214844 48.320312 201.050781 49.445312 C 200.886719 50.570312 200.664062 51.683594 200.386719 52.785156 C 200.113281 53.886719 199.785156 54.972656 199.402344 56.042969 C 199.019531 57.113281 198.585938 58.160156 198.101562 59.1875 C 197.613281 60.21875 197.078125 61.21875 196.496094 62.191406 C 195.910156 63.167969 195.28125 64.113281 194.605469 65.027344 C 193.929688 65.9375 193.207031 66.816406 192.445312 67.660156 C 191.679688 68.5 190.878906 69.304688 190.035156 70.070312 C 189.195312 70.832031 188.316406 71.554688 187.402344 72.230469 C 186.492188 72.910156 185.546875 73.539062 184.570312 74.125 C 183.597656 74.710938 182.59375 75.246094 181.566406 75.730469 C 180.539062 76.21875 179.488281 76.652344 178.417969 77.039062 C 177.347656 77.421875 176.261719 77.75 175.15625 78.027344 C 174.054688 78.304688 172.941406 78.527344 171.816406 78.695312 C 170.691406 78.863281 169.558594 78.976562 168.421875 79.03125 C 167.285156 79.089844 166.152344 79.089844 165.015625 79.035156 C 163.878906 78.980469 162.746094 78.871094 161.621094 78.703125 C 160.496094 78.539062 159.382812 78.316406 158.277344 78.042969 C 157.175781 77.769531 156.085938 77.4375 155.015625 77.058594 C 153.945312 76.675781 152.894531 76.242188 151.867188 75.757812 C 150.835938 75.273438 149.835938 74.738281 148.859375 74.15625 C 147.882812 73.570312 146.9375 72.941406 146.023438 72.265625 C 145.109375 71.589844 144.230469 70.871094 143.386719 70.109375 C 142.542969 69.347656 141.738281 68.542969 140.972656 67.703125 C 140.210938 66.863281 139.488281 65.984375 138.808594 65.074219 C 138.132812 64.160156 137.5 63.21875 136.914062 62.242188 C 136.328125 61.269531 135.792969 60.269531 135.304688 59.242188 C 134.816406 58.214844 134.382812 57.167969 133.996094 56.097656 C 133.613281 55.027344 133.28125 53.941406 133.003906 52.839844 C 132.726562 51.738281 132.503906 50.625 132.335938 49.503906 C 132.167969 48.378906 132.058594 47.25 132 46.113281 C 131.941406 44.980469 131.941406 43.84375 131.996094 42.710938 C 132.050781 41.574219 132.164062 40.445312 132.328125 39.320312 C 132.496094 38.199219 132.714844 37.085938 132.992188 35.980469 C 133.265625 34.878906 133.59375 33.792969 133.976562 32.722656 C 134.359375 31.652344 134.792969 30.605469 135.277344 29.578125 C 135.765625 28.550781 136.300781 27.546875 136.882812 26.574219 C 137.46875 25.597656 138.097656 24.652344 138.773438 23.742188 C 139.449219 22.828125 140.171875 21.949219 140.933594 21.105469 C 141.699219 20.265625 142.5 19.460938 143.34375 18.699219 C 144.183594 17.933594 145.0625 17.214844 145.976562 16.535156 C 146.886719 15.859375 147.832031 15.226562 148.808594 14.640625 C 149.785156 14.054688 150.785156 13.519531 151.8125 13.035156 C 152.839844 12.546875 153.890625 12.113281 154.960938 11.730469 C 156.03125 11.34375 157.117188 11.015625 158.222656 10.738281 C 159.324219 10.460938 160.4375 10.238281 161.5625 10.070312 C 162.6875 9.902344 163.820312 9.789062 164.957031 9.734375 C 166.09375 9.675781 167.226562 9.675781 168.363281 9.730469 C 169.5 9.785156 170.632812 9.894531 171.757812 10.0625 C 172.882812 10.226562 173.996094 10.449219 175.101562 10.722656 C 176.203125 11 177.292969 11.328125 178.363281 11.707031 Z M 178.363281 11.707031 " fill-opacity="1" fill-rule="nonzero"/></svg>