<svg xmlns="http://www.w3.org/2000/svg" xmlns:xlink="http://www.w3.org/1999/xlink" width="343" zoomAndPan="magnify" viewBox="0 0 257.25 149.999998" height="200" preserveAspectRatio="xMidYMid meet" version="1.0"><defs><clipPath id="3d3494965b"><path d="M 153 74 L 256.316406 74 L 256.316406 149.78125 L 153 149.78125 Z M 153 74 " clip-rule="nonzero"/></clipPath><clipPath id="fe81e2e5b2"><path d="M 138.160156 7 L 233 7 L 233 133 L 138.160156 133 Z M 138.160156 7 " clip-rule="nonzero"/></clipPath><clipPath id="f9605e3327"><path d="M 205 0.21875 L 219 0.21875 L 219 17 L 205 17 Z M 205 0.21875 " clip-rule="nonzero"/></clipPath><clipPath id="554195a054"><path d="M 6 16 L 109 16 L 109 149.78125 L 6 149.78125 Z M 6 16 " clip-rule="nonzero"/></clipPath><clipPath id="fc878fecf1"><path d="M 134 63 L 140.589844 63 L 140.589844 73 L 134 73 Z M 134 63 " clip-rule="nonzero"/></clipPath><clipPath id="e56a0b2c7e"><path d="M 69 75 L 127 75 L 127 149.78125 L 69 149.78125 Z M 69 75 " clip-rule="nonzero"/></clipPath></defs><path fill="#000000" d="M 196.667969 67.625 C 195.363281 68.824219 195.273438 70.851562 196.46875 72.15625 L 198.34375 74.207031 L 198.796875 78.464844 C 200.617188 75.808594 202.375 73.304688 204.058594 70.957031 L 201.191406 67.824219 C 200.671875 67.257812 200 66.921875 199.292969 66.816406 L 198.5 59.335938 C 197.882812 59.117188 197.273438 58.851562 196.679688 58.539062 L 197.582031 67.039062 C 197.253906 67.179688 196.945312 67.371094 196.667969 67.625 Z M 196.667969 67.625 " fill-opacity="1" fill-rule="nonzero"/><g clip-path="url(#3d3494965b)"><path fill="#000000" d="M 254.3125 117.226562 L 241.566406 117.226562 C 241.578125 117.21875 241.585938 117.214844 241.597656 117.207031 C 245 115.304688 246.964844 111.914062 243.878906 106.675781 C 234.417969 90.605469 240.601562 86.769531 238.011719 80.496094 C 235.382812 74.117188 229.753906 73.28125 225.683594 76.046875 C 225.683594 76.050781 225.683594 76.054688 225.683594 76.054688 C 225.648438 76.074219 225.613281 76.089844 225.578125 76.109375 L 214.632812 82.511719 L 214.222656 82.066406 C 213.058594 83.902344 211.878906 85.785156 210.695312 87.703125 L 211.65625 88.753906 C 211.664062 88.761719 211.667969 88.765625 211.671875 88.769531 L 225.191406 80.003906 C 225.835938 79.585938 226.582031 79.347656 227.347656 79.3125 C 228.878906 79.242188 230.351562 80 231.1875 81.289062 C 232.484375 83.300781 231.910156 85.992188 229.902344 87.296875 L 219.25 94.203125 C 220.445312 94.84375 222.1875 94.878906 224.597656 93.828125 C 227.296875 100.621094 228.246094 106.265625 228.570312 110.519531 L 209.890625 115.074219 C 208.417969 115.433594 207.191406 116.453125 206.566406 117.835938 L 195.871094 141.507812 L 193.164062 141.507812 L 193.164062 137.9375 L 193.492188 137.9375 C 194.574219 137.9375 195.457031 137.050781 195.457031 135.96875 C 195.457031 135.777344 195.417969 135.59375 195.367188 135.414062 C 195.125 134.605469 194.378906 134.003906 193.492188 134.003906 L 155.445312 134.003906 C 154.558594 134.003906 153.8125 134.605469 153.570312 135.414062 C 153.519531 135.59375 153.480469 135.777344 153.480469 135.96875 C 153.480469 137.050781 154.363281 137.9375 155.445312 137.9375 L 155.773438 137.9375 L 155.773438 137.945312 L 169.523438 137.945312 L 169.523438 139.484375 L 155.773438 139.484375 L 155.773438 145.425781 L 155.445312 145.425781 C 154.363281 145.425781 153.480469 146.3125 153.480469 147.390625 C 153.480469 148.472656 154.363281 149.359375 155.445312 149.359375 L 193.492188 149.359375 C 194.574219 149.359375 195.457031 148.472656 195.457031 147.390625 C 195.457031 146.3125 194.574219 145.425781 193.492188 145.425781 L 193.164062 145.425781 L 193.164062 143.316406 L 195.148438 143.316406 C 194.589844 145.582031 195.703125 147.992188 197.898438 148.988281 C 198.558594 149.285156 199.246094 149.425781 199.925781 149.425781 C 201.800781 149.425781 203.59375 148.347656 204.417969 146.527344 L 214.554688 124.09375 L 216.59375 123.597656 L 216.59375 125.792969 L 218.148438 125.792969 L 218.710938 149.765625 L 220.828125 149.765625 L 221.390625 125.792969 L 249.183594 125.792969 L 249.75 149.765625 L 251.863281 149.765625 L 252.429688 125.792969 L 253.984375 125.792969 L 253.984375 121.160156 L 254.3125 121.160156 C 255.390625 121.160156 256.273438 120.273438 256.273438 119.191406 C 256.273438 118.113281 255.390625 117.226562 254.3125 117.226562 Z M 254.3125 117.226562 " fill-opacity="1" fill-rule="nonzero"/></g><path fill="#000000" d="M 178.078125 111.929688 L 169.589844 32.121094 C 169 31.921875 168.402344 31.75 167.804688 31.617188 L 176.625 114.566406 C 177.109375 113.679688 177.59375 112.800781 178.078125 111.929688 Z M 178.078125 111.929688 " fill-opacity="1" fill-rule="nonzero"/><path fill="#000000" d="M 185.40625 99.289062 L 178.953125 38.597656 C 178.269531 37.730469 177.605469 36.945312 176.96875 36.273438 L 183.933594 101.75 C 184.425781 100.921875 184.914062 100.097656 185.40625 99.289062 Z M 185.40625 99.289062 " fill-opacity="1" fill-rule="nonzero"/><path fill="#000000" d="M 192.03125 80.046875 L 189.050781 52.023438 C 188.371094 51.242188 187.710938 50.429688 187.058594 49.601562 L 190.253906 79.636719 C 190.871094 79.648438 191.472656 79.78125 192.03125 80.046875 Z M 192.03125 80.046875 " fill-opacity="1" fill-rule="nonzero"/><path fill="#000000" d="M 207.273438 60.300781 L 207.164062 59.289062 C 206.617188 59.46875 206.054688 59.613281 205.476562 59.734375 L 205.859375 63.332031 C 206.183594 62.261719 206.660156 61.242188 207.273438 60.300781 Z M 207.273438 60.300781 " fill-opacity="1" fill-rule="nonzero"/><path fill="#000000" d="M 215.390625 55.113281 L 215.28125 54.066406 C 214.777344 54.550781 214.253906 55.027344 213.707031 55.488281 C 214.265625 55.320312 214.828125 55.195312 215.390625 55.113281 Z M 215.390625 55.113281 " fill-opacity="1" fill-rule="nonzero"/><path fill="#000000" d="M 187.644531 132.894531 C 191.148438 120.46875 196.878906 108.558594 203.101562 97.585938 L 192.5 90.664062 C 186.050781 100.761719 179.109375 112.578125 172.164062 126.15625 L 172.882812 132.894531 Z M 187.644531 132.894531 " fill-opacity="1" fill-rule="nonzero"/><path fill="#000000" d="M 206.324219 71.421875 C 206.222656 71.191406 206.132812 70.957031 206.050781 70.722656 C 203.3125 74.519531 200.359375 78.746094 197.25 83.398438 L 207.5 90.089844 C 209.984375 85.980469 212.480469 82.03125 214.890625 78.265625 C 211.210938 77.5625 207.929688 75.113281 206.324219 71.421875 Z M 206.324219 71.421875 " fill-opacity="1" fill-rule="nonzero"/><g clip-path="url(#fe81e2e5b2)"><path fill="#000000" d="M 158.707031 132.894531 L 171.394531 132.894531 L 158.546875 12.375 L 160.015625 12.21875 L 161.941406 30.296875 C 166.167969 28.953125 170.613281 30.59375 175.277344 33.011719 C 182.066406 36.527344 190.722656 58.5625 202.425781 58.5625 C 214.128906 58.5625 219.382812 44.050781 223.957031 44.578125 C 225.5625 44.761719 223.015625 48.1875 217.796875 55.015625 C 221.199219 55.230469 224.410156 56.929688 226.492188 59.738281 C 233.121094 48.273438 235.769531 40.101562 228.792969 36.605469 C 216.558594 30.472656 212.839844 46.492188 204.53125 46.492188 C 196.222656 46.492188 188.539062 21.761719 179.957031 15.511719 C 175.84375 12.511719 170.007812 11.492188 165.046875 11.242188 C 165.421875 10.867188 165.644531 10.351562 165.628906 9.792969 C 165.628906 9.742188 165.632812 9.691406 165.628906 9.640625 C 165.511719 8.566406 164.539062 7.78125 163.46875 7.894531 L 159.597656 8.308594 L 144.109375 9.964844 L 140.042969 10.402344 C 138.96875 10.515625 138.1875 11.488281 138.300781 12.566406 C 138.414062 13.640625 139.386719 14.425781 140.460938 14.3125 L 144.527344 13.875 L 145.996094 13.71875 Z M 158.707031 132.894531 " fill-opacity="1" fill-rule="nonzero"/></g><g clip-path="url(#f9605e3327)"><path fill="#000000" d="M 217.292969 12.441406 C 218.085938 11.992188 218.5625 11.25 218.589844 10.554688 L 218.589844 10.539062 C 218.59375 10.503906 218.59375 10.472656 218.589844 10.441406 L 218.589844 0.21875 L 208.597656 2.972656 L 208.597656 12.648438 C 208.015625 12.457031 207.273438 12.535156 206.601562 12.917969 C 205.507812 13.535156 205.003906 14.71875 205.476562 15.554688 C 205.953125 16.394531 207.222656 16.570312 208.316406 15.953125 C 209.179688 15.460938 209.671875 14.621094 209.605469 13.878906 L 209.605469 6.992188 L 217.582031 4.792969 L 217.582031 9.140625 C 217 8.945312 216.257812 9.023438 215.578125 9.40625 C 214.484375 10.023438 213.984375 11.207031 214.457031 12.042969 C 214.929688 12.882812 216.199219 13.058594 217.292969 12.441406 Z M 209.605469 5.941406 L 209.605469 3.742188 L 217.582031 1.546875 L 217.582031 3.746094 Z M 209.605469 5.941406 " fill-opacity="1" fill-rule="nonzero"/></g><path fill="#000000" d="M 210.964844 20.683594 L 209.125 30.457031 C 208.589844 30.160156 207.847656 30.097656 207.113281 30.347656 C 205.925781 30.753906 205.210938 31.820312 205.523438 32.730469 C 205.832031 33.644531 207.046875 34.054688 208.234375 33.648438 C 209.175781 33.328125 209.8125 32.59375 209.890625 31.851562 L 211.539062 23.09375 L 214.964844 24.425781 L 215.332031 23.480469 L 215.308594 23.472656 L 215.597656 22.851562 Z M 210.964844 20.683594 " fill-opacity="1" fill-rule="nonzero"/><path fill="#000000" d="M 199.523438 8.382812 L 199.496094 8.386719 L 199.457031 7.703125 L 194.351562 8.011719 L 197.394531 17.480469 C 196.785156 17.472656 196.101562 17.773438 195.578125 18.347656 C 194.726562 19.269531 194.609375 20.550781 195.316406 21.203125 C 196.023438 21.855469 197.285156 21.632812 198.136719 20.707031 C 198.808594 19.976562 199.023438 19.027344 198.734375 18.339844 L 196.003906 9.855469 L 199.652344 9.386719 Z M 199.523438 8.382812 " fill-opacity="1" fill-rule="nonzero"/><path fill="#000000" d="M 228.789062 66.296875 C 232.324219 67.761719 235.46875 75.609375 240.769531 76.515625 C 248.183594 77.785156 250.035156 71.101562 248.296875 72.515625 C 246.558594 73.929688 243.539062 74.535156 238.777344 67.769531 C 234.910156 62.277344 231.054688 61.507812 227.894531 62.21875 C 228.449219 63.550781 228.738281 64.929688 228.789062 66.296875 Z M 228.789062 66.296875 " fill-opacity="1" fill-rule="nonzero"/><path fill="#000000" d="M 222.445312 57.585938 C 223.046875 57.9375 223.605469 58.347656 224.125 58.8125 C 224.644531 59.273438 225.113281 59.785156 225.53125 60.339844 C 225.949219 60.898438 226.308594 61.488281 226.613281 62.117188 C 226.914062 62.742188 227.152344 63.394531 227.328125 64.066406 C 227.503906 64.742188 227.609375 65.425781 227.648438 66.121094 C 227.6875 66.816406 227.660156 67.511719 227.566406 68.199219 C 227.46875 68.890625 227.304688 69.5625 227.078125 70.222656 C 226.847656 70.878906 226.554688 71.507812 226.203125 72.109375 C 225.851562 72.710938 225.445312 73.269531 224.980469 73.789062 C 224.519531 74.308594 224.007812 74.78125 223.453125 75.199219 C 222.898438 75.617188 222.308594 75.980469 221.679688 76.28125 C 221.054688 76.585938 220.40625 76.824219 219.730469 77 C 219.058594 77.175781 218.375 77.28125 217.679688 77.320312 C 216.984375 77.359375 216.292969 77.332031 215.605469 77.234375 C 214.917969 77.140625 214.242188 76.976562 213.585938 76.746094 C 212.929688 76.519531 212.300781 76.226562 211.703125 75.875 C 211.105469 75.519531 210.542969 75.113281 210.023438 74.648438 C 209.507812 74.183594 209.039062 73.675781 208.617188 73.117188 C 208.199219 72.5625 207.839844 71.96875 207.535156 71.34375 C 207.234375 70.714844 206.996094 70.066406 206.820312 69.390625 C 206.644531 68.714844 206.539062 68.03125 206.5 67.335938 C 206.460938 66.640625 206.488281 65.949219 206.585938 65.257812 C 206.679688 64.566406 206.84375 63.894531 207.074219 63.238281 C 207.300781 62.578125 207.59375 61.949219 207.945312 61.347656 C 208.296875 60.75 208.707031 60.1875 209.167969 59.667969 C 209.632812 59.148438 210.140625 58.679688 210.695312 58.261719 C 211.25 57.839844 211.839844 57.480469 212.46875 57.175781 C 213.09375 56.875 213.742188 56.632812 214.417969 56.460938 C 215.089844 56.285156 215.773438 56.175781 216.46875 56.136719 C 217.164062 56.097656 217.855469 56.125 218.542969 56.222656 C 219.230469 56.320312 219.90625 56.480469 220.5625 56.710938 C 221.21875 56.941406 221.847656 57.230469 222.445312 57.585938 Z M 222.445312 57.585938 " fill-opacity="1" fill-rule="nonzero"/><path fill="#000000" d="M 191.925781 81.28125 C 190.445312 80.3125 188.460938 80.730469 187.496094 82.214844 C 186.53125 83.699219 186.949219 85.6875 188.429688 86.65625 L 206.8125 98.648438 C 207.386719 99.023438 208.050781 99.195312 208.707031 99.167969 C 209.261719 99.140625 209.8125 98.972656 210.300781 98.65625 L 229.289062 86.34375 C 230.773438 85.378906 231.195312 83.394531 230.234375 81.90625 C 229.273438 80.417969 227.289062 79.996094 225.804688 80.957031 L 208.566406 92.136719 Z M 191.925781 81.28125 " fill-opacity="1" fill-rule="nonzero"/><path fill="#000000" d="M 19.558594 28.195312 C 20.457031 27.28125 21.605469 26.707031 22.851562 26.527344 C 22.941406 26.507812 23.035156 26.484375 23.136719 26.464844 C 24.703125 24.269531 26.199219 22.371094 27.851562 21.585938 C 27.164062 19.792969 26.804688 17.886719 26.796875 15.964844 C 22.917969 15.953125 18.574219 17.894531 14.5625 24.582031 C 8.871094 34.078125 4.777344 33.570312 2.316406 31.855469 C 0 30.238281 2.648438 37.902344 11.144531 36.757812 L 11.296875 36.605469 Z M 19.558594 28.195312 " fill-opacity="1" fill-rule="nonzero"/><path fill="#000000" d="M 43.851562 1.804688 C 44.777344 1.894531 45.6875 2.074219 46.578125 2.34375 C 47.46875 2.609375 48.328125 2.964844 49.148438 3.402344 C 49.972656 3.839844 50.746094 4.351562 51.464844 4.941406 C 52.1875 5.53125 52.84375 6.1875 53.4375 6.90625 C 54.03125 7.625 54.546875 8.394531 54.988281 9.21875 C 55.429688 10.039062 55.785156 10.894531 56.058594 11.785156 C 56.332031 12.679688 56.515625 13.589844 56.609375 14.515625 C 56.703125 15.445312 56.703125 16.371094 56.613281 17.300781 C 56.527344 18.230469 56.347656 19.140625 56.078125 20.03125 C 55.8125 20.925781 55.457031 21.785156 55.023438 22.609375 C 54.585938 23.429688 54.070312 24.203125 53.484375 24.925781 C 52.894531 25.648438 52.238281 26.308594 51.523438 26.902344 C 50.804688 27.492188 50.035156 28.011719 49.214844 28.453125 C 48.394531 28.894531 47.539062 29.253906 46.648438 29.527344 C 45.757812 29.796875 44.847656 29.980469 43.921875 30.074219 C 42.996094 30.167969 42.066406 30.171875 41.140625 30.082031 C 40.214844 29.992188 39.304688 29.816406 38.414062 29.546875 C 37.519531 29.277344 36.664062 28.925781 35.839844 28.488281 C 35.019531 28.050781 34.246094 27.535156 33.523438 26.945312 C 32.804688 26.355469 32.144531 25.703125 31.554688 24.984375 C 30.960938 24.261719 30.445312 23.492188 30.003906 22.671875 C 29.5625 21.851562 29.203125 20.992188 28.933594 20.101562 C 28.660156 19.210938 28.476562 18.300781 28.382812 17.371094 C 28.289062 16.445312 28.285156 15.515625 28.375 14.585938 C 28.464844 13.660156 28.644531 12.75 28.910156 11.855469 C 29.179688 10.960938 29.53125 10.105469 29.96875 9.28125 C 30.40625 8.457031 30.917969 7.683594 31.507812 6.960938 C 32.097656 6.238281 32.75 5.582031 33.46875 4.988281 C 34.1875 4.394531 34.957031 3.875 35.777344 3.433594 C 36.597656 2.992188 37.453125 2.636719 38.34375 2.363281 C 39.234375 2.089844 40.144531 1.90625 41.070312 1.8125 C 41.996094 1.71875 42.921875 1.71875 43.851562 1.804688 Z M 43.851562 1.804688 " fill-opacity="1" fill-rule="nonzero"/><g clip-path="url(#554195a054)"><path fill="#000000" d="M 59.996094 103.921875 C 59.871094 102.691406 59.402344 101.527344 58.648438 100.550781 L 46.496094 84.820312 L 42.324219 79.414062 C 41.441406 77.585938 40.703125 75.960938 40.679688 75.613281 C 41.796875 68.082031 43.535156 61.9375 45.492188 56.953125 C 45.789062 56.933594 46.085938 56.902344 46.386719 56.851562 C 46.6875 56.800781 46.980469 56.730469 47.265625 56.648438 C 51.035156 55.5625 53.503906 51.890625 53.054688 47.945312 L 66.710938 60.535156 C 67.707031 61.457031 68.992188 61.933594 70.285156 61.933594 C 71.140625 61.933594 72 61.726562 72.789062 61.300781 L 88.953125 52.574219 L 87.015625 56.792969 L 89.113281 57.761719 L 92.332031 50.75 L 95.222656 49.191406 C 97.785156 47.804688 98.746094 44.597656 97.363281 42.03125 C 97.183594 41.703125 96.980469 41.402344 96.75 41.128906 L 105.371094 22.359375 C 106.507812 22.441406 107.578125 21.902344 108.035156 20.90625 C 108.644531 19.582031 107.929688 17.949219 106.441406 17.265625 C 104.949219 16.578125 103.25 17.097656 102.640625 18.421875 C 102.183594 19.417969 102.472656 20.585938 103.273438 21.394531 L 94.859375 39.714844 C 93.417969 39.074219 91.707031 39.078125 90.210938 39.886719 L 71.09375 50.207031 L 59.273438 39.3125 L 58.125 38.25 C 58.132812 38.246094 58.144531 38.238281 58.144531 38.238281 C 58.144531 38.238281 57.8125 37.878906 57.144531 37.300781 L 38.609375 53.859375 C 38.777344 54.089844 38.9375 54.328125 39.074219 54.585938 C 39.808594 55.953125 39.964844 57.527344 39.515625 59.011719 C 38.765625 61.484375 36.535156 63.144531 33.957031 63.144531 C 33.390625 63.144531 32.824219 63.058594 32.277344 62.894531 L 29.453125 62.039062 L 27.992188 63.34375 L 25.859375 60.949219 L 19.152344 58.914062 C 16.992188 62.726562 13.808594 63.921875 11.464844 71.105469 C 10.261719 74.78125 11.28125 78.949219 13.535156 82.464844 L 15.472656 87.15625 L 23.738281 107.160156 L 7.226562 140.023438 C 5.589844 143.285156 6.902344 147.253906 10.15625 148.894531 C 11.109375 149.375 12.117188 149.601562 13.117188 149.601562 C 15.53125 149.601562 17.855469 148.269531 19.015625 145.960938 L 36.882812 110.398438 C 37.742188 108.683594 37.816406 106.675781 37.085938 104.902344 L 30.226562 88.308594 L 29.539062 86.636719 C 29.820312 86.25 30.109375 85.902344 30.402344 85.578125 L 31.34375 86.796875 L 47.058594 107.140625 L 50.789062 143.664062 C 51.136719 147.066406 54.003906 149.601562 57.347656 149.601562 C 57.570312 149.601562 57.796875 149.589844 58.023438 149.566406 C 61.648438 149.195312 64.289062 145.949219 63.917969 142.320312 Z M 59.996094 103.921875 " fill-opacity="1" fill-rule="nonzero"/></g><path fill="#000000" d="M 35.316406 51.667969 L 35.636719 51.765625 C 36.34375 51.980469 36.988281 52.320312 37.554688 52.765625 L 57.148438 35.257812 C 58.160156 35.789062 59.355469 35.722656 60.171875 34.992188 C 61.257812 34.023438 61.257812 32.242188 60.164062 31.015625 C 59.074219 29.792969 57.308594 29.585938 56.21875 30.558594 C 55.402344 31.285156 55.203125 32.46875 55.613281 33.535156 Z M 35.316406 51.667969 " fill-opacity="1" fill-rule="nonzero"/><path fill="#000000" d="M 32.714844 61.4375 C 33.128906 61.5625 33.546875 61.625 33.957031 61.625 C 35.800781 61.625 37.5 60.429688 38.0625 58.574219 C 38.746094 56.304688 37.464844 53.90625 35.199219 53.21875 L 15.117188 47.132812 L 23.976562 38.113281 L 25.882812 38.339844 L 22.140625 42.144531 C 22.058594 43.957031 21.9375 45.792969 21.777344 47.5625 L 33.613281 51.152344 L 52.660156 34.136719 C 50.96875 33.144531 48.871094 32.105469 46.363281 31.171875 C 42.1875 32.230469 37.597656 31.585938 33.75 29 C 33.3125 28.707031 32.894531 28.394531 32.496094 28.066406 C 24.875 27.164062 22.308594 28.203125 22.308594 28.203125 C 22.308594 28.203125 22.308594 28.214844 22.308594 28.214844 C 21.699219 28.425781 21.125 28.769531 20.640625 29.261719 L 4.027344 46.171875 C 2.972656 47.242188 2.558594 48.789062 2.929688 50.246094 C 3.300781 51.703125 4.402344 52.859375 5.839844 53.292969 Z M 32.714844 61.4375 " fill-opacity="1" fill-rule="nonzero"/><path fill="#000000" d="M 136.382812 72.160156 C 136.425781 72.167969 136.46875 72.171875 136.507812 72.171875 C 136.816406 72.171875 137.09375 71.953125 137.15625 71.640625 C 137.457031 70.101562 137.238281 68.796875 136.511719 67.765625 C 135.390625 66.175781 133.464844 65.871094 133.382812 65.859375 C 133.023438 65.808594 132.691406 66.050781 132.636719 66.410156 C 132.578125 66.769531 132.828125 67.109375 133.183594 67.164062 C 133.199219 67.167969 134.652344 67.410156 135.441406 68.539062 C 135.945312 69.261719 136.089844 70.21875 135.859375 71.386719 C 135.789062 71.742188 136.023438 72.089844 136.382812 72.160156 Z M 136.382812 72.160156 " fill-opacity="1" fill-rule="nonzero"/><g clip-path="url(#fc878fecf1)"><path fill="#000000" d="M 135.015625 63.128906 C 134.65625 63.058594 134.308594 63.285156 134.234375 63.644531 C 134.160156 64 134.390625 64.347656 134.75 64.421875 C 134.773438 64.425781 137.042969 64.914062 138.269531 66.832031 C 139.070312 68.085938 139.246094 69.691406 138.796875 71.605469 C 138.714844 71.960938 138.933594 72.316406 139.289062 72.398438 C 139.339844 72.410156 139.390625 72.417969 139.441406 72.417969 C 139.738281 72.417969 140.011719 72.210938 140.082031 71.90625 C 140.617188 69.632812 140.378906 67.6875 139.378906 66.121094 C 137.859375 63.738281 135.128906 63.152344 135.015625 63.128906 Z M 135.015625 63.128906 " fill-opacity="1" fill-rule="nonzero"/></g><path fill="#000000" d="M 76.21875 140.078125 L 65.09375 80.347656 L 66.515625 79.152344 C 67.894531 89.089844 71.457031 108.546875 78.722656 113.839844 L 75.921875 77.792969 L 78.070312 75.984375 L 62.710938 75.984375 L 59.785156 78.445312 L 71.265625 140.078125 Z M 76.21875 140.078125 " fill-opacity="1" fill-rule="nonzero"/><path fill="#000000" d="M 136.074219 78.445312 L 133.148438 75.984375 L 117.789062 75.984375 L 119.9375 77.792969 L 117.140625 113.839844 C 124.402344 108.542969 127.964844 89.089844 129.34375 79.152344 L 130.769531 80.347656 L 119.640625 140.078125 L 124.59375 140.078125 Z M 136.074219 78.445312 " fill-opacity="1" fill-rule="nonzero"/><path fill="#000000" d="M 81.507812 80.140625 L 86.445312 75.984375 L 81.148438 75.984375 L 77.976562 78.65625 L 82.742188 140.078125 L 86.160156 140.078125 Z M 81.507812 80.140625 " fill-opacity="1" fill-rule="nonzero"/><path fill="#000000" d="M 114.710938 75.984375 L 109.414062 75.984375 L 114.351562 80.140625 L 109.699219 140.078125 L 113.117188 140.078125 L 117.886719 78.65625 Z M 114.710938 75.984375 " fill-opacity="1" fill-rule="nonzero"/><path fill="#000000" d="M 63.371094 71.113281 L 132.488281 71.113281 L 132.488281 74.523438 L 63.371094 74.523438 Z M 63.371094 71.113281 " fill-opacity="1" fill-rule="nonzero"/><g clip-path="url(#e56a0b2c7e)"><path fill="#000000" d="M 124.214844 141.539062 L 101.722656 141.539062 L 101.453125 140.078125 L 100.785156 136.421875 L 98.660156 136.421875 L 98.660156 120.867188 C 100.203125 120.582031 104.097656 119.722656 109.464844 117.546875 L 112.300781 81 L 106.335938 75.984375 L 89.523438 75.984375 L 83.558594 81 L 86.394531 117.546875 C 91.765625 119.722656 95.660156 120.582031 97.199219 120.867188 L 97.199219 136.421875 L 95.074219 136.421875 L 94.40625 140.078125 L 94.136719 141.539062 L 71.648438 141.539062 L 69.277344 149.335938 L 126.582031 149.335938 Z M 124.214844 141.539062 " fill-opacity="1" fill-rule="nonzero"/></g></svg>